M48
;Layer_Color=9474304
;FILE_FORMAT=2:5
INCH,TZ
;TYPE=PLATED
T3F00S00C0.02362
T6F00S00C0.03937
;TYPE=NON_PLATED
%
G90
G05
T03
G00X349803Y83661
M15
G01X354921
M16
G00X349803Y136811
M15
G01X354921
M16
G00X152953Y136811
M15
G01X158071
M16
G00X152953Y83661
M15
G01X158071
M16
T06
G00X142126Y58071
M15
G01Y48228
M16
G00X165748Y57087
M15
G01Y49213
M16
G00X338976Y58071
M15
G01Y48228
M16
G00X362598Y57087
M15
G01Y49213
M16
G00X346850Y71653
M15
G01X354724
M16
G00X150000Y71653
M15
G01X157874
M16
M17
M30
