G04*
G04 #@! TF.GenerationSoftware,Altium Limited,Altium Designer,20.0.10 (225)*
G04*
G04 Layer_Physical_Order=1*
G04 Layer_Color=255*
%FSLAX25Y25*%
%MOIN*%
G70*
G01*
G75*
%ADD10C,0.00787*%
%ADD11R,0.10630X0.06299*%
%ADD12R,0.04331X0.03937*%
%ADD13R,0.16693X0.15000*%
%ADD14R,0.15000X0.16693*%
%ADD15R,0.04724X0.05906*%
%ADD16R,0.03937X0.04331*%
%ADD17R,0.04724X0.04331*%
G04:AMPARAMS|DCode=18|XSize=11.81mil|YSize=26.38mil|CornerRadius=1.95mil|HoleSize=0mil|Usage=FLASHONLY|Rotation=270.000|XOffset=0mil|YOffset=0mil|HoleType=Round|Shape=RoundedRectangle|*
%AMROUNDEDRECTD18*
21,1,0.01181,0.02248,0,0,270.0*
21,1,0.00791,0.02638,0,0,270.0*
1,1,0.00390,-0.01124,-0.00396*
1,1,0.00390,-0.01124,0.00396*
1,1,0.00390,0.01124,0.00396*
1,1,0.00390,0.01124,-0.00396*
%
%ADD18ROUNDEDRECTD18*%
%ADD19R,0.05118X0.06890*%
%ADD20R,0.15748X0.10236*%
%ADD21R,0.12205X0.19685*%
%ADD22C,0.01968*%
%ADD23C,0.01000*%
%ADD24C,0.05000*%
%ADD25C,0.06000*%
%ADD26C,0.11811*%
%ADD27C,0.15748*%
%ADD28C,0.27559*%
%ADD29R,0.13780X0.05906*%
%ADD30R,0.05906X0.13780*%
%ADD31R,0.05906X0.15748*%
%ADD32C,0.05906*%
%ADD33C,0.09200*%
%ADD34O,0.10630X0.05512*%
%ADD35C,0.01968*%
%ADD36C,0.02756*%
%ADD37C,0.02799*%
G36*
X392095Y1606D02*
X198456D01*
Y313355D01*
X392095Y313355D01*
Y1606D01*
D02*
G37*
G36*
X195245D02*
X1606D01*
Y313355D01*
X195245Y313355D01*
Y1606D01*
D02*
G37*
%LPC*%
G36*
X351276Y298561D02*
X349867Y298422D01*
X348512Y298011D01*
X347263Y297344D01*
X346169Y296445D01*
X345271Y295351D01*
X344603Y294102D01*
X344192Y292748D01*
X344053Y291339D01*
X344192Y289930D01*
X344603Y288575D01*
X345271Y287326D01*
X346169Y286232D01*
X347263Y285334D01*
X348512Y284666D01*
X349867Y284255D01*
X351276Y284116D01*
X352685Y284255D01*
X354039Y284666D01*
X355288Y285334D01*
X356382Y286232D01*
X357281Y287326D01*
X357948Y288575D01*
X358359Y289930D01*
X358498Y291339D01*
X358359Y292748D01*
X357948Y294102D01*
X357281Y295351D01*
X356382Y296445D01*
X355288Y297344D01*
X354039Y298011D01*
X352685Y298422D01*
X351276Y298561D01*
D02*
G37*
G36*
X239276D02*
X237867Y298422D01*
X236512Y298011D01*
X235263Y297344D01*
X234169Y296445D01*
X233271Y295351D01*
X232603Y294102D01*
X232192Y292748D01*
X232053Y291339D01*
X232192Y289930D01*
X232603Y288575D01*
X233271Y287326D01*
X234169Y286232D01*
X235263Y285334D01*
X236512Y284666D01*
X237867Y284255D01*
X239276Y284116D01*
X240685Y284255D01*
X242039Y284666D01*
X243288Y285334D01*
X244382Y286232D01*
X245281Y287326D01*
X245948Y288575D01*
X246359Y289930D01*
X246498Y291339D01*
X246359Y292748D01*
X245948Y294102D01*
X245281Y295351D01*
X244382Y296445D01*
X243288Y297344D01*
X242039Y298011D01*
X240685Y298422D01*
X239276Y298561D01*
D02*
G37*
G36*
X323071Y291004D02*
X269378D01*
X268520Y290891D01*
X267720Y290560D01*
X267033Y290033D01*
X264104Y287104D01*
X263577Y286418D01*
X263246Y285618D01*
X263133Y284760D01*
Y283387D01*
X263009Y283225D01*
X262632Y282315D01*
X262503Y281339D01*
X262505Y281326D01*
X260300Y277537D01*
X259608Y277006D01*
X259009Y276225D01*
X258915Y275998D01*
X257636D01*
X257543Y276225D01*
X256943Y277006D01*
X256162Y277606D01*
X255252Y277982D01*
X254276Y278111D01*
X253971Y278071D01*
X253332Y279178D01*
X253543Y279452D01*
X253920Y280362D01*
X254048Y281339D01*
X253920Y282315D01*
X253543Y283225D01*
X252943Y284006D01*
X252162Y284606D01*
X251252Y284982D01*
X250276Y285111D01*
X249299Y284982D01*
X248389Y284606D01*
X247608Y284006D01*
X247009Y283225D01*
X246632Y282315D01*
X246503Y281339D01*
X246632Y280362D01*
X247009Y279452D01*
X247608Y278671D01*
X248389Y278072D01*
X248609Y277981D01*
X248731Y276812D01*
X246974Y275055D01*
X246713Y274664D01*
X246621Y274203D01*
X246621Y274203D01*
Y271079D01*
X246621Y271079D01*
X246713Y270618D01*
X246974Y270227D01*
X246974Y270227D01*
X251911Y265290D01*
X252302Y265029D01*
X252762Y264937D01*
X252762Y264937D01*
X260708D01*
X261930Y263715D01*
X262321Y263454D01*
X262782Y263363D01*
X262782Y263363D01*
X270866D01*
X270866Y263363D01*
X271327Y263454D01*
X271718Y263715D01*
X273127Y265125D01*
X283646D01*
X283646Y265125D01*
X284106Y265217D01*
X284497Y265478D01*
X290444Y271424D01*
X296638D01*
X296638Y271424D01*
X297098Y271516D01*
X297489Y271777D01*
X297682Y271970D01*
X297702Y271983D01*
X299929Y274210D01*
X300480Y273842D01*
X301325Y273674D01*
X302170Y273842D01*
X302948Y274297D01*
X303879Y273944D01*
X304724Y273777D01*
X305569Y273944D01*
X306286Y274423D01*
X306764Y275139D01*
X306932Y275984D01*
X306764Y276829D01*
X306286Y277545D01*
X305569Y278024D01*
X304724Y278192D01*
X304303Y278108D01*
X303307Y279104D01*
X303307Y279104D01*
X302917Y279366D01*
X302456Y279457D01*
X300300D01*
X299839Y279366D01*
X299449Y279104D01*
X299449Y279104D01*
X298557Y278213D01*
X297676Y278349D01*
X297220Y278546D01*
X296837Y279120D01*
X296121Y279599D01*
X295276Y279767D01*
X294431Y279599D01*
X293714Y279120D01*
X293236Y278404D01*
X293094Y277691D01*
X288189D01*
X287687Y277591D01*
X287261Y277306D01*
X281346Y271391D01*
X275079D01*
X273682Y272789D01*
X273920Y273362D01*
X274048Y274339D01*
X273920Y275315D01*
X273543Y276225D01*
X272943Y277006D01*
X272162Y277606D01*
X271252Y277982D01*
X270276Y278111D01*
X269971Y278071D01*
X269332Y279178D01*
X269543Y279452D01*
X269919Y280362D01*
X270048Y281339D01*
X269919Y282315D01*
X269765Y282689D01*
Y283386D01*
X270751Y284373D01*
X308401D01*
X309009Y283225D01*
X308632Y282315D01*
X308503Y281339D01*
X308632Y280362D01*
X309009Y279452D01*
X309608Y278671D01*
X310389Y278072D01*
X311299Y277695D01*
X312276Y277566D01*
X312580Y277606D01*
X313219Y276499D01*
X313009Y276225D01*
X312632Y275315D01*
X312503Y274339D01*
X312632Y273362D01*
X313009Y272452D01*
X313608Y271671D01*
X314389Y271072D01*
X315299Y270695D01*
X316276Y270566D01*
X317252Y270695D01*
X318162Y271072D01*
X318943Y271671D01*
X319037Y271794D01*
X320519Y271947D01*
X320559Y271926D01*
X320960Y271516D01*
Y250015D01*
X311583D01*
Y253551D01*
X311919Y254362D01*
X312048Y255339D01*
X311919Y256315D01*
X311543Y257225D01*
X310943Y258006D01*
X310162Y258606D01*
X309252Y258982D01*
X308276Y259111D01*
X307299Y258982D01*
X306389Y258606D01*
X305608Y258006D01*
X305009Y257225D01*
X304632Y256315D01*
X304503Y255339D01*
X304632Y254362D01*
X304952Y253589D01*
Y248213D01*
X304550Y247812D01*
X304376Y247551D01*
X304315Y247244D01*
Y225197D01*
X304315Y225197D01*
X304376Y224890D01*
X304550Y224629D01*
X304551Y224629D01*
X305732Y223448D01*
X305992Y223274D01*
X306034Y223266D01*
X306313Y222848D01*
X307029Y222369D01*
X307874Y222201D01*
X308719Y222369D01*
X309435Y222848D01*
X309679Y223213D01*
X314173D01*
Y223031D01*
X331087D01*
Y219488D01*
X314173D01*
Y207677D01*
X314759D01*
X315639Y206496D01*
X315622Y206412D01*
X315706Y205991D01*
X315133Y205418D01*
X314872Y205027D01*
X314854Y204939D01*
X314477Y204864D01*
X314152Y204647D01*
X313935Y204322D01*
X313859Y203939D01*
Y203148D01*
X313556Y202779D01*
X283354D01*
X283354Y202779D01*
X282893Y202687D01*
X282503Y202426D01*
X279644Y199568D01*
X278349Y199608D01*
X277625Y200091D01*
X276772Y200261D01*
X275919Y200091D01*
X275195Y199608D01*
X274712Y198884D01*
X274542Y198031D01*
X274712Y197178D01*
X275195Y196454D01*
X275919Y195971D01*
X276772Y195801D01*
X277625Y195971D01*
X278349Y196454D01*
X278597Y196827D01*
X279811D01*
X279811Y196827D01*
X280271Y196918D01*
X280662Y197180D01*
X283853Y200371D01*
X308692D01*
X309357Y199303D01*
X309362Y199189D01*
X309210Y198425D01*
X309378Y197580D01*
X309856Y196864D01*
X310572Y196386D01*
X311417Y196217D01*
X312262Y196386D01*
X312979Y196864D01*
X313457Y197580D01*
X313476Y197675D01*
X313591Y197745D01*
X314768Y198228D01*
X314860Y198209D01*
X317108D01*
X317492Y198285D01*
X317816Y198502D01*
X318034Y198827D01*
X318110Y199211D01*
Y200002D01*
X318034Y200385D01*
X317896Y200591D01*
X318034Y200796D01*
X318110Y201179D01*
Y201971D01*
X318034Y202354D01*
X317896Y202559D01*
X318034Y202764D01*
X318110Y203148D01*
Y203939D01*
X318048Y204247D01*
X318675Y204372D01*
X319391Y204851D01*
X319869Y205567D01*
X320037Y206412D01*
X320021Y206496D01*
X320901Y207677D01*
X326540D01*
Y204292D01*
X325630Y203381D01*
X324803D01*
X324112Y203244D01*
X323526Y202852D01*
X323416Y202830D01*
X323318Y202896D01*
X322935Y202972D01*
X320687D01*
X320304Y202896D01*
X319979Y202679D01*
X319762Y202354D01*
X319686Y201971D01*
Y201179D01*
X319762Y200796D01*
X319899Y200591D01*
X319762Y200385D01*
X319686Y200002D01*
Y199211D01*
X319762Y198827D01*
X319979Y198502D01*
X320304Y198285D01*
X320616Y198223D01*
X320698Y197807D01*
X320959Y197416D01*
X321116Y197259D01*
X320938Y196078D01*
X320079Y196078D01*
X320079Y196078D01*
X319772Y196017D01*
X319511Y195843D01*
X319337Y195583D01*
X319276Y195276D01*
X319276Y195276D01*
X319276Y195230D01*
X319276Y190096D01*
X316990Y187811D01*
X270123Y187811D01*
Y201996D01*
X269986Y202688D01*
X269594Y203274D01*
X269090Y203778D01*
X268969Y204388D01*
X268490Y205104D01*
X267774Y205583D01*
X266929Y205751D01*
X266084Y205583D01*
X265368Y205104D01*
X264889Y204388D01*
X264721Y203543D01*
X264889Y202698D01*
X265368Y201982D01*
X266084Y201504D01*
X266298Y201461D01*
X266510Y201248D01*
Y187811D01*
X251054D01*
X247107Y191757D01*
X246681Y192042D01*
X246179Y192142D01*
X229793D01*
X222188Y199747D01*
X221763Y200031D01*
X221260Y200131D01*
X213539D01*
X213372Y200380D01*
X212656Y200858D01*
X211811Y201026D01*
X210966Y200858D01*
X210861Y200788D01*
X209680Y201419D01*
Y210285D01*
X223325Y223930D01*
X223716Y224516D01*
X223854Y225207D01*
Y226365D01*
X224087Y226714D01*
X224255Y227559D01*
X224087Y228404D01*
X223609Y229120D01*
X222892Y229599D01*
X222047Y229767D01*
X221202Y229599D01*
X220486Y229120D01*
X220008Y228404D01*
X219840Y227559D01*
X220008Y226714D01*
X220241Y226365D01*
Y225955D01*
X218396Y224110D01*
X216982Y224366D01*
X216861Y224548D01*
X216144Y225027D01*
X215300Y225195D01*
X214455Y225027D01*
X213738Y224548D01*
X213260Y223832D01*
X213126Y223161D01*
X203841Y213876D01*
X203449Y213290D01*
X203312Y212598D01*
Y90551D01*
X203449Y89860D01*
X203841Y89274D01*
X206102Y87012D01*
X206234Y86562D01*
X206269Y85750D01*
X204157Y83639D01*
X203983Y83378D01*
X203922Y83071D01*
X203922Y39416D01*
X203922Y39370D01*
X203922Y39370D01*
X203983Y39063D01*
X204157Y38802D01*
X204417Y38628D01*
X204724Y38567D01*
X204724Y38567D01*
X204770Y38567D01*
X303150Y38567D01*
X303457Y38628D01*
X303717Y38802D01*
X303891Y39063D01*
X303953Y39370D01*
X303953Y88537D01*
X303953Y88583D01*
X303953Y88583D01*
X303891Y88890D01*
X303717Y89150D01*
X303457Y89324D01*
X303150Y89385D01*
X303150Y89386D01*
X303104Y89385D01*
X248389D01*
X247724Y90469D01*
X247724Y90567D01*
X247877Y91339D01*
X247709Y92184D01*
X247230Y92900D01*
X246514Y93378D01*
X245669Y93546D01*
X245600Y93533D01*
X244348Y94338D01*
X244269Y94739D01*
X244476Y95020D01*
X244820Y95102D01*
X245333Y95204D01*
X246049Y95683D01*
X246528Y96399D01*
X246696Y97244D01*
X246528Y98089D01*
X246294Y98438D01*
Y133071D01*
X246157Y133762D01*
X245765Y134348D01*
X237555Y142559D01*
X237473Y142971D01*
X236994Y143687D01*
X236278Y144166D01*
X236044Y144212D01*
X235410Y144401D01*
X235055Y145463D01*
X235055Y169291D01*
X234994Y169599D01*
X234820Y169859D01*
X234820Y169859D01*
X221040Y183639D01*
X220780Y183813D01*
X220472Y183874D01*
X209680D01*
Y196218D01*
X210861Y196849D01*
X210966Y196779D01*
X211811Y196611D01*
X212656Y196779D01*
X213372Y197257D01*
X213539Y197506D01*
X220717D01*
X228321Y189901D01*
X228747Y189616D01*
X229250Y189516D01*
X245635D01*
X249197Y185954D01*
Y159449D01*
X249258Y159142D01*
X249432Y158881D01*
X249693Y158707D01*
X250000Y158646D01*
X346063Y158646D01*
X346370Y158707D01*
X346631Y158881D01*
X354111Y166361D01*
X354285Y166622D01*
X354346Y166929D01*
Y235039D01*
X354346Y235039D01*
X354285Y235347D01*
X354111Y235607D01*
X352834Y236884D01*
X359520Y243569D01*
X372835D01*
X373337Y243669D01*
X373763Y243954D01*
X379275Y249465D01*
X379559Y249891D01*
X379659Y250394D01*
Y255315D01*
X381299D01*
Y260827D01*
X375394D01*
Y255315D01*
X377034D01*
Y250937D01*
X372291Y246195D01*
X358976D01*
X358474Y246095D01*
X358048Y245810D01*
X350978Y238740D01*
X343087Y246631D01*
X342827Y246805D01*
X342520Y246866D01*
X332299Y246866D01*
X332185Y246843D01*
X332064Y247024D01*
X329308Y249780D01*
X329047Y249954D01*
X328740Y250015D01*
X327591D01*
Y272570D01*
X327636Y272679D01*
X328915D01*
X329009Y272452D01*
X329608Y271671D01*
X330389Y271072D01*
X331299Y270695D01*
X332276Y270566D01*
X333252Y270695D01*
X334162Y271072D01*
X334943Y271671D01*
X335543Y272452D01*
X335919Y273362D01*
X336048Y274339D01*
X335919Y275315D01*
X335543Y276225D01*
X334943Y277006D01*
X334162Y277606D01*
X333252Y277982D01*
X332276Y278111D01*
X331971Y278071D01*
X331332Y279178D01*
X331543Y279452D01*
X331920Y280362D01*
X332048Y281339D01*
X331920Y282315D01*
X331543Y283225D01*
X331030Y283893D01*
X331139Y284719D01*
X331026Y285577D01*
X330694Y286377D01*
X330167Y287064D01*
X327238Y289993D01*
X326552Y290520D01*
X325752Y290851D01*
X324894Y290964D01*
X323379D01*
X323071Y291004D01*
D02*
G37*
G36*
X390551Y268504D02*
X384252D01*
Y265968D01*
X381299D01*
Y267520D01*
X375394D01*
Y262008D01*
X381299D01*
Y263560D01*
X384252D01*
Y262598D01*
X390551D01*
Y268504D01*
D02*
G37*
G36*
X299276Y259111D02*
X298299Y258982D01*
X297389Y258606D01*
X296608Y258006D01*
X296009Y257225D01*
X295632Y256315D01*
X295503Y255339D01*
X295632Y254362D01*
X295869Y253790D01*
X294377Y252299D01*
X273700D01*
X269809Y256190D01*
X269809Y256190D01*
X269418Y256451D01*
X268958Y256543D01*
X268957Y256543D01*
X249825D01*
X249543Y257225D01*
X248943Y258006D01*
X248162Y258606D01*
X247252Y258982D01*
X246276Y259111D01*
X245299Y258982D01*
X244389Y258606D01*
X243608Y258006D01*
X243009Y257225D01*
X242632Y256315D01*
X242503Y255339D01*
X242632Y254362D01*
X243009Y253452D01*
X243608Y252671D01*
X244389Y252072D01*
X245299Y251695D01*
X246276Y251566D01*
X247252Y251695D01*
X248162Y252072D01*
X248943Y252671D01*
X249543Y253452D01*
X249825Y254134D01*
X268459D01*
X272350Y250243D01*
X272740Y249982D01*
X273201Y249891D01*
X273201Y249891D01*
X294876D01*
X294876Y249891D01*
X295337Y249982D01*
X295728Y250243D01*
X297507Y252023D01*
X298299Y251695D01*
X299276Y251566D01*
X300252Y251695D01*
X301162Y252072D01*
X301943Y252671D01*
X302543Y253452D01*
X302920Y254362D01*
X303048Y255339D01*
X302920Y256315D01*
X302543Y257225D01*
X301943Y258006D01*
X301162Y258606D01*
X300252Y258982D01*
X299276Y259111D01*
D02*
G37*
G36*
X237276D02*
X236299Y258982D01*
X235389Y258606D01*
X234608Y258006D01*
X234009Y257225D01*
X233632Y256315D01*
X233503Y255339D01*
X233632Y254362D01*
X234009Y253452D01*
X234608Y252671D01*
X235389Y252072D01*
X236299Y251695D01*
X237276Y251566D01*
X238252Y251695D01*
X239162Y252072D01*
X239943Y252671D01*
X240543Y253452D01*
X240919Y254362D01*
X241048Y255339D01*
X240919Y256315D01*
X240543Y257225D01*
X239943Y258006D01*
X239162Y258606D01*
X238252Y258982D01*
X237276Y259111D01*
D02*
G37*
G36*
X375197Y239009D02*
X373885Y238879D01*
X372623Y238497D01*
X371461Y237875D01*
X370441Y237039D01*
X369605Y236020D01*
X368984Y234857D01*
X368601Y233595D01*
X368472Y232283D01*
X368601Y230971D01*
X368984Y229710D01*
X369605Y228547D01*
X370441Y227528D01*
X371461Y226692D01*
X372623Y226070D01*
X373885Y225687D01*
X375197Y225558D01*
X376509Y225687D01*
X377770Y226070D01*
X378933Y226692D01*
X379952Y227528D01*
X380789Y228547D01*
X381410Y229710D01*
X381793Y230971D01*
X381922Y232283D01*
X381793Y233595D01*
X381410Y234857D01*
X380789Y236020D01*
X379952Y237039D01*
X378933Y237875D01*
X377770Y238497D01*
X376509Y238879D01*
X375197Y239009D01*
D02*
G37*
G36*
X248819Y226963D02*
X247966Y226793D01*
X247242Y226310D01*
X246759Y225586D01*
X246589Y224733D01*
X246759Y223880D01*
X247012Y223500D01*
Y217312D01*
X246990Y217289D01*
X246822Y217255D01*
X246099Y216772D01*
X245616Y216049D01*
X245446Y215195D01*
X245616Y214342D01*
X246099Y213619D01*
X246822Y213135D01*
X247676Y212965D01*
X248529Y213135D01*
X249253Y213619D01*
X249736Y214342D01*
X249881Y215071D01*
X250096Y215286D01*
X250488Y215872D01*
X250625Y216563D01*
Y223500D01*
X250879Y223880D01*
X251049Y224733D01*
X250879Y225586D01*
X250396Y226310D01*
X249672Y226793D01*
X248819Y226963D01*
D02*
G37*
G36*
X225590Y219137D02*
X224746Y218969D01*
X224029Y218490D01*
X223551Y217774D01*
X223383Y216929D01*
X223551Y216084D01*
X224029Y215368D01*
X224746Y214889D01*
X225590Y214721D01*
X226011Y214805D01*
X235763Y205054D01*
X236153Y204793D01*
X236614Y204701D01*
X236614Y204701D01*
X244732D01*
X245036Y204331D01*
X245204Y203486D01*
X245683Y202770D01*
X246399Y202291D01*
X247244Y202123D01*
X248089Y202291D01*
X248805Y202770D01*
X249284Y203486D01*
X249452Y204331D01*
X249284Y205176D01*
X248805Y205892D01*
X248089Y206370D01*
X247244Y206539D01*
X246823Y206455D01*
X246521Y206757D01*
X246521Y206757D01*
X246130Y207018D01*
X245669Y207110D01*
X237113D01*
X227715Y216508D01*
X227798Y216929D01*
X227630Y217774D01*
X227152Y218490D01*
X226435Y218969D01*
X225590Y219137D01*
D02*
G37*
G36*
X375197Y207513D02*
X373885Y207383D01*
X372623Y207001D01*
X371461Y206379D01*
X370441Y205543D01*
X369605Y204524D01*
X368984Y203361D01*
X368601Y202099D01*
X368472Y200787D01*
X368601Y199475D01*
X368984Y198214D01*
X369605Y197051D01*
X370441Y196032D01*
X371461Y195195D01*
X372623Y194574D01*
X373885Y194191D01*
X375197Y194062D01*
X376509Y194191D01*
X377770Y194574D01*
X378933Y195195D01*
X379952Y196032D01*
X380789Y197051D01*
X381410Y198214D01*
X381793Y199475D01*
X381922Y200787D01*
X381793Y202099D01*
X381410Y203361D01*
X380789Y204524D01*
X379952Y205543D01*
X378933Y206379D01*
X377770Y207001D01*
X376509Y207383D01*
X375197Y207513D01*
D02*
G37*
G36*
Y176017D02*
X373885Y175887D01*
X372623Y175505D01*
X371461Y174883D01*
X370441Y174047D01*
X369605Y173028D01*
X368984Y171865D01*
X368601Y170603D01*
X368472Y169291D01*
X368601Y167979D01*
X368984Y166718D01*
X369605Y165555D01*
X370441Y164536D01*
X371461Y163699D01*
X372623Y163078D01*
X373885Y162695D01*
X375197Y162566D01*
X376509Y162695D01*
X377770Y163078D01*
X378933Y163699D01*
X379952Y164536D01*
X380789Y165555D01*
X381410Y166718D01*
X381793Y167979D01*
X381922Y169291D01*
X381793Y170603D01*
X381410Y171865D01*
X380789Y173028D01*
X379952Y174047D01*
X378933Y174883D01*
X377770Y175505D01*
X376509Y175887D01*
X375197Y176017D01*
D02*
G37*
G36*
X333071Y106315D02*
X324409Y106315D01*
X324102Y106254D01*
X323842Y106079D01*
X316203Y98441D01*
X310630D01*
X310323Y98379D01*
X310062Y98206D01*
X307700Y95843D01*
X307526Y95583D01*
X307465Y95276D01*
Y59055D01*
X307526Y58748D01*
X307700Y58487D01*
X307700Y58487D01*
X308152Y58035D01*
X308370Y57275D01*
X308307Y56933D01*
X308151Y56530D01*
X307700Y56080D01*
X307700Y56080D01*
X307526Y55819D01*
X307465Y55512D01*
X307465Y33465D01*
X307465Y33465D01*
X307526Y33157D01*
X307700Y32897D01*
X307700Y32897D01*
X308487Y32109D01*
X308487Y32109D01*
X308748Y31935D01*
X309055Y31874D01*
X324803D01*
X325110Y31935D01*
X325371Y32109D01*
X325371Y32109D01*
X326158Y32897D01*
X326158Y32897D01*
X326332Y33157D01*
X326393Y33465D01*
X326393Y55512D01*
X326332Y55819D01*
X326158Y56080D01*
X325707Y56530D01*
X325605Y56795D01*
X325615Y57717D01*
X325706Y58035D01*
X326158Y58487D01*
X326158Y58487D01*
X326332Y58748D01*
X326393Y59055D01*
X326393Y70140D01*
X339938Y83684D01*
X340112Y83945D01*
X340173Y84252D01*
X340173Y99213D01*
X340112Y99520D01*
X339938Y99780D01*
X339938Y99780D01*
X333639Y106079D01*
X333378Y106254D01*
X333071Y106315D01*
D02*
G37*
G36*
X281496Y30347D02*
X280520Y30219D01*
X279610Y29842D01*
X278829Y29242D01*
X278229Y28461D01*
X277852Y27551D01*
X277724Y26575D01*
X277852Y25598D01*
X278229Y24689D01*
X278829Y23907D01*
X279610Y23308D01*
X280520Y22931D01*
X281496Y22802D01*
X282472Y22931D01*
X283382Y23308D01*
X284164Y23907D01*
X284763Y24689D01*
X285140Y25598D01*
X285268Y26575D01*
X285140Y27551D01*
X284763Y28461D01*
X284164Y29242D01*
X283382Y29842D01*
X282472Y30219D01*
X281496Y30347D01*
D02*
G37*
G36*
X246063D02*
X245087Y30219D01*
X244177Y29842D01*
X243395Y29242D01*
X242796Y28461D01*
X242419Y27551D01*
X242291Y26575D01*
X242419Y25598D01*
X242796Y24689D01*
X243395Y23907D01*
X244177Y23308D01*
X245087Y22931D01*
X246063Y22802D01*
X247039Y22931D01*
X247949Y23308D01*
X248730Y23907D01*
X249330Y24689D01*
X249707Y25598D01*
X249835Y26575D01*
X249707Y27551D01*
X249330Y28461D01*
X248730Y29242D01*
X247949Y29842D01*
X247039Y30219D01*
X246063Y30347D01*
D02*
G37*
G36*
X320079Y26787D02*
X297244Y26787D01*
X296937Y26726D01*
X296676Y26552D01*
X295102Y24977D01*
X294928Y24717D01*
X294866Y24409D01*
X294866Y10236D01*
X294928Y9929D01*
X295102Y9669D01*
X296676Y8094D01*
X296937Y7920D01*
X297244Y7859D01*
X320079Y7859D01*
X320386Y7920D01*
X320646Y8094D01*
X321434Y8881D01*
X321434Y8881D01*
X321608Y9142D01*
X321669Y9449D01*
X321669Y25197D01*
X321608Y25504D01*
X321434Y25765D01*
X321434Y25765D01*
X320646Y26552D01*
X320646Y26552D01*
X320386Y26726D01*
X320079Y26787D01*
D02*
G37*
G36*
X342520Y63401D02*
X335827Y63401D01*
X335520Y63340D01*
X335259Y63166D01*
X334078Y61985D01*
X333904Y61725D01*
X333843Y61417D01*
X333843Y33010D01*
X326598Y25765D01*
X326424Y25504D01*
X326363Y25197D01*
X326362Y9516D01*
X326424Y9209D01*
X326598Y8949D01*
X327453Y8094D01*
X327713Y7920D01*
X328020Y7859D01*
X345276D01*
X345276Y7859D01*
X345583Y7920D01*
X345843Y8094D01*
X346631Y8881D01*
X346805Y9142D01*
X346866Y9449D01*
X346866Y59055D01*
X346805Y59362D01*
X346631Y59623D01*
X346631Y59623D01*
X343087Y63166D01*
X342827Y63340D01*
X342520Y63401D01*
D02*
G37*
%LPD*%
G36*
X323111Y284332D02*
X323520D01*
X324897Y282956D01*
X324632Y282315D01*
X324517Y281444D01*
X322272Y277516D01*
X321608Y277006D01*
X321009Y276225D01*
X320915Y275998D01*
X319636D01*
X319543Y276225D01*
X318943Y277006D01*
X318162Y277606D01*
X317252Y277982D01*
X316276Y278111D01*
X315971Y278071D01*
X315332Y279178D01*
X315543Y279452D01*
X315919Y280362D01*
X316048Y281339D01*
X315919Y282315D01*
X315543Y283225D01*
X316150Y284373D01*
X322803D01*
X323111Y284332D01*
D02*
G37*
G36*
X331496Y246457D02*
Y224016D01*
X306299D01*
X305118Y225197D01*
Y247244D01*
X307087Y249213D01*
X328740D01*
X331496Y246457D01*
D02*
G37*
G36*
X330573Y202664D02*
X331087Y202492D01*
Y198364D01*
X328801Y196078D01*
X324838D01*
Y197047D01*
X324700Y197739D01*
X324397Y198192D01*
X324357Y198616D01*
X324517Y199584D01*
X324803Y199768D01*
X325003Y199768D01*
X326378D01*
X327069Y199906D01*
X327655Y200297D01*
X329624Y202266D01*
X329906Y202688D01*
X330573Y202664D01*
D02*
G37*
G36*
X342520Y246063D02*
X353543Y235039D01*
Y166929D01*
X346063Y159449D01*
X250000Y159449D01*
Y187008D01*
X317323Y187008D01*
X320079Y189764D01*
X320079Y195276D01*
X329134D01*
X331890Y198031D01*
Y223332D01*
X332064Y223448D01*
X332238Y223709D01*
X332299Y224016D01*
Y246063D01*
X342520Y246063D01*
D02*
G37*
G36*
X234252Y169291D02*
X234252Y144833D01*
X233944Y144705D01*
X233327Y144232D01*
X232854Y143615D01*
X232556Y142897D01*
X232455Y142126D01*
X232556Y141355D01*
X232854Y140637D01*
X233327Y140020D01*
X233944Y139547D01*
X234658Y139251D01*
X241907Y132002D01*
Y98729D01*
X241611Y98015D01*
X241510Y97244D01*
X241611Y96473D01*
X241909Y95755D01*
X242382Y95138D01*
X242913Y94731D01*
X242913Y91137D01*
X240590Y88814D01*
X209410D01*
X206925Y91299D01*
Y183071D01*
X220472D01*
X234252Y169291D01*
D02*
G37*
G36*
X303150Y39370D02*
X204724Y39370D01*
X204724Y83071D01*
X206836Y85183D01*
X206836D01*
X207371Y84772D01*
X207811Y84590D01*
X207993Y84515D01*
X208661Y84427D01*
X241339D01*
X242007Y84515D01*
X242265Y84622D01*
X242629Y84772D01*
X243164Y85183D01*
X246445Y88464D01*
X246732Y88583D01*
X303150D01*
X303150Y39370D01*
D02*
G37*
%LPC*%
G36*
X214567Y57916D02*
X212869Y57749D01*
X211236Y57253D01*
X209732Y56449D01*
X208413Y55367D01*
X207330Y54048D01*
X206526Y52543D01*
X206031Y50911D01*
X205864Y49213D01*
X206031Y47515D01*
X206526Y45882D01*
X207330Y44377D01*
X208413Y43058D01*
X209732Y41976D01*
X211236Y41172D01*
X212869Y40677D01*
X214567Y40509D01*
X216265Y40677D01*
X217898Y41172D01*
X219402Y41976D01*
X220721Y43058D01*
X221803Y44377D01*
X222608Y45882D01*
X223103Y47515D01*
X223270Y49213D01*
X223103Y50911D01*
X222608Y52543D01*
X221803Y54048D01*
X220721Y55367D01*
X219402Y56449D01*
X217898Y57253D01*
X216265Y57749D01*
X214567Y57916D01*
D02*
G37*
%LPD*%
G36*
X216108Y56958D02*
X217589Y56508D01*
X218954Y55778D01*
X220151Y54796D01*
X221133Y53600D01*
X221862Y52235D01*
X222312Y50753D01*
X222463Y49213D01*
X222312Y47672D01*
X221862Y46191D01*
X221133Y44826D01*
X220151Y43629D01*
X218954Y42647D01*
X217589Y41917D01*
X216108Y41468D01*
X214567Y41316D01*
X213026Y41468D01*
X211545Y41917D01*
X210180Y42647D01*
X208983Y43629D01*
X208001Y44826D01*
X207271Y46191D01*
X206822Y47672D01*
X206670Y49213D01*
X206822Y50753D01*
X207271Y52235D01*
X208001Y53600D01*
X208983Y54796D01*
X210180Y55778D01*
X211545Y56508D01*
X213026Y56958D01*
X214567Y57109D01*
X216108Y56958D01*
D02*
G37*
G36*
X339370Y99213D02*
X339370Y84252D01*
X325590Y70472D01*
X325590Y59055D01*
X324835Y58300D01*
X324803Y58306D01*
X324803D01*
X309055Y58306D01*
X309023Y58300D01*
X308268Y59055D01*
Y95276D01*
X310630Y97638D01*
X316535D01*
X324409Y105512D01*
X333071Y105512D01*
X339370Y99213D01*
D02*
G37*
G36*
X325590Y55512D02*
X325591Y33465D01*
X324803Y32677D01*
X309055D01*
X308268Y33465D01*
X308268Y55512D01*
X309055Y56299D01*
X324803Y56299D01*
X325590Y55512D01*
D02*
G37*
G36*
X320866Y25197D02*
X320866Y9449D01*
X320079Y8661D01*
X297244Y8661D01*
X295669Y10236D01*
X295669Y24409D01*
X297244Y25984D01*
X320079Y25984D01*
X320866Y25197D01*
D02*
G37*
G36*
X346063Y59055D02*
X346063Y9449D01*
X345276Y8661D01*
X328020D01*
X327165Y9516D01*
X327165Y25197D01*
X334646Y32677D01*
X334646Y61417D01*
X335827Y62598D01*
X342520Y62598D01*
X346063Y59055D01*
D02*
G37*
%LPC*%
G36*
X154425Y298561D02*
X153016Y298422D01*
X151661Y298011D01*
X150413Y297344D01*
X149318Y296445D01*
X148420Y295351D01*
X147753Y294102D01*
X147342Y292748D01*
X147203Y291339D01*
X147342Y289930D01*
X147753Y288575D01*
X148420Y287326D01*
X149318Y286232D01*
X150413Y285334D01*
X151661Y284666D01*
X153016Y284255D01*
X154425Y284116D01*
X155834Y284255D01*
X157189Y284666D01*
X158438Y285334D01*
X159532Y286232D01*
X160430Y287326D01*
X161098Y288575D01*
X161509Y289930D01*
X161647Y291339D01*
X161509Y292748D01*
X161098Y294102D01*
X160430Y295351D01*
X159532Y296445D01*
X158438Y297344D01*
X157189Y298011D01*
X155834Y298422D01*
X154425Y298561D01*
D02*
G37*
G36*
X42425D02*
X41016Y298422D01*
X39661Y298011D01*
X38413Y297344D01*
X37318Y296445D01*
X36420Y295351D01*
X35753Y294102D01*
X35342Y292748D01*
X35203Y291339D01*
X35342Y289930D01*
X35753Y288575D01*
X36420Y287326D01*
X37318Y286232D01*
X38413Y285334D01*
X39661Y284666D01*
X41016Y284255D01*
X42425Y284116D01*
X43834Y284255D01*
X45189Y284666D01*
X46438Y285334D01*
X47532Y286232D01*
X48430Y287326D01*
X49098Y288575D01*
X49509Y289930D01*
X49647Y291339D01*
X49509Y292748D01*
X49098Y294102D01*
X48430Y295351D01*
X47532Y296445D01*
X46438Y297344D01*
X45189Y298011D01*
X43834Y298422D01*
X42425Y298561D01*
D02*
G37*
G36*
X126221Y291004D02*
X72527D01*
X71669Y290891D01*
X70869Y290560D01*
X70183Y290033D01*
X67254Y287104D01*
X66727Y286418D01*
X66396Y285618D01*
X66283Y284760D01*
Y283387D01*
X66158Y283225D01*
X65781Y282315D01*
X65653Y281339D01*
X65654Y281326D01*
X63450Y277537D01*
X62758Y277006D01*
X62158Y276225D01*
X62064Y275998D01*
X60786D01*
X60692Y276225D01*
X60093Y277006D01*
X59311Y277606D01*
X58402Y277982D01*
X57425Y278111D01*
X57121Y278071D01*
X56482Y279178D01*
X56692Y279452D01*
X57069Y280362D01*
X57198Y281339D01*
X57069Y282315D01*
X56692Y283225D01*
X56093Y284006D01*
X55311Y284606D01*
X54402Y284982D01*
X53425Y285111D01*
X52449Y284982D01*
X51539Y284606D01*
X50758Y284006D01*
X50158Y283225D01*
X49781Y282315D01*
X49653Y281339D01*
X49781Y280362D01*
X50158Y279452D01*
X50758Y278671D01*
X51539Y278072D01*
X51759Y277981D01*
X51881Y276812D01*
X50123Y275055D01*
X49862Y274664D01*
X49771Y274203D01*
X49771Y274203D01*
Y271079D01*
X49771Y271079D01*
X49862Y270618D01*
X50123Y270227D01*
X50123Y270227D01*
X55060Y265290D01*
X55451Y265029D01*
X55912Y264937D01*
X55912Y264937D01*
X63858D01*
X65080Y263715D01*
X65470Y263454D01*
X65931Y263363D01*
X65931Y263363D01*
X74016D01*
X74016Y263363D01*
X74477Y263454D01*
X74867Y263715D01*
X76277Y265125D01*
X86795D01*
X86795Y265125D01*
X87256Y265217D01*
X87647Y265478D01*
X93593Y271424D01*
X99787D01*
X99787Y271424D01*
X100248Y271516D01*
X100639Y271777D01*
X100832Y271970D01*
X100852Y271983D01*
X103078Y274210D01*
X103630Y273842D01*
X104475Y273674D01*
X105320Y273842D01*
X106097Y274297D01*
X107029Y273944D01*
X107874Y273777D01*
X108719Y273944D01*
X109435Y274423D01*
X109914Y275139D01*
X110082Y275984D01*
X109914Y276829D01*
X109435Y277545D01*
X108719Y278024D01*
X107874Y278192D01*
X107453Y278108D01*
X106457Y279104D01*
X106457Y279104D01*
X106066Y279366D01*
X105605Y279457D01*
X103450D01*
X102989Y279366D01*
X102598Y279104D01*
X102598Y279104D01*
X101707Y278213D01*
X100826Y278349D01*
X100370Y278546D01*
X99986Y279120D01*
X99270Y279599D01*
X98425Y279767D01*
X97580Y279599D01*
X96864Y279120D01*
X96386Y278404D01*
X96244Y277691D01*
X91339D01*
X90836Y277591D01*
X90410Y277306D01*
X84496Y271391D01*
X78229D01*
X76832Y272789D01*
X77069Y273362D01*
X77198Y274339D01*
X77069Y275315D01*
X76692Y276225D01*
X76093Y277006D01*
X75311Y277606D01*
X74402Y277982D01*
X73425Y278111D01*
X73121Y278071D01*
X72482Y279178D01*
X72692Y279452D01*
X73069Y280362D01*
X73198Y281339D01*
X73069Y282315D01*
X72914Y282689D01*
Y283386D01*
X73901Y284373D01*
X111550D01*
X112158Y283225D01*
X111781Y282315D01*
X111653Y281339D01*
X111781Y280362D01*
X112158Y279452D01*
X112758Y278671D01*
X113539Y278072D01*
X114449Y277695D01*
X115425Y277566D01*
X115729Y277606D01*
X116369Y276499D01*
X116158Y276225D01*
X115781Y275315D01*
X115653Y274339D01*
X115781Y273362D01*
X116158Y272452D01*
X116758Y271671D01*
X117539Y271072D01*
X118449Y270695D01*
X119425Y270566D01*
X120402Y270695D01*
X121311Y271072D01*
X122093Y271671D01*
X122187Y271794D01*
X123669Y271947D01*
X123709Y271926D01*
X124109Y271516D01*
Y250015D01*
X114733D01*
Y253551D01*
X115069Y254362D01*
X115198Y255339D01*
X115069Y256315D01*
X114692Y257225D01*
X114093Y258006D01*
X113311Y258606D01*
X112402Y258982D01*
X111425Y259111D01*
X110449Y258982D01*
X109539Y258606D01*
X108758Y258006D01*
X108158Y257225D01*
X107781Y256315D01*
X107653Y255339D01*
X107781Y254362D01*
X108102Y253589D01*
Y248213D01*
X107700Y247812D01*
X107526Y247551D01*
X107465Y247244D01*
Y225197D01*
X107465Y225197D01*
X107526Y224890D01*
X107700Y224629D01*
X107700Y224629D01*
X108881Y223448D01*
X109142Y223274D01*
X109184Y223266D01*
X109463Y222848D01*
X110179Y222369D01*
X111024Y222201D01*
X111869Y222369D01*
X112585Y222848D01*
X112829Y223213D01*
X117323D01*
Y223031D01*
X134237D01*
Y219488D01*
X117323D01*
Y207677D01*
X117908D01*
X118788Y206496D01*
X118772Y206412D01*
X118855Y205991D01*
X118282Y205418D01*
X118021Y205027D01*
X118004Y204939D01*
X117627Y204864D01*
X117302Y204647D01*
X117085Y204322D01*
X117008Y203939D01*
Y203148D01*
X116706Y202779D01*
X86504D01*
X86504Y202779D01*
X86043Y202687D01*
X85652Y202426D01*
X82794Y199568D01*
X81498Y199608D01*
X80775Y200091D01*
X79922Y200261D01*
X79068Y200091D01*
X78345Y199608D01*
X77861Y198884D01*
X77692Y198031D01*
X77861Y197178D01*
X78345Y196454D01*
X79068Y195971D01*
X79922Y195801D01*
X80775Y195971D01*
X81498Y196454D01*
X81747Y196827D01*
X82960D01*
X82960Y196827D01*
X83421Y196918D01*
X83812Y197180D01*
X87003Y200371D01*
X111842D01*
X112507Y199303D01*
X112511Y199189D01*
X112359Y198425D01*
X112527Y197580D01*
X113006Y196864D01*
X113722Y196386D01*
X114567Y196217D01*
X115412Y196386D01*
X116128Y196864D01*
X116607Y197580D01*
X116625Y197675D01*
X116741Y197745D01*
X117917Y198228D01*
X118010Y198209D01*
X120258D01*
X120641Y198285D01*
X120966Y198502D01*
X121183Y198827D01*
X121259Y199211D01*
Y200002D01*
X121183Y200385D01*
X121046Y200591D01*
X121183Y200796D01*
X121259Y201179D01*
Y201971D01*
X121183Y202354D01*
X121046Y202559D01*
X121183Y202764D01*
X121259Y203148D01*
Y203939D01*
X121198Y204247D01*
X121824Y204372D01*
X122540Y204851D01*
X123019Y205567D01*
X123187Y206412D01*
X123170Y206496D01*
X124050Y207677D01*
X129690D01*
Y204292D01*
X128779Y203381D01*
X127953D01*
X127261Y203244D01*
X126675Y202852D01*
X126566Y202830D01*
X126468Y202896D01*
X126085Y202972D01*
X123837D01*
X123453Y202896D01*
X123128Y202679D01*
X122911Y202354D01*
X122835Y201971D01*
Y201179D01*
X122911Y200796D01*
X123048Y200591D01*
X122911Y200385D01*
X122835Y200002D01*
Y199211D01*
X122911Y198827D01*
X123128Y198502D01*
X123453Y198285D01*
X123765Y198223D01*
X123848Y197807D01*
X124109Y197416D01*
X124266Y197259D01*
X124087Y196078D01*
X123228Y196078D01*
X123228Y196078D01*
X122921Y196017D01*
X122661Y195843D01*
X122487Y195583D01*
X122425Y195276D01*
X122425Y195276D01*
X122425Y195230D01*
X122425Y190096D01*
X120140Y187811D01*
X73273Y187811D01*
Y201996D01*
X73135Y202688D01*
X72744Y203274D01*
X72240Y203778D01*
X72119Y204388D01*
X71640Y205104D01*
X70924Y205583D01*
X70079Y205751D01*
X69234Y205583D01*
X68518Y205104D01*
X68039Y204388D01*
X67871Y203543D01*
X68039Y202698D01*
X68518Y201982D01*
X69234Y201504D01*
X69447Y201461D01*
X69660Y201248D01*
Y187811D01*
X54203D01*
X50257Y191757D01*
X49831Y192042D01*
X49328Y192142D01*
X32943D01*
X25338Y199747D01*
X24912Y200031D01*
X24410Y200131D01*
X16688D01*
X16522Y200380D01*
X15806Y200858D01*
X14961Y201026D01*
X14116Y200858D01*
X14011Y200788D01*
X12830Y201419D01*
Y210285D01*
X26474Y223930D01*
X26866Y224516D01*
X27003Y225207D01*
Y226365D01*
X27237Y226714D01*
X27405Y227559D01*
X27237Y228404D01*
X26758Y229120D01*
X26042Y229599D01*
X25197Y229767D01*
X24352Y229599D01*
X23636Y229120D01*
X23157Y228404D01*
X22989Y227559D01*
X23157Y226714D01*
X23391Y226365D01*
Y225955D01*
X21546Y224110D01*
X20132Y224366D01*
X20010Y224548D01*
X19294Y225027D01*
X18449Y225195D01*
X17604Y225027D01*
X16888Y224548D01*
X16409Y223832D01*
X16276Y223161D01*
X6990Y213876D01*
X6599Y213290D01*
X6461Y212598D01*
Y90551D01*
X6599Y89860D01*
X6990Y89274D01*
X9252Y87012D01*
X9384Y86562D01*
X9418Y85750D01*
X7306Y83639D01*
X7132Y83378D01*
X7071Y83071D01*
X7071Y39416D01*
X7071Y39370D01*
X7071Y39370D01*
X7132Y39063D01*
X7306Y38802D01*
X7567Y38628D01*
X7874Y38567D01*
X7874Y38567D01*
X7920Y38567D01*
X106299Y38567D01*
X106606Y38628D01*
X106867Y38802D01*
X107041Y39063D01*
X107102Y39370D01*
X107102Y88537D01*
X107102Y88583D01*
X107102Y88583D01*
X107041Y88890D01*
X106867Y89150D01*
X106606Y89324D01*
X106299Y89385D01*
X106299Y89386D01*
X106254Y89385D01*
X51539D01*
X50874Y90469D01*
X50873Y90567D01*
X51027Y91339D01*
X50859Y92184D01*
X50380Y92900D01*
X49664Y93378D01*
X48819Y93546D01*
X48750Y93533D01*
X47497Y94338D01*
X47419Y94739D01*
X47625Y95020D01*
X47970Y95102D01*
X48483Y95204D01*
X49199Y95683D01*
X49678Y96399D01*
X49846Y97244D01*
X49678Y98089D01*
X49444Y98438D01*
Y133071D01*
X49307Y133762D01*
X48915Y134348D01*
X40704Y142559D01*
X40622Y142971D01*
X40144Y143687D01*
X39428Y144166D01*
X39194Y144212D01*
X38560Y144401D01*
X38204Y145463D01*
X38204Y169291D01*
X38143Y169599D01*
X37969Y169859D01*
X37969Y169859D01*
X24190Y183639D01*
X23929Y183813D01*
X23622Y183874D01*
X12830D01*
Y196218D01*
X14011Y196849D01*
X14116Y196779D01*
X14961Y196611D01*
X15806Y196779D01*
X16522Y197257D01*
X16688Y197506D01*
X23866D01*
X31471Y189901D01*
X31897Y189616D01*
X32399Y189516D01*
X48785D01*
X52347Y185954D01*
Y159449D01*
X52408Y159142D01*
X52582Y158881D01*
X52842Y158707D01*
X53150Y158646D01*
X149213Y158646D01*
X149520Y158707D01*
X149780Y158881D01*
X157261Y166361D01*
X157435Y166622D01*
X157496Y166929D01*
Y235039D01*
X157496Y235039D01*
X157435Y235347D01*
X157261Y235607D01*
X155984Y236884D01*
X162670Y243569D01*
X175984D01*
X176487Y243669D01*
X176912Y243954D01*
X182424Y249465D01*
X182709Y249891D01*
X182809Y250394D01*
Y255315D01*
X184449D01*
Y260827D01*
X178543D01*
Y255315D01*
X180183D01*
Y250937D01*
X175441Y246195D01*
X162126D01*
X161624Y246095D01*
X161198Y245810D01*
X154128Y238740D01*
X146237Y246631D01*
X145976Y246805D01*
X145669Y246866D01*
X135449Y246866D01*
X135335Y246843D01*
X135213Y247024D01*
X132457Y249780D01*
X132197Y249954D01*
X131890Y250015D01*
X130741D01*
Y272570D01*
X130786Y272679D01*
X132064D01*
X132158Y272452D01*
X132758Y271671D01*
X133539Y271072D01*
X134449Y270695D01*
X135425Y270566D01*
X136402Y270695D01*
X137311Y271072D01*
X138093Y271671D01*
X138692Y272452D01*
X139069Y273362D01*
X139198Y274339D01*
X139069Y275315D01*
X138692Y276225D01*
X138093Y277006D01*
X137311Y277606D01*
X136402Y277982D01*
X135425Y278111D01*
X135121Y278071D01*
X134482Y279178D01*
X134692Y279452D01*
X135069Y280362D01*
X135198Y281339D01*
X135069Y282315D01*
X134692Y283225D01*
X134179Y283893D01*
X134288Y284719D01*
X134175Y285577D01*
X133844Y286377D01*
X133317Y287064D01*
X130388Y289993D01*
X129701Y290520D01*
X128902Y290851D01*
X128043Y290964D01*
X126529D01*
X126221Y291004D01*
D02*
G37*
G36*
X193701Y268504D02*
X187402D01*
Y265968D01*
X184449D01*
Y267520D01*
X178543D01*
Y262008D01*
X184449D01*
Y263560D01*
X187402D01*
Y262598D01*
X193701D01*
Y268504D01*
D02*
G37*
G36*
X102425Y259111D02*
X101449Y258982D01*
X100539Y258606D01*
X99758Y258006D01*
X99158Y257225D01*
X98781Y256315D01*
X98653Y255339D01*
X98781Y254362D01*
X99018Y253790D01*
X97527Y252299D01*
X76850D01*
X72959Y256190D01*
X72959Y256190D01*
X72568Y256451D01*
X72107Y256543D01*
X72107Y256543D01*
X52975D01*
X52692Y257225D01*
X52093Y258006D01*
X51311Y258606D01*
X50402Y258982D01*
X49425Y259111D01*
X48449Y258982D01*
X47539Y258606D01*
X46758Y258006D01*
X46158Y257225D01*
X45781Y256315D01*
X45653Y255339D01*
X45781Y254362D01*
X46158Y253452D01*
X46758Y252671D01*
X47539Y252072D01*
X48449Y251695D01*
X49425Y251566D01*
X50402Y251695D01*
X51311Y252072D01*
X52093Y252671D01*
X52692Y253452D01*
X52975Y254134D01*
X71608D01*
X75499Y250243D01*
X75890Y249982D01*
X76351Y249891D01*
X76351Y249891D01*
X98026D01*
X98026Y249891D01*
X98487Y249982D01*
X98877Y250243D01*
X100657Y252023D01*
X101449Y251695D01*
X102425Y251566D01*
X103402Y251695D01*
X104311Y252072D01*
X105093Y252671D01*
X105692Y253452D01*
X106069Y254362D01*
X106198Y255339D01*
X106069Y256315D01*
X105692Y257225D01*
X105093Y258006D01*
X104311Y258606D01*
X103402Y258982D01*
X102425Y259111D01*
D02*
G37*
G36*
X40425D02*
X39449Y258982D01*
X38539Y258606D01*
X37758Y258006D01*
X37158Y257225D01*
X36781Y256315D01*
X36653Y255339D01*
X36781Y254362D01*
X37158Y253452D01*
X37758Y252671D01*
X38539Y252072D01*
X39449Y251695D01*
X40425Y251566D01*
X41402Y251695D01*
X42311Y252072D01*
X43093Y252671D01*
X43692Y253452D01*
X44069Y254362D01*
X44198Y255339D01*
X44069Y256315D01*
X43692Y257225D01*
X43093Y258006D01*
X42311Y258606D01*
X41402Y258982D01*
X40425Y259111D01*
D02*
G37*
G36*
X178347Y239009D02*
X177034Y238879D01*
X175773Y238497D01*
X174610Y237875D01*
X173591Y237039D01*
X172755Y236020D01*
X172133Y234857D01*
X171750Y233595D01*
X171621Y232283D01*
X171750Y230971D01*
X172133Y229710D01*
X172755Y228547D01*
X173591Y227528D01*
X174610Y226692D01*
X175773Y226070D01*
X177034Y225687D01*
X178347Y225558D01*
X179658Y225687D01*
X180920Y226070D01*
X182083Y226692D01*
X183102Y227528D01*
X183938Y228547D01*
X184560Y229710D01*
X184942Y230971D01*
X185072Y232283D01*
X184942Y233595D01*
X184560Y234857D01*
X183938Y236020D01*
X183102Y237039D01*
X182083Y237875D01*
X180920Y238497D01*
X179658Y238879D01*
X178347Y239009D01*
D02*
G37*
G36*
X51968Y226963D02*
X51115Y226793D01*
X50392Y226310D01*
X49908Y225586D01*
X49739Y224733D01*
X49908Y223880D01*
X50162Y223500D01*
Y217312D01*
X50139Y217289D01*
X49972Y217255D01*
X49249Y216772D01*
X48765Y216049D01*
X48595Y215195D01*
X48765Y214342D01*
X49249Y213619D01*
X49972Y213135D01*
X50825Y212965D01*
X51679Y213135D01*
X52402Y213619D01*
X52886Y214342D01*
X53030Y215071D01*
X53246Y215286D01*
X53637Y215872D01*
X53775Y216563D01*
Y223500D01*
X54029Y223880D01*
X54198Y224733D01*
X54029Y225586D01*
X53545Y226310D01*
X52822Y226793D01*
X51968Y226963D01*
D02*
G37*
G36*
X28740Y219137D02*
X27895Y218969D01*
X27179Y218490D01*
X26700Y217774D01*
X26532Y216929D01*
X26700Y216084D01*
X27179Y215368D01*
X27895Y214889D01*
X28740Y214721D01*
X29161Y214805D01*
X38912Y205054D01*
X39303Y204793D01*
X39764Y204701D01*
X39764Y204701D01*
X47882D01*
X48186Y204331D01*
X48354Y203486D01*
X48833Y202770D01*
X49549Y202291D01*
X50394Y202123D01*
X51239Y202291D01*
X51955Y202770D01*
X52433Y203486D01*
X52601Y204331D01*
X52433Y205176D01*
X51955Y205892D01*
X51239Y206370D01*
X50394Y206539D01*
X49973Y206455D01*
X49670Y206757D01*
X49670Y206757D01*
X49280Y207018D01*
X48819Y207110D01*
X40263D01*
X30864Y216508D01*
X30948Y216929D01*
X30780Y217774D01*
X30301Y218490D01*
X29585Y218969D01*
X28740Y219137D01*
D02*
G37*
G36*
X178347Y207513D02*
X177034Y207383D01*
X175773Y207001D01*
X174610Y206379D01*
X173591Y205543D01*
X172755Y204524D01*
X172133Y203361D01*
X171750Y202099D01*
X171621Y200787D01*
X171750Y199475D01*
X172133Y198214D01*
X172755Y197051D01*
X173591Y196032D01*
X174610Y195195D01*
X175773Y194574D01*
X177034Y194191D01*
X178347Y194062D01*
X179658Y194191D01*
X180920Y194574D01*
X182083Y195195D01*
X183102Y196032D01*
X183938Y197051D01*
X184560Y198214D01*
X184942Y199475D01*
X185072Y200787D01*
X184942Y202099D01*
X184560Y203361D01*
X183938Y204524D01*
X183102Y205543D01*
X182083Y206379D01*
X180920Y207001D01*
X179658Y207383D01*
X178347Y207513D01*
D02*
G37*
G36*
Y176017D02*
X177034Y175887D01*
X175773Y175505D01*
X174610Y174883D01*
X173591Y174047D01*
X172755Y173028D01*
X172133Y171865D01*
X171750Y170603D01*
X171621Y169291D01*
X171750Y167979D01*
X172133Y166718D01*
X172755Y165555D01*
X173591Y164536D01*
X174610Y163699D01*
X175773Y163078D01*
X177034Y162695D01*
X178347Y162566D01*
X179658Y162695D01*
X180920Y163078D01*
X182083Y163699D01*
X183102Y164536D01*
X183938Y165555D01*
X184560Y166718D01*
X184942Y167979D01*
X185072Y169291D01*
X184942Y170603D01*
X184560Y171865D01*
X183938Y173028D01*
X183102Y174047D01*
X182083Y174883D01*
X180920Y175505D01*
X179658Y175887D01*
X178347Y176017D01*
D02*
G37*
G36*
X136221Y106315D02*
X127559Y106315D01*
X127252Y106254D01*
X126991Y106079D01*
X119352Y98441D01*
X113780D01*
X113472Y98379D01*
X113212Y98206D01*
X110850Y95843D01*
X110676Y95583D01*
X110615Y95276D01*
Y59055D01*
X110676Y58748D01*
X110850Y58487D01*
X110850Y58487D01*
X111302Y58035D01*
X111520Y57275D01*
X111456Y56933D01*
X111301Y56530D01*
X110850Y56080D01*
X110850Y56080D01*
X110676Y55819D01*
X110615Y55512D01*
X110615Y33465D01*
X110615Y33465D01*
X110676Y33157D01*
X110850Y32897D01*
X110850Y32897D01*
X111637Y32109D01*
X111637Y32109D01*
X111898Y31935D01*
X112205Y31874D01*
X127953D01*
X128260Y31935D01*
X128521Y32109D01*
X128521Y32109D01*
X129308Y32897D01*
X129308Y32897D01*
X129482Y33157D01*
X129543Y33465D01*
X129543Y55512D01*
X129482Y55819D01*
X129308Y56080D01*
X128857Y56530D01*
X128755Y56795D01*
X128764Y57717D01*
X128856Y58035D01*
X129308Y58487D01*
X129308Y58487D01*
X129482Y58748D01*
X129543Y59055D01*
X129543Y70140D01*
X143087Y83684D01*
X143261Y83945D01*
X143323Y84252D01*
X143323Y99213D01*
X143261Y99520D01*
X143087Y99780D01*
X143087Y99780D01*
X136788Y106079D01*
X136528Y106254D01*
X136221Y106315D01*
D02*
G37*
G36*
X84646Y30347D02*
X83669Y30219D01*
X82759Y29842D01*
X81978Y29242D01*
X81379Y28461D01*
X81002Y27551D01*
X80873Y26575D01*
X81002Y25598D01*
X81379Y24689D01*
X81978Y23907D01*
X82759Y23308D01*
X83669Y22931D01*
X84646Y22802D01*
X85622Y22931D01*
X86532Y23308D01*
X87313Y23907D01*
X87913Y24689D01*
X88290Y25598D01*
X88418Y26575D01*
X88290Y27551D01*
X87913Y28461D01*
X87313Y29242D01*
X86532Y29842D01*
X85622Y30219D01*
X84646Y30347D01*
D02*
G37*
G36*
X49213D02*
X48236Y30219D01*
X47326Y29842D01*
X46545Y29242D01*
X45946Y28461D01*
X45569Y27551D01*
X45440Y26575D01*
X45569Y25598D01*
X45946Y24689D01*
X46545Y23907D01*
X47326Y23308D01*
X48236Y22931D01*
X49213Y22802D01*
X50189Y22931D01*
X51099Y23308D01*
X51880Y23907D01*
X52480Y24689D01*
X52856Y25598D01*
X52985Y26575D01*
X52856Y27551D01*
X52480Y28461D01*
X51880Y29242D01*
X51099Y29842D01*
X50189Y30219D01*
X49213Y30347D01*
D02*
G37*
G36*
X123228Y26787D02*
X100394Y26787D01*
X100086Y26726D01*
X99826Y26552D01*
X98251Y24977D01*
X98077Y24717D01*
X98016Y24409D01*
X98016Y10236D01*
X98077Y9929D01*
X98251Y9669D01*
X99826Y8094D01*
X100086Y7920D01*
X100394Y7859D01*
X123228Y7859D01*
X123536Y7920D01*
X123796Y8094D01*
X124583Y8881D01*
X124583Y8881D01*
X124758Y9142D01*
X124819Y9449D01*
X124819Y25197D01*
X124757Y25504D01*
X124583Y25765D01*
X124583Y25765D01*
X123796Y26552D01*
X123796Y26552D01*
X123536Y26726D01*
X123228Y26787D01*
D02*
G37*
G36*
X145669Y63401D02*
X138976Y63401D01*
X138669Y63340D01*
X138409Y63166D01*
X137228Y61985D01*
X137054Y61725D01*
X136993Y61417D01*
X136993Y33010D01*
X129747Y25765D01*
X129573Y25504D01*
X129512Y25197D01*
X129512Y9516D01*
X129573Y9209D01*
X129747Y8949D01*
X130602Y8094D01*
X130863Y7920D01*
X131170Y7859D01*
X148425D01*
X148425Y7859D01*
X148732Y7920D01*
X148993Y8094D01*
X149780Y8881D01*
X149954Y9142D01*
X150015Y9449D01*
X150015Y59055D01*
X149954Y59362D01*
X149780Y59623D01*
X149780Y59623D01*
X146237Y63166D01*
X145976Y63340D01*
X145669Y63401D01*
D02*
G37*
%LPD*%
G36*
X126261Y284332D02*
X126670D01*
X128047Y282956D01*
X127781Y282315D01*
X127667Y281444D01*
X125422Y277516D01*
X124758Y277006D01*
X124158Y276225D01*
X124064Y275998D01*
X122786D01*
X122692Y276225D01*
X122093Y277006D01*
X121311Y277606D01*
X120402Y277982D01*
X119425Y278111D01*
X119121Y278071D01*
X118482Y279178D01*
X118692Y279452D01*
X119069Y280362D01*
X119198Y281339D01*
X119069Y282315D01*
X118692Y283225D01*
X119300Y284373D01*
X125953D01*
X126261Y284332D01*
D02*
G37*
G36*
X134646Y246457D02*
Y224016D01*
X109449D01*
X108268Y225197D01*
Y247244D01*
X110236Y249213D01*
X131890D01*
X134646Y246457D01*
D02*
G37*
G36*
X133723Y202664D02*
X134237Y202492D01*
Y198364D01*
X131951Y196078D01*
X127988D01*
Y197047D01*
X127850Y197739D01*
X127547Y198192D01*
X127507Y198616D01*
X127667Y199584D01*
X127953Y199768D01*
X128152Y199768D01*
X129527D01*
X130219Y199906D01*
X130805Y200297D01*
X132773Y202266D01*
X133055Y202688D01*
X133723Y202664D01*
D02*
G37*
G36*
X145669Y246063D02*
X156693Y235039D01*
Y166929D01*
X149213Y159449D01*
X53150Y159449D01*
Y187008D01*
X120473Y187008D01*
X123228Y189764D01*
X123228Y195276D01*
X132283D01*
X135039Y198031D01*
Y223332D01*
X135213Y223448D01*
X135387Y223709D01*
X135449Y224016D01*
Y246063D01*
X145669Y246063D01*
D02*
G37*
G36*
X37402Y169291D02*
X37402Y144833D01*
X37094Y144705D01*
X36477Y144232D01*
X36004Y143615D01*
X35706Y142897D01*
X35605Y142126D01*
X35706Y141355D01*
X36004Y140637D01*
X36477Y140020D01*
X37094Y139547D01*
X37807Y139251D01*
X45057Y132002D01*
Y98729D01*
X44761Y98015D01*
X44660Y97244D01*
X44761Y96473D01*
X45059Y95755D01*
X45532Y95138D01*
X46063Y94731D01*
X46063Y91137D01*
X43740Y88814D01*
X12559D01*
X10074Y91299D01*
Y183071D01*
X23622D01*
X37402Y169291D01*
D02*
G37*
G36*
X106299Y39370D02*
X7874Y39370D01*
X7874Y83071D01*
X9986Y85183D01*
X9986D01*
X10520Y84772D01*
X10961Y84590D01*
X11143Y84515D01*
X11811Y84427D01*
X44488D01*
X45156Y84515D01*
X45414Y84622D01*
X45779Y84772D01*
X46313Y85183D01*
X49594Y88464D01*
X49882Y88583D01*
X106299D01*
X106299Y39370D01*
D02*
G37*
%LPC*%
G36*
X17717Y57916D02*
X16019Y57749D01*
X14386Y57253D01*
X12881Y56449D01*
X11562Y55367D01*
X10480Y54048D01*
X9676Y52543D01*
X9181Y50911D01*
X9013Y49213D01*
X9181Y47515D01*
X9676Y45882D01*
X10480Y44377D01*
X11562Y43058D01*
X12881Y41976D01*
X14386Y41172D01*
X16019Y40677D01*
X17717Y40509D01*
X19414Y40677D01*
X21047Y41172D01*
X22552Y41976D01*
X23871Y43058D01*
X24953Y44377D01*
X25757Y45882D01*
X26253Y47515D01*
X26420Y49213D01*
X26253Y50911D01*
X25757Y52543D01*
X24953Y54048D01*
X23871Y55367D01*
X22552Y56449D01*
X21047Y57253D01*
X19414Y57749D01*
X17717Y57916D01*
D02*
G37*
%LPD*%
G36*
X19257Y56958D02*
X20739Y56508D01*
X22104Y55778D01*
X23300Y54796D01*
X24282Y53600D01*
X25012Y52235D01*
X25461Y50753D01*
X25613Y49213D01*
X25461Y47672D01*
X25012Y46191D01*
X24282Y44826D01*
X23300Y43629D01*
X22104Y42647D01*
X20739Y41917D01*
X19257Y41468D01*
X17717Y41316D01*
X16176Y41468D01*
X14695Y41917D01*
X13329Y42647D01*
X12133Y43629D01*
X11151Y44826D01*
X10421Y46191D01*
X9972Y47672D01*
X9820Y49213D01*
X9972Y50753D01*
X10421Y52235D01*
X11151Y53600D01*
X12133Y54796D01*
X13329Y55778D01*
X14695Y56508D01*
X16176Y56958D01*
X17717Y57109D01*
X19257Y56958D01*
D02*
G37*
G36*
X142520Y99213D02*
X142520Y84252D01*
X128740Y70472D01*
X128740Y59055D01*
X127985Y58300D01*
X127953Y58306D01*
X127953D01*
X112205Y58306D01*
X112173Y58300D01*
X111417Y59055D01*
Y95276D01*
X113780Y97638D01*
X119685D01*
X127559Y105512D01*
X136221Y105512D01*
X142520Y99213D01*
D02*
G37*
G36*
X128740Y55512D02*
X128740Y33465D01*
X127953Y32677D01*
X112205D01*
X111417Y33465D01*
X111417Y55512D01*
X112205Y56299D01*
X127953Y56299D01*
X128740Y55512D01*
D02*
G37*
G36*
X124016Y25197D02*
X124016Y9449D01*
X123228Y8661D01*
X100394Y8661D01*
X98819Y10236D01*
X98819Y24409D01*
X100394Y25984D01*
X123228Y25984D01*
X124016Y25197D01*
D02*
G37*
G36*
X149213Y59055D02*
X149213Y9449D01*
X148425Y8661D01*
X131170D01*
X130315Y9516D01*
X130315Y25197D01*
X137795Y32677D01*
X137795Y61417D01*
X138976Y62598D01*
X145669Y62598D01*
X149213Y59055D01*
D02*
G37*
D10*
X262809Y266929D02*
X262022Y267717D01*
X262809Y266828D02*
X263596Y266040D01*
X264384Y266828D01*
X265959Y266929D02*
X265171Y267717D01*
X264384Y266929D01*
X265959Y266828D02*
X266746Y266040D01*
X267533Y266828D01*
X269108Y266929D02*
X268321Y267717D01*
X267533Y266929D01*
X269108Y266828D02*
X269896Y266040D01*
X270683Y266828D01*
X271470Y267717D02*
X270683Y266929D01*
X247244Y204331D02*
X245669Y205906D01*
X236614D01*
X225590Y216929D01*
X279811Y198031D02*
X283354Y201575D01*
X279811Y198031D02*
X276772D01*
X315984Y201575D02*
X283354D01*
X321811Y198268D02*
Y199606D01*
X323031Y197047D02*
X321811Y198268D01*
X315984Y199606D02*
X312992D01*
X311811Y198425D02*
X311417D01*
X311811D02*
X312992Y199606D01*
X315984Y204566D02*
X317830Y206412D01*
X315984Y203543D02*
Y204566D01*
X270866Y264567D02*
X262782D01*
X261207Y266142D01*
X252762D01*
X247825Y271079D01*
X283646Y266329D02*
X272628D01*
X270866Y264567D02*
X272628Y266329D01*
X262022Y267717D02*
X260759D01*
X262809Y266828D02*
Y266929D01*
X264384Y266828D02*
Y266929D01*
X265959Y266828D02*
Y266929D01*
X267533Y266828D02*
Y266929D01*
X269108Y266828D02*
Y266929D01*
X270683Y266828D02*
Y266929D01*
X275014Y267717D02*
X271470D01*
X283071D02*
X275014D01*
X260759D02*
X253150D01*
X296850Y272835D02*
X299589Y275573D01*
X296850Y272835D02*
X296844D01*
X283646Y266329D02*
X289945Y272628D01*
X296638D02*
X289945D01*
X296638D02*
X296844Y272835D01*
X296063Y274016D02*
X300300Y278253D01*
X283071Y267717D02*
X289370Y274016D01*
X296063D02*
X289370D01*
X253150Y267717D02*
X249213Y271654D01*
X301017Y275573D02*
X301325Y275881D01*
X301017Y275573D02*
X299589D01*
X302456Y278253D02*
X300300D01*
X249213Y271654D02*
Y273628D01*
X254276Y274339D02*
X253995Y274619D01*
X250203D01*
X249213Y273628D02*
X250203Y274619D01*
X247825Y271079D02*
Y274203D01*
X250000Y276378D02*
Y281063D01*
X247825Y274203D02*
X250000Y276378D01*
X304724Y275984D02*
X302456Y278253D01*
X250000Y281063D02*
X250276Y281339D01*
X329528Y204979D02*
Y205512D01*
X386614Y264764D02*
X378346D01*
X386614D02*
X387402Y265551D01*
X268958Y255339D02*
X246276D01*
X273201Y251095D02*
X268958Y255339D01*
X294876Y251095D02*
X273201D01*
X294876D02*
X299120Y255339D01*
X299276D02*
X299120D01*
X328346Y203543D02*
Y203798D01*
X329528Y204979D01*
X324803Y201575D02*
X321811D01*
X65959Y266929D02*
X65171Y267717D01*
X65959Y266828D02*
X66746Y266040D01*
X67533Y266828D01*
X69108Y266929D02*
X68321Y267717D01*
X67533Y266929D01*
X69108Y266828D02*
X69896Y266040D01*
X70683Y266828D01*
X72258Y266929D02*
X71470Y267717D01*
X70683Y266929D01*
X72258Y266828D02*
X73045Y266040D01*
X73833Y266828D01*
X74620Y267717D02*
X73833Y266929D01*
X50394Y204331D02*
X48819Y205906D01*
X39764D01*
X28740Y216929D01*
X82960Y198031D02*
X86504Y201575D01*
X82960Y198031D02*
X79922D01*
X119134Y201575D02*
X86504D01*
X124961Y198268D02*
Y199606D01*
X126181Y197047D02*
X124961Y198268D01*
X119134Y199606D02*
X116142D01*
X114961Y198425D02*
X114567D01*
X114961D02*
X116142Y199606D01*
X119134Y204566D02*
X120979Y206412D01*
X119134Y203543D02*
Y204566D01*
X74016Y264567D02*
X65931D01*
X64356Y266142D01*
X55912D01*
X50975Y271079D01*
X86795Y266329D02*
X75778D01*
X74016Y264567D02*
X75778Y266329D01*
X65171Y267717D02*
X63908D01*
X65959Y266828D02*
Y266929D01*
X67533Y266828D02*
Y266929D01*
X69108Y266828D02*
Y266929D01*
X70683Y266828D02*
Y266929D01*
X72258Y266828D02*
Y266929D01*
X73833Y266828D02*
Y266929D01*
X78163Y267717D02*
X74620D01*
X86221D02*
X78163D01*
X63908D02*
X56299D01*
X100000Y272835D02*
X102739Y275573D01*
X100000Y272835D02*
X99994D01*
X86795Y266329D02*
X93094Y272628D01*
X99787D02*
X93094D01*
X99787D02*
X99994Y272835D01*
X99213Y274016D02*
X103450Y278253D01*
X86221Y267717D02*
X92520Y274016D01*
X99213D02*
X92520D01*
X56299Y267717D02*
X52362Y271654D01*
X104167Y275573D02*
X104475Y275881D01*
X104167Y275573D02*
X102739D01*
X105605Y278253D02*
X103450D01*
X52362Y271654D02*
Y273628D01*
X57425Y274339D02*
X57145Y274619D01*
X53352D01*
X52362Y273628D02*
X53352Y274619D01*
X50975Y271079D02*
Y274203D01*
X53150Y276378D02*
Y281063D01*
X50975Y274203D02*
X53150Y276378D01*
X107874Y275984D02*
X105605Y278253D01*
X53150Y281063D02*
X53425Y281339D01*
X132677Y204979D02*
Y205512D01*
X189764Y264764D02*
X181496D01*
X189764D02*
X190551Y265551D01*
X72107Y255339D02*
X49425D01*
X76351Y251095D02*
X72107Y255339D01*
X98026Y251095D02*
X76351D01*
X98026D02*
X102269Y255339D01*
X102425D02*
X102269D01*
X131496Y203543D02*
Y203798D01*
X132677Y204979D01*
X127953Y201575D02*
X124961D01*
D11*
X324409Y153150D02*
D03*
Y164173D02*
D03*
X311024Y153150D02*
D03*
Y164173D02*
D03*
X284252Y153150D02*
D03*
Y164173D02*
D03*
X297638Y153150D02*
D03*
Y164173D02*
D03*
X127559Y153150D02*
D03*
Y164173D02*
D03*
X114173Y153150D02*
D03*
Y164173D02*
D03*
X87402Y153150D02*
D03*
Y164173D02*
D03*
X100787Y153150D02*
D03*
Y164173D02*
D03*
D12*
X336221Y162402D02*
D03*
Y155709D02*
D03*
X313583Y94291D02*
D03*
Y100984D02*
D03*
X378346Y258071D02*
D03*
Y264764D02*
D03*
X272441Y162402D02*
D03*
Y155709D02*
D03*
X139370Y162402D02*
D03*
Y155709D02*
D03*
X116732Y94291D02*
D03*
Y100984D02*
D03*
X181496Y258071D02*
D03*
Y264764D02*
D03*
X75591Y162402D02*
D03*
Y155709D02*
D03*
D13*
X311476Y17323D02*
D03*
X336555D02*
D03*
X114626D02*
D03*
X139705D02*
D03*
D14*
X316929Y42185D02*
D03*
Y67264D02*
D03*
X120079Y42185D02*
D03*
Y67264D02*
D03*
D15*
X300984Y244488D02*
D03*
X308465D02*
D03*
X308465Y235827D02*
D03*
X300984D02*
D03*
X104134Y244488D02*
D03*
X111614D02*
D03*
X111614Y235827D02*
D03*
X104134D02*
D03*
D16*
X308071Y227953D02*
D03*
X301378D02*
D03*
X323031Y192520D02*
D03*
X316339D02*
D03*
X111221Y227953D02*
D03*
X104528D02*
D03*
X126181Y192520D02*
D03*
X119488D02*
D03*
D17*
X387402Y265551D02*
D03*
Y257283D02*
D03*
X190551Y265551D02*
D03*
Y257283D02*
D03*
D18*
X321811Y199606D02*
D03*
Y201575D02*
D03*
Y203543D02*
D03*
X315984D02*
D03*
Y201575D02*
D03*
Y199606D02*
D03*
X124961D02*
D03*
Y201575D02*
D03*
Y203543D02*
D03*
X119134D02*
D03*
Y201575D02*
D03*
Y199606D02*
D03*
D19*
X324705Y240945D02*
D03*
X335925D02*
D03*
X127854D02*
D03*
X139075D02*
D03*
D20*
X322835Y213583D02*
D03*
Y228937D02*
D03*
X125984Y213583D02*
D03*
Y228937D02*
D03*
D21*
X257283Y172047D02*
D03*
X213583D02*
D03*
X60433D02*
D03*
X16732D02*
D03*
D22*
X266929Y203384D02*
Y203543D01*
X268317Y201996D02*
X266929Y203384D01*
X268317Y185428D02*
Y201996D01*
X267323Y184434D02*
X268317Y185428D01*
X215300Y222780D02*
Y222987D01*
X241339Y87008D02*
X245669Y91339D01*
X241339Y87008D02*
X208661D01*
X205118Y90551D01*
Y212598D02*
X215300Y222780D01*
X205118Y90551D02*
Y212598D01*
X207874Y181653D02*
Y211033D01*
X222047Y225207D01*
Y227559D01*
X248819Y216563D02*
Y224733D01*
X247676Y215195D02*
Y215420D01*
X248819Y216563D01*
X323031Y192520D02*
Y197047D01*
X307874Y224409D02*
X307973Y224507D01*
Y227854D02*
X308071Y227953D01*
X307973Y224507D02*
Y227854D01*
X324213Y213583D02*
X322835D01*
X328346Y209449D02*
X324213Y213583D01*
X328346Y203543D02*
Y209449D01*
X244488Y97244D02*
Y133071D01*
X235433Y142126D01*
X326378Y201575D02*
X324803D01*
X326378D02*
X328346Y203543D01*
X70079Y203384D02*
Y203543D01*
X71466Y201996D02*
X70079Y203384D01*
X71466Y185428D02*
Y201996D01*
X70473Y184434D02*
X71466Y185428D01*
X18449Y222780D02*
Y222987D01*
X44488Y87008D02*
X48819Y91339D01*
X44488Y87008D02*
X11811D01*
X8268Y90551D01*
Y212598D02*
X18449Y222780D01*
X8268Y90551D02*
Y212598D01*
X11024Y181653D02*
Y211033D01*
X25197Y225207D01*
Y227559D01*
X51968Y216563D02*
Y224733D01*
X50825Y215195D02*
Y215420D01*
X51968Y216563D01*
X126181Y192520D02*
Y197047D01*
X111024Y224409D02*
X111122Y224507D01*
Y227854D02*
X111221Y227953D01*
X111122Y224507D02*
Y227854D01*
X127362Y213583D02*
X125984D01*
X131496Y209449D02*
X127362Y213583D01*
X131496Y203543D02*
Y209449D01*
X47638Y97244D02*
Y133071D01*
X38583Y142126D01*
X129527Y201575D02*
X127953D01*
X129527D02*
X131496Y203543D01*
D23*
X281890Y270079D02*
X288189Y276378D01*
X274535Y270079D02*
X270276Y274339D01*
X281890Y270079D02*
X274535D01*
X246179Y190829D02*
X229250D01*
X221260Y198819D02*
X211811D01*
X229250Y190829D02*
X221260Y198819D01*
X252032Y184976D02*
X246179Y190829D01*
X294094Y276378D02*
X295276Y277559D01*
X294094Y276378D02*
X288189D01*
X372835Y244882D02*
X358976D01*
X372835D02*
X378346Y250394D01*
Y258071D01*
X346378Y232283D02*
X358976Y244882D01*
X85039Y270079D02*
X91339Y276378D01*
X77685Y270079D02*
X73425Y274339D01*
X85039Y270079D02*
X77685D01*
X49328Y190829D02*
X32399D01*
X24410Y198819D02*
X14961D01*
X32399Y190829D02*
X24410Y198819D01*
X55182Y184976D02*
X49328Y190829D01*
X97244Y276378D02*
X98425Y277559D01*
X97244Y276378D02*
X91339D01*
X175984Y244882D02*
X162126D01*
X175984D02*
X181496Y250394D01*
Y258071D01*
X149528Y232283D02*
X162126Y244882D01*
D24*
X266330Y281307D02*
X266449Y281512D01*
X262276Y274339D02*
X266330Y281307D01*
X324276Y274339D02*
X328276Y281339D01*
X323071Y287689D02*
X269378D01*
X266449Y284760D02*
X269378Y287689D01*
X323111Y287648D02*
X323071Y287689D01*
X327823Y284719D02*
X324894Y287648D01*
X323111D01*
X266449Y281512D02*
Y284760D01*
X308268Y255331D02*
X308276Y255339D01*
X308268Y247244D02*
Y255331D01*
X324705Y240945D02*
X324646Y241004D01*
Y245827D01*
X324276Y246197D01*
Y274339D01*
X69479Y281307D02*
X69599Y281512D01*
X65425Y274339D02*
X69479Y281307D01*
X127425Y274339D02*
X131425Y281339D01*
X126221Y287689D02*
X72527D01*
X69599Y284760D02*
X72527Y287689D01*
X126261Y287648D02*
X126221Y287689D01*
X130972Y284719D02*
X128043Y287648D01*
X126261D01*
X69599Y281512D02*
Y284760D01*
X111417Y255331D02*
X111425Y255339D01*
X111417Y247244D02*
Y255331D01*
X127854Y240945D02*
X127795Y241004D01*
Y245827D01*
X127425Y246197D01*
Y274339D01*
D25*
X358189Y232283D02*
D03*
X346378D02*
D03*
X358189Y200787D02*
D03*
X346378D02*
D03*
X358189Y169291D02*
D03*
X346378D02*
D03*
X239276Y291339D02*
D03*
X351276D02*
D03*
X161339Y232283D02*
D03*
X149528D02*
D03*
X161339Y200787D02*
D03*
X149528D02*
D03*
X161339Y169291D02*
D03*
X149528D02*
D03*
X42425Y291339D02*
D03*
X154425D02*
D03*
D26*
X375197Y232283D02*
D03*
Y200787D02*
D03*
Y169291D02*
D03*
X178347Y232283D02*
D03*
Y200787D02*
D03*
Y169291D02*
D03*
D27*
X214567Y49213D02*
D03*
X293307Y127953D02*
D03*
X328740Y96063D02*
D03*
Y124409D02*
D03*
X17717Y49213D02*
D03*
X96457Y127953D02*
D03*
X131890Y96063D02*
D03*
Y124409D02*
D03*
D28*
X212598Y15748D02*
D03*
Y299213D02*
D03*
X377953D02*
D03*
Y15748D02*
D03*
X15748D02*
D03*
Y299213D02*
D03*
X181102D02*
D03*
Y15748D02*
D03*
D29*
X350787Y71653D02*
D03*
X153937D02*
D03*
D30*
X362598Y53150D02*
D03*
X165748D02*
D03*
D31*
X338976D02*
D03*
X142126D02*
D03*
D32*
X287402Y180512D02*
D03*
Y194291D02*
D03*
X246063Y26575D02*
D03*
Y12795D02*
D03*
X281496Y26575D02*
D03*
Y12795D02*
D03*
X250276Y281339D02*
D03*
X254276Y274339D02*
D03*
X258276Y281339D02*
D03*
X262276Y274339D02*
D03*
X266276Y281339D02*
D03*
X270276Y274339D02*
D03*
X274276Y281339D02*
D03*
X278276Y274339D02*
D03*
X237276Y255339D02*
D03*
X246276D02*
D03*
X282276D02*
D03*
X291276D02*
D03*
X312276Y281339D02*
D03*
X316276Y274339D02*
D03*
X320276Y281339D02*
D03*
X324276Y274339D02*
D03*
X328276Y281339D02*
D03*
X332276Y274339D02*
D03*
X336276Y281339D02*
D03*
X340276Y274339D02*
D03*
X299276Y255339D02*
D03*
X308276D02*
D03*
X344276D02*
D03*
X353276D02*
D03*
X90551Y180512D02*
D03*
Y194291D02*
D03*
X49213Y26575D02*
D03*
Y12795D02*
D03*
X84646Y26575D02*
D03*
Y12795D02*
D03*
X53425Y281339D02*
D03*
X57425Y274339D02*
D03*
X61425Y281339D02*
D03*
X65425Y274339D02*
D03*
X69425Y281339D02*
D03*
X73425Y274339D02*
D03*
X77425Y281339D02*
D03*
X81425Y274339D02*
D03*
X40425Y255339D02*
D03*
X49425D02*
D03*
X85425D02*
D03*
X94425D02*
D03*
X115425Y281339D02*
D03*
X119425Y274339D02*
D03*
X123425Y281339D02*
D03*
X127425Y274339D02*
D03*
X131425Y281339D02*
D03*
X135425Y274339D02*
D03*
X139425Y281339D02*
D03*
X143425Y274339D02*
D03*
X102425Y255339D02*
D03*
X111425D02*
D03*
X147425D02*
D03*
X156425D02*
D03*
D33*
X232276Y277839D02*
D03*
X358276D02*
D03*
X35425D02*
D03*
X161425D02*
D03*
D34*
X352362Y83661D02*
D03*
Y136811D02*
D03*
X155512Y83661D02*
D03*
Y136811D02*
D03*
D35*
X275590Y311024D02*
D03*
X265129Y207101D02*
D03*
X258268Y213779D02*
D03*
X272099Y213607D02*
D03*
X208661Y229528D02*
D03*
X238583Y219291D02*
D03*
X233858D02*
D03*
X236221Y210236D02*
D03*
X274016Y262205D02*
D03*
X265748Y260236D02*
D03*
X257874Y261417D02*
D03*
X251969D02*
D03*
X230315Y242126D02*
D03*
X224410Y251575D02*
D03*
X216535Y251969D02*
D03*
X337795Y151181D02*
D03*
X210630Y275590D02*
D03*
X209842Y265748D02*
D03*
X270866Y151181D02*
D03*
X325590Y142520D02*
D03*
X311024Y147638D02*
D03*
X307087D02*
D03*
X314961D02*
D03*
X324409D02*
D03*
X320472D02*
D03*
X328346D02*
D03*
X281102Y235039D02*
D03*
X288583Y241732D02*
D03*
X242520Y243307D02*
D03*
X227953Y55905D02*
D03*
X231890D02*
D03*
X235827D02*
D03*
X231890Y59842D02*
D03*
X227953Y59842D02*
D03*
X231890Y51968D02*
D03*
X235827D02*
D03*
X329528Y70472D02*
D03*
X328346Y43701D02*
D03*
X322835Y29528D02*
D03*
X314961D02*
D03*
X324803Y23622D02*
D03*
Y13780D02*
D03*
X332677Y35039D02*
D03*
X348031Y31496D02*
D03*
X344094Y157480D02*
D03*
X220866Y201181D02*
D03*
X211417Y195669D02*
D03*
X214567Y209842D02*
D03*
X230709Y135433D02*
D03*
X239370Y130709D02*
D03*
X234646D02*
D03*
X313779Y55118D02*
D03*
X310630D02*
D03*
X316929D02*
D03*
X320079D02*
D03*
X323228D02*
D03*
X313779Y52362D02*
D03*
X354331Y23622D02*
D03*
X310630Y52362D02*
D03*
X316929D02*
D03*
X320079D02*
D03*
X298031Y14173D02*
D03*
X300787Y23622D02*
D03*
Y20472D02*
D03*
X298031Y17323D02*
D03*
X300787Y14173D02*
D03*
Y17323D02*
D03*
X298031Y20472D02*
D03*
Y11024D02*
D03*
X323228Y52362D02*
D03*
X300787Y11024D02*
D03*
X298031Y23622D02*
D03*
X281496Y248819D02*
D03*
X226772Y220079D02*
D03*
X231102Y208268D02*
D03*
X279922Y190551D02*
D03*
X306693Y199213D02*
D03*
X298819D02*
D03*
X280709Y205906D02*
D03*
X284252Y199213D02*
D03*
X285039Y203937D02*
D03*
X291732D02*
D03*
X298819D02*
D03*
X289764Y213779D02*
D03*
X276772Y202756D02*
D03*
X264567Y188976D02*
D03*
X323228Y205512D02*
D03*
X241732Y230709D02*
D03*
X309449Y100000D02*
D03*
X340551Y108268D02*
D03*
X340551Y118897D02*
D03*
X341339Y64567D02*
D03*
X324803Y3937D02*
D03*
X314961D02*
D03*
X263779Y150787D02*
D03*
X216535Y226378D02*
D03*
X253937Y189370D02*
D03*
X264173Y251969D02*
D03*
X223229Y230708D02*
D03*
X214567Y242913D02*
D03*
X328740Y221260D02*
D03*
X319685D02*
D03*
X383071Y261024D02*
D03*
X245669Y248819D02*
D03*
X272835Y248031D02*
D03*
X250787Y252756D02*
D03*
X257874D02*
D03*
X233071Y258661D02*
D03*
X280709Y282283D02*
D03*
X296850Y282677D02*
D03*
X229528Y145276D02*
D03*
X233465Y138583D02*
D03*
X207874Y141732D02*
D03*
Y131890D02*
D03*
Y122047D02*
D03*
Y112205D02*
D03*
Y102362D02*
D03*
Y92520D02*
D03*
X200787Y29528D02*
D03*
X206299Y81496D02*
D03*
Y71653D02*
D03*
Y61811D02*
D03*
X251969Y41339D02*
D03*
X242126D02*
D03*
X228346Y289370D02*
D03*
X223228Y281496D02*
D03*
X241339Y277165D02*
D03*
X242126Y259842D02*
D03*
X308268Y266535D02*
D03*
X298425Y270079D02*
D03*
X370472Y242126D02*
D03*
X360630D02*
D03*
X360236Y247638D02*
D03*
X375984Y251575D02*
D03*
X370079Y247638D02*
D03*
X350787Y240945D02*
D03*
X333858Y259842D02*
D03*
X337402Y248031D02*
D03*
X328740Y251575D02*
D03*
X330315Y269291D02*
D03*
X340551Y265748D02*
D03*
X350394D02*
D03*
X324803Y291732D02*
D03*
X314961Y292126D02*
D03*
X305118D02*
D03*
X295276D02*
D03*
X285433D02*
D03*
X334646Y291339D02*
D03*
X354331Y301181D02*
D03*
X344488D02*
D03*
X334646D02*
D03*
X324803D02*
D03*
X314961D02*
D03*
X305118D02*
D03*
X295276D02*
D03*
X275590D02*
D03*
X285433D02*
D03*
X255906Y291339D02*
D03*
X236221Y301181D02*
D03*
X246063D02*
D03*
X255906D02*
D03*
X265748D02*
D03*
X208661Y238583D02*
D03*
X275590Y254724D02*
D03*
X291339Y248819D02*
D03*
X296850Y220079D02*
D03*
X288583Y228346D02*
D03*
Y235039D02*
D03*
X296063Y210630D02*
D03*
X281102Y213386D02*
D03*
X288976Y220866D02*
D03*
X302756Y223622D02*
D03*
X306693Y203937D02*
D03*
X311024Y206299D02*
D03*
X303150Y188976D02*
D03*
X301575Y194095D02*
D03*
X276378Y194882D02*
D03*
X294094Y194488D02*
D03*
X272441Y190157D02*
D03*
X287008Y188976D02*
D03*
X296063D02*
D03*
X273228Y228346D02*
D03*
X291732Y199213D02*
D03*
X309842Y192126D02*
D03*
X316142Y188976D02*
D03*
X360236Y137795D02*
D03*
X389764Y127953D02*
D03*
X350394Y89370D02*
D03*
X320866Y136614D02*
D03*
X321260Y116535D02*
D03*
Y106299D02*
D03*
X330709Y108268D02*
D03*
X262992Y157480D02*
D03*
X334646Y151181D02*
D03*
X360236Y206693D02*
D03*
X370079Y216535D02*
D03*
X360236Y226378D02*
D03*
Y216535D02*
D03*
Y187008D02*
D03*
Y177165D02*
D03*
X370079Y187008D02*
D03*
Y177165D02*
D03*
X350394Y157874D02*
D03*
Y147638D02*
D03*
X340551D02*
D03*
Y137795D02*
D03*
X330709D02*
D03*
X341339Y88583D02*
D03*
Y78740D02*
D03*
X340551Y127953D02*
D03*
X350394Y108268D02*
D03*
Y98425D02*
D03*
Y127953D02*
D03*
Y118110D02*
D03*
X360236Y68898D02*
D03*
Y88583D02*
D03*
Y78740D02*
D03*
Y108268D02*
D03*
Y98425D02*
D03*
Y157480D02*
D03*
Y147638D02*
D03*
Y127953D02*
D03*
Y118110D02*
D03*
X293701Y18504D02*
D03*
X275590Y13780D02*
D03*
X255906D02*
D03*
X360252Y41361D02*
D03*
X364173Y31496D02*
D03*
X350394Y62992D02*
D03*
Y43307D02*
D03*
X354724Y31496D02*
D03*
X354331Y13780D02*
D03*
X370079Y39370D02*
D03*
Y49213D02*
D03*
X379921D02*
D03*
Y39370D02*
D03*
Y78740D02*
D03*
Y68898D02*
D03*
Y59055D02*
D03*
X370079Y68898D02*
D03*
Y59055D02*
D03*
Y98425D02*
D03*
Y88583D02*
D03*
Y78740D02*
D03*
Y118110D02*
D03*
Y108268D02*
D03*
Y147638D02*
D03*
Y137795D02*
D03*
Y127953D02*
D03*
Y157480D02*
D03*
X364173Y285433D02*
D03*
X360236Y265748D02*
D03*
Y255906D02*
D03*
X370079D02*
D03*
Y265748D02*
D03*
Y275590D02*
D03*
X379921Y216535D02*
D03*
Y246063D02*
D03*
Y277559D02*
D03*
Y187008D02*
D03*
Y137795D02*
D03*
Y147638D02*
D03*
Y157480D02*
D03*
Y177165D02*
D03*
Y88583D02*
D03*
Y98425D02*
D03*
Y108268D02*
D03*
Y118110D02*
D03*
Y127953D02*
D03*
X226378Y33465D02*
D03*
X236221D02*
D03*
Y23622D02*
D03*
Y13780D02*
D03*
X265748Y3937D02*
D03*
X255906D02*
D03*
X246063D02*
D03*
X236221D02*
D03*
X226378D02*
D03*
X305118D02*
D03*
X295276D02*
D03*
X285433D02*
D03*
X275590D02*
D03*
X334646D02*
D03*
X344488D02*
D03*
X354331D02*
D03*
X364173D02*
D03*
X226378Y311024D02*
D03*
X236221D02*
D03*
X246063D02*
D03*
X255906D02*
D03*
X265748D02*
D03*
X285433D02*
D03*
X295276D02*
D03*
X305118D02*
D03*
X314961D02*
D03*
X324803D02*
D03*
X334646D02*
D03*
X344488D02*
D03*
X354331D02*
D03*
X364173D02*
D03*
X389764Y285433D02*
D03*
Y274016D02*
D03*
Y236221D02*
D03*
Y226378D02*
D03*
Y246063D02*
D03*
Y187008D02*
D03*
Y177165D02*
D03*
Y196850D02*
D03*
Y206693D02*
D03*
Y216535D02*
D03*
Y137795D02*
D03*
Y147638D02*
D03*
Y157480D02*
D03*
Y167323D02*
D03*
Y88583D02*
D03*
Y78740D02*
D03*
Y98425D02*
D03*
Y108268D02*
D03*
Y118110D02*
D03*
Y68898D02*
D03*
Y59055D02*
D03*
Y49213D02*
D03*
Y29528D02*
D03*
Y39370D02*
D03*
X253937Y124016D02*
D03*
X254331Y114173D02*
D03*
X253150Y104331D02*
D03*
X283465D02*
D03*
X293701D02*
D03*
X304331D02*
D03*
X303150Y124016D02*
D03*
Y133858D02*
D03*
X293307Y114173D02*
D03*
X303150D02*
D03*
X283465D02*
D03*
Y124016D02*
D03*
Y133858D02*
D03*
X273622D02*
D03*
Y124016D02*
D03*
Y114173D02*
D03*
Y104331D02*
D03*
X263386D02*
D03*
X263779Y114173D02*
D03*
Y124016D02*
D03*
Y133858D02*
D03*
X253937D02*
D03*
X311811Y104331D02*
D03*
Y114173D02*
D03*
Y124016D02*
D03*
Y133858D02*
D03*
X244488Y268110D02*
D03*
X236221Y265748D02*
D03*
X226378D02*
D03*
X220472Y275590D02*
D03*
X218898Y265748D02*
D03*
X218110Y255906D02*
D03*
X200787D02*
D03*
Y265748D02*
D03*
Y275590D02*
D03*
Y285433D02*
D03*
Y206693D02*
D03*
Y216535D02*
D03*
Y226378D02*
D03*
Y236221D02*
D03*
Y246063D02*
D03*
Y157480D02*
D03*
Y167323D02*
D03*
Y177165D02*
D03*
Y187008D02*
D03*
Y196850D02*
D03*
Y147638D02*
D03*
Y137795D02*
D03*
Y127953D02*
D03*
Y118110D02*
D03*
Y108268D02*
D03*
Y98425D02*
D03*
Y88583D02*
D03*
Y78740D02*
D03*
Y68898D02*
D03*
Y59055D02*
D03*
Y49213D02*
D03*
Y39370D02*
D03*
X256299Y235433D02*
D03*
X244882Y199606D02*
D03*
X235433Y202362D02*
D03*
X240551D02*
D03*
X243307Y208268D02*
D03*
X220472Y185433D02*
D03*
X230709Y180709D02*
D03*
X272441Y235433D02*
D03*
X264567D02*
D03*
X237796Y248818D02*
D03*
X230315Y202362D02*
D03*
X316142Y197244D02*
D03*
X311811Y143701D02*
D03*
X303150Y144488D02*
D03*
X294488D02*
D03*
X281496Y144095D02*
D03*
X273622Y143701D02*
D03*
X263779D02*
D03*
X253937D02*
D03*
X244094D02*
D03*
Y153543D02*
D03*
Y163386D02*
D03*
Y173228D02*
D03*
X274016Y151181D02*
D03*
X280315Y147638D02*
D03*
X288189D02*
D03*
X284252D02*
D03*
X301575D02*
D03*
X293701D02*
D03*
X297638D02*
D03*
X281102Y241732D02*
D03*
X228740Y194882D02*
D03*
X220079Y63779D02*
D03*
X257874Y98032D02*
D03*
X261811D02*
D03*
X265748D02*
D03*
X251575Y96063D02*
D03*
X247638Y79527D02*
D03*
X251575D02*
D03*
X247638Y96063D02*
D03*
X236221Y186614D02*
D03*
X226772Y189370D02*
D03*
X296457Y246063D02*
D03*
X250394Y122835D02*
D03*
X253543Y100787D02*
D03*
X250394Y99213D02*
D03*
Y118898D02*
D03*
Y103150D02*
D03*
Y114961D02*
D03*
Y111024D02*
D03*
Y107087D02*
D03*
X239764Y51968D02*
D03*
X243701D02*
D03*
X247638D02*
D03*
X236221Y214961D02*
D03*
X226772Y211811D02*
D03*
X244094Y183071D02*
D03*
X236221Y175197D02*
D03*
X236614Y155512D02*
D03*
Y165354D02*
D03*
X211417Y185433D02*
D03*
X219291Y194488D02*
D03*
X214567Y201181D02*
D03*
X210630Y207480D02*
D03*
X225984Y233858D02*
D03*
X227165Y228740D02*
D03*
X236614Y241339D02*
D03*
X233071Y233465D02*
D03*
X236221Y229528D02*
D03*
X241732Y237402D02*
D03*
X250000Y247244D02*
D03*
X281102Y228740D02*
D03*
X273622Y221654D02*
D03*
X281102Y221260D02*
D03*
X247244Y208268D02*
D03*
X297244Y229528D02*
D03*
Y226378D02*
D03*
X296457Y234646D02*
D03*
Y237795D02*
D03*
Y242913D02*
D03*
X287402Y265748D02*
D03*
X316929D02*
D03*
Y253937D02*
D03*
X301575Y261417D02*
D03*
X305906Y281890D02*
D03*
X318898Y202756D02*
D03*
X319685Y197244D02*
D03*
X246063Y192913D02*
D03*
X329528Y199606D02*
D03*
X325590Y198031D02*
D03*
Y204724D02*
D03*
X226378Y151575D02*
D03*
X222441D02*
D03*
X218504D02*
D03*
X214567D02*
D03*
X226378Y155512D02*
D03*
X222441D02*
D03*
X218504D02*
D03*
X214567D02*
D03*
X210630D02*
D03*
Y151575D02*
D03*
Y159449D02*
D03*
X214567D02*
D03*
X218504D02*
D03*
X222441D02*
D03*
X226378D02*
D03*
Y163386D02*
D03*
Y167323D02*
D03*
Y171260D02*
D03*
Y175197D02*
D03*
X222441Y179134D02*
D03*
Y175197D02*
D03*
Y171260D02*
D03*
Y167323D02*
D03*
Y163386D02*
D03*
X260630Y70866D02*
D03*
Y66929D02*
D03*
Y62992D02*
D03*
Y59055D02*
D03*
Y55118D02*
D03*
Y51181D02*
D03*
Y47244D02*
D03*
Y43307D02*
D03*
X236614Y145669D02*
D03*
X214961Y126772D02*
D03*
Y122835D02*
D03*
Y118898D02*
D03*
Y114961D02*
D03*
Y111024D02*
D03*
Y107087D02*
D03*
Y103150D02*
D03*
Y99213D02*
D03*
Y95276D02*
D03*
Y91339D02*
D03*
X251575Y55905D02*
D03*
X247638D02*
D03*
X243701D02*
D03*
X239764D02*
D03*
X234646Y122835D02*
D03*
Y95276D02*
D03*
X251575Y51968D02*
D03*
X238583Y95276D02*
D03*
X284252Y70866D02*
D03*
X236221Y223622D02*
D03*
X218898Y91339D02*
D03*
X222835D02*
D03*
X218898Y95276D02*
D03*
X238583Y122835D02*
D03*
X301969Y98032D02*
D03*
X305906D02*
D03*
X298031D02*
D03*
X288583D02*
D03*
X292520D02*
D03*
X284646D02*
D03*
X275197D02*
D03*
X279134D02*
D03*
X271260D02*
D03*
X247638Y71653D02*
D03*
X226772Y91339D02*
D03*
X230709D02*
D03*
X234646D02*
D03*
X238583D02*
D03*
X218898Y126772D02*
D03*
X222835D02*
D03*
X226772D02*
D03*
X230709D02*
D03*
X218898Y122835D02*
D03*
X222835D02*
D03*
X226772D02*
D03*
X230709D02*
D03*
Y95276D02*
D03*
X226772D02*
D03*
X222835D02*
D03*
X218898Y118898D02*
D03*
Y99213D02*
D03*
Y103150D02*
D03*
Y114961D02*
D03*
Y111024D02*
D03*
Y107087D02*
D03*
X243701Y59842D02*
D03*
X239764D02*
D03*
X235827D02*
D03*
X216142Y75590D02*
D03*
Y79527D02*
D03*
Y71653D02*
D03*
Y67716D02*
D03*
X220079D02*
D03*
Y71653D02*
D03*
Y79527D02*
D03*
Y75590D02*
D03*
X251575Y59842D02*
D03*
Y63779D02*
D03*
Y67716D02*
D03*
Y71653D02*
D03*
Y75590D02*
D03*
X247638Y59842D02*
D03*
Y63779D02*
D03*
Y67716D02*
D03*
Y75590D02*
D03*
X264567Y43307D02*
D03*
Y59055D02*
D03*
Y62992D02*
D03*
Y66929D02*
D03*
Y70866D02*
D03*
Y51181D02*
D03*
Y55118D02*
D03*
Y47244D02*
D03*
X280315Y70866D02*
D03*
X288189D02*
D03*
X292126D02*
D03*
X272441D02*
D03*
X276378D02*
D03*
X268504D02*
D03*
Y43307D02*
D03*
X276378D02*
D03*
X272441D02*
D03*
X292126D02*
D03*
X288189D02*
D03*
X284252D02*
D03*
X280315D02*
D03*
X257874Y76772D02*
D03*
X265748D02*
D03*
X261811D02*
D03*
X271260D02*
D03*
X279134D02*
D03*
X275197D02*
D03*
X284646D02*
D03*
X292520D02*
D03*
X288583D02*
D03*
X298031D02*
D03*
X301969D02*
D03*
X78740Y311024D02*
D03*
X68279Y207101D02*
D03*
X61417Y213779D02*
D03*
X75249Y213607D02*
D03*
X11811Y229528D02*
D03*
X41732Y219291D02*
D03*
X37008D02*
D03*
X39370Y210236D02*
D03*
X77165Y262205D02*
D03*
X68898Y260236D02*
D03*
X61024Y261417D02*
D03*
X55118D02*
D03*
X33465Y242126D02*
D03*
X27559Y251575D02*
D03*
X19685Y251969D02*
D03*
X140945Y151181D02*
D03*
X13780Y275590D02*
D03*
X12992Y265748D02*
D03*
X74016Y151181D02*
D03*
X128740Y142520D02*
D03*
X114173Y147638D02*
D03*
X110236D02*
D03*
X118110D02*
D03*
X127559D02*
D03*
X123622D02*
D03*
X131496D02*
D03*
X84252Y235039D02*
D03*
X91732Y241732D02*
D03*
X45669Y243307D02*
D03*
X31102Y55905D02*
D03*
X35039D02*
D03*
X38976D02*
D03*
X35039Y59842D02*
D03*
X31102Y59842D02*
D03*
X35039Y51968D02*
D03*
X38976D02*
D03*
X132677Y70472D02*
D03*
X131496Y43701D02*
D03*
X125984Y29528D02*
D03*
X118110D02*
D03*
X127953Y23622D02*
D03*
Y13780D02*
D03*
X135827Y35039D02*
D03*
X151181Y31496D02*
D03*
X147244Y157480D02*
D03*
X24016Y201181D02*
D03*
X14567Y195669D02*
D03*
X17717Y209842D02*
D03*
X33858Y135433D02*
D03*
X42520Y130709D02*
D03*
X37795D02*
D03*
X116929Y55118D02*
D03*
X113779D02*
D03*
X120079D02*
D03*
X123228D02*
D03*
X126378D02*
D03*
X116929Y52362D02*
D03*
X157480Y23622D02*
D03*
X113779Y52362D02*
D03*
X120079D02*
D03*
X123228D02*
D03*
X101181Y14173D02*
D03*
X103937Y23622D02*
D03*
Y20472D02*
D03*
X101181Y17323D02*
D03*
X103937Y14173D02*
D03*
Y17323D02*
D03*
X101181Y20472D02*
D03*
Y11024D02*
D03*
X126378Y52362D02*
D03*
X103937Y11024D02*
D03*
X101181Y23622D02*
D03*
X84646Y248819D02*
D03*
X29921Y220079D02*
D03*
X34252Y208268D02*
D03*
X83071Y190551D02*
D03*
X109843Y199213D02*
D03*
X101969D02*
D03*
X83858Y205906D02*
D03*
X87402Y199213D02*
D03*
X88189Y203937D02*
D03*
X94882D02*
D03*
X101969D02*
D03*
X92913Y213779D02*
D03*
X79921Y202756D02*
D03*
X67716Y188976D02*
D03*
X126378Y205512D02*
D03*
X44882Y230709D02*
D03*
X112598Y100000D02*
D03*
X143701Y108268D02*
D03*
X143701Y118897D02*
D03*
X144488Y64567D02*
D03*
X127953Y3937D02*
D03*
X118110D02*
D03*
X66929Y150787D02*
D03*
X19685Y226378D02*
D03*
X57087Y189370D02*
D03*
X67323Y251969D02*
D03*
X26378Y230708D02*
D03*
X17717Y242913D02*
D03*
X131890Y221260D02*
D03*
X122835D02*
D03*
X186221Y261024D02*
D03*
X48819Y248819D02*
D03*
X75984Y248031D02*
D03*
X53937Y252756D02*
D03*
X61024D02*
D03*
X36220Y258661D02*
D03*
X83858Y282283D02*
D03*
X100000Y282677D02*
D03*
X32677Y145276D02*
D03*
X36614Y138583D02*
D03*
X11024Y141732D02*
D03*
Y131890D02*
D03*
Y122047D02*
D03*
Y112205D02*
D03*
Y102362D02*
D03*
Y92520D02*
D03*
X3937Y29528D02*
D03*
X9449Y81496D02*
D03*
Y71653D02*
D03*
Y61811D02*
D03*
X55118Y41339D02*
D03*
X45276D02*
D03*
X31496Y289370D02*
D03*
X26378Y281496D02*
D03*
X44488Y277165D02*
D03*
X45276Y259842D02*
D03*
X111417Y266535D02*
D03*
X101575Y270079D02*
D03*
X173622Y242126D02*
D03*
X163779D02*
D03*
X163386Y247638D02*
D03*
X179134Y251575D02*
D03*
X173228Y247638D02*
D03*
X153937Y240945D02*
D03*
X137008Y259842D02*
D03*
X140551Y248031D02*
D03*
X131890Y251575D02*
D03*
X133465Y269291D02*
D03*
X143701Y265748D02*
D03*
X153543D02*
D03*
X127953Y291732D02*
D03*
X118110Y292126D02*
D03*
X108268D02*
D03*
X98425D02*
D03*
X88583D02*
D03*
X137795Y291339D02*
D03*
X157480Y301181D02*
D03*
X147638D02*
D03*
X137795D02*
D03*
X127953D02*
D03*
X118110D02*
D03*
X108268D02*
D03*
X98425D02*
D03*
X78740D02*
D03*
X88583D02*
D03*
X59055Y291339D02*
D03*
X39370Y301181D02*
D03*
X49213D02*
D03*
X59055D02*
D03*
X68898D02*
D03*
X11811Y238583D02*
D03*
X78740Y254724D02*
D03*
X94488Y248819D02*
D03*
X100000Y220079D02*
D03*
X91732Y228346D02*
D03*
Y235039D02*
D03*
X99213Y210630D02*
D03*
X84252Y213386D02*
D03*
X92126Y220866D02*
D03*
X105905Y223622D02*
D03*
X109843Y203937D02*
D03*
X114173Y206299D02*
D03*
X106299Y188976D02*
D03*
X104724Y194095D02*
D03*
X79528Y194882D02*
D03*
X97244Y194488D02*
D03*
X75591Y190157D02*
D03*
X90158Y188976D02*
D03*
X99213D02*
D03*
X76378Y228346D02*
D03*
X94882Y199213D02*
D03*
X112992Y192126D02*
D03*
X119291Y188976D02*
D03*
X163386Y137795D02*
D03*
X192913Y127953D02*
D03*
X153543Y89370D02*
D03*
X124016Y136614D02*
D03*
X124409Y116535D02*
D03*
Y106299D02*
D03*
X133858Y108268D02*
D03*
X66142Y157480D02*
D03*
X137795Y151181D02*
D03*
X163386Y206693D02*
D03*
X173228Y216535D02*
D03*
X163386Y226378D02*
D03*
Y216535D02*
D03*
Y187008D02*
D03*
Y177165D02*
D03*
X173228Y187008D02*
D03*
Y177165D02*
D03*
X153543Y157874D02*
D03*
Y147638D02*
D03*
X143701D02*
D03*
Y137795D02*
D03*
X133858D02*
D03*
X144488Y88583D02*
D03*
Y78740D02*
D03*
X143701Y127953D02*
D03*
X153543Y108268D02*
D03*
Y98425D02*
D03*
Y127953D02*
D03*
Y118110D02*
D03*
X163386Y68898D02*
D03*
Y88583D02*
D03*
Y78740D02*
D03*
Y108268D02*
D03*
Y98425D02*
D03*
Y157480D02*
D03*
Y147638D02*
D03*
Y127953D02*
D03*
Y118110D02*
D03*
X96850Y18504D02*
D03*
X78740Y13780D02*
D03*
X59055D02*
D03*
X163401Y41361D02*
D03*
X167323Y31496D02*
D03*
X153543Y62992D02*
D03*
Y43307D02*
D03*
X157874Y31496D02*
D03*
X157480Y13780D02*
D03*
X173228Y39370D02*
D03*
Y49213D02*
D03*
X183071D02*
D03*
Y39370D02*
D03*
Y78740D02*
D03*
Y68898D02*
D03*
Y59055D02*
D03*
X173228Y68898D02*
D03*
Y59055D02*
D03*
Y98425D02*
D03*
Y88583D02*
D03*
Y78740D02*
D03*
Y118110D02*
D03*
Y108268D02*
D03*
Y147638D02*
D03*
Y137795D02*
D03*
Y127953D02*
D03*
Y157480D02*
D03*
X167323Y285433D02*
D03*
X163386Y265748D02*
D03*
Y255906D02*
D03*
X173228D02*
D03*
Y265748D02*
D03*
Y275590D02*
D03*
X183071Y216535D02*
D03*
Y246063D02*
D03*
Y277559D02*
D03*
Y187008D02*
D03*
Y137795D02*
D03*
Y147638D02*
D03*
Y157480D02*
D03*
Y177165D02*
D03*
Y88583D02*
D03*
Y98425D02*
D03*
Y108268D02*
D03*
Y118110D02*
D03*
Y127953D02*
D03*
X29528Y33465D02*
D03*
X39370D02*
D03*
Y23622D02*
D03*
Y13780D02*
D03*
X68898Y3937D02*
D03*
X59055D02*
D03*
X49213D02*
D03*
X39370D02*
D03*
X29528D02*
D03*
X108268D02*
D03*
X98425D02*
D03*
X88583D02*
D03*
X78740D02*
D03*
X137795D02*
D03*
X147638D02*
D03*
X157480D02*
D03*
X167323D02*
D03*
X29528Y311024D02*
D03*
X39370D02*
D03*
X49213D02*
D03*
X59055D02*
D03*
X68898D02*
D03*
X88583D02*
D03*
X98425D02*
D03*
X108268D02*
D03*
X118110D02*
D03*
X127953D02*
D03*
X137795D02*
D03*
X147638D02*
D03*
X157480D02*
D03*
X167323D02*
D03*
X192913Y285433D02*
D03*
Y274016D02*
D03*
Y236221D02*
D03*
Y226378D02*
D03*
Y246063D02*
D03*
Y187008D02*
D03*
Y177165D02*
D03*
Y196850D02*
D03*
Y206693D02*
D03*
Y216535D02*
D03*
Y137795D02*
D03*
Y147638D02*
D03*
Y157480D02*
D03*
Y167323D02*
D03*
Y88583D02*
D03*
Y78740D02*
D03*
Y98425D02*
D03*
Y108268D02*
D03*
Y118110D02*
D03*
Y68898D02*
D03*
Y59055D02*
D03*
Y49213D02*
D03*
Y29528D02*
D03*
Y39370D02*
D03*
X57087Y124016D02*
D03*
X57480Y114173D02*
D03*
X56299Y104331D02*
D03*
X86614D02*
D03*
X96850D02*
D03*
X107480D02*
D03*
X106299Y124016D02*
D03*
Y133858D02*
D03*
X96457Y114173D02*
D03*
X106299D02*
D03*
X86614D02*
D03*
Y124016D02*
D03*
Y133858D02*
D03*
X76772D02*
D03*
Y124016D02*
D03*
Y114173D02*
D03*
Y104331D02*
D03*
X66535D02*
D03*
X66929Y114173D02*
D03*
Y124016D02*
D03*
Y133858D02*
D03*
X57087D02*
D03*
X114961Y104331D02*
D03*
Y114173D02*
D03*
Y124016D02*
D03*
Y133858D02*
D03*
X47638Y268110D02*
D03*
X39370Y265748D02*
D03*
X29528D02*
D03*
X23622Y275590D02*
D03*
X22047Y265748D02*
D03*
X21260Y255906D02*
D03*
X3937D02*
D03*
Y265748D02*
D03*
Y275590D02*
D03*
Y285433D02*
D03*
Y206693D02*
D03*
Y216535D02*
D03*
Y226378D02*
D03*
Y236221D02*
D03*
Y246063D02*
D03*
Y157480D02*
D03*
Y167323D02*
D03*
Y177165D02*
D03*
Y187008D02*
D03*
Y196850D02*
D03*
Y147638D02*
D03*
Y137795D02*
D03*
Y127953D02*
D03*
Y118110D02*
D03*
Y108268D02*
D03*
Y98425D02*
D03*
Y88583D02*
D03*
Y78740D02*
D03*
Y68898D02*
D03*
Y59055D02*
D03*
Y49213D02*
D03*
Y39370D02*
D03*
X59449Y235433D02*
D03*
X48031Y199606D02*
D03*
X38583Y202362D02*
D03*
X43701D02*
D03*
X46457Y208268D02*
D03*
X23622Y185433D02*
D03*
X33858Y180709D02*
D03*
X75591Y235433D02*
D03*
X67716D02*
D03*
X40945Y248818D02*
D03*
X33465Y202362D02*
D03*
X119291Y197244D02*
D03*
X114961Y143701D02*
D03*
X106299Y144488D02*
D03*
X97638D02*
D03*
X84646Y144095D02*
D03*
X76772Y143701D02*
D03*
X66929D02*
D03*
X57087D02*
D03*
X47244D02*
D03*
Y153543D02*
D03*
Y163386D02*
D03*
Y173228D02*
D03*
X77165Y151181D02*
D03*
X83465Y147638D02*
D03*
X91339D02*
D03*
X87402D02*
D03*
X104724D02*
D03*
X96850D02*
D03*
X100787D02*
D03*
X84252Y241732D02*
D03*
X31890Y194882D02*
D03*
X23228Y63779D02*
D03*
X61024Y98032D02*
D03*
X64961D02*
D03*
X68898D02*
D03*
X54724Y96063D02*
D03*
X50787Y79527D02*
D03*
X54724D02*
D03*
X50787Y96063D02*
D03*
X39370Y186614D02*
D03*
X29921Y189370D02*
D03*
X99606Y246063D02*
D03*
X53543Y122835D02*
D03*
X56693Y100787D02*
D03*
X53543Y99213D02*
D03*
Y118898D02*
D03*
Y103150D02*
D03*
Y114961D02*
D03*
Y111024D02*
D03*
Y107087D02*
D03*
X42913Y51968D02*
D03*
X46850D02*
D03*
X50787D02*
D03*
X39370Y214961D02*
D03*
X29921Y211811D02*
D03*
X47244Y183071D02*
D03*
X39370Y175197D02*
D03*
X39764Y155512D02*
D03*
Y165354D02*
D03*
X14567Y185433D02*
D03*
X22441Y194488D02*
D03*
X17717Y201181D02*
D03*
X13780Y207480D02*
D03*
X29134Y233858D02*
D03*
X30315Y228740D02*
D03*
X39764Y241339D02*
D03*
X36220Y233465D02*
D03*
X39370Y229528D02*
D03*
X44882Y237402D02*
D03*
X53150Y247244D02*
D03*
X84252Y228740D02*
D03*
X76772Y221654D02*
D03*
X84252Y221260D02*
D03*
X50394Y208268D02*
D03*
X100394Y229528D02*
D03*
Y226378D02*
D03*
X99606Y234646D02*
D03*
Y237795D02*
D03*
Y242913D02*
D03*
X90551Y265748D02*
D03*
X120079D02*
D03*
Y253937D02*
D03*
X104724Y261417D02*
D03*
X109055Y281890D02*
D03*
X122047Y202756D02*
D03*
X122835Y197244D02*
D03*
X49213Y192913D02*
D03*
X132677Y199606D02*
D03*
X128740Y198031D02*
D03*
Y204724D02*
D03*
X29528Y151575D02*
D03*
X25591D02*
D03*
X21654D02*
D03*
X17717D02*
D03*
X29528Y155512D02*
D03*
X25591D02*
D03*
X21654D02*
D03*
X17717D02*
D03*
X13780D02*
D03*
Y151575D02*
D03*
Y159449D02*
D03*
X17717D02*
D03*
X21654D02*
D03*
X25591D02*
D03*
X29528D02*
D03*
Y163386D02*
D03*
Y167323D02*
D03*
Y171260D02*
D03*
Y175197D02*
D03*
X25591Y179134D02*
D03*
Y175197D02*
D03*
Y171260D02*
D03*
Y167323D02*
D03*
Y163386D02*
D03*
X63779Y70866D02*
D03*
Y66929D02*
D03*
Y62992D02*
D03*
Y59055D02*
D03*
Y55118D02*
D03*
Y51181D02*
D03*
Y47244D02*
D03*
Y43307D02*
D03*
X39764Y145669D02*
D03*
X18110Y126772D02*
D03*
Y122835D02*
D03*
Y118898D02*
D03*
Y114961D02*
D03*
Y111024D02*
D03*
Y107087D02*
D03*
Y103150D02*
D03*
Y99213D02*
D03*
Y95276D02*
D03*
Y91339D02*
D03*
X54724Y55905D02*
D03*
X50787D02*
D03*
X46850D02*
D03*
X42913D02*
D03*
X37795Y122835D02*
D03*
Y95276D02*
D03*
X54724Y51968D02*
D03*
X41732Y95276D02*
D03*
X87402Y70866D02*
D03*
X39370Y223622D02*
D03*
X22047Y91339D02*
D03*
X25984D02*
D03*
X22047Y95276D02*
D03*
X41732Y122835D02*
D03*
X105118Y98032D02*
D03*
X109055D02*
D03*
X101181D02*
D03*
X91732D02*
D03*
X95669D02*
D03*
X87795D02*
D03*
X78347D02*
D03*
X82284D02*
D03*
X74410D02*
D03*
X50787Y71653D02*
D03*
X29921Y91339D02*
D03*
X33858D02*
D03*
X37795D02*
D03*
X41732D02*
D03*
X22047Y126772D02*
D03*
X25984D02*
D03*
X29921D02*
D03*
X33858D02*
D03*
X22047Y122835D02*
D03*
X25984D02*
D03*
X29921D02*
D03*
X33858D02*
D03*
Y95276D02*
D03*
X29921D02*
D03*
X25984D02*
D03*
X22047Y118898D02*
D03*
Y99213D02*
D03*
Y103150D02*
D03*
Y114961D02*
D03*
Y111024D02*
D03*
Y107087D02*
D03*
X46850Y59842D02*
D03*
X42913D02*
D03*
X38976D02*
D03*
X19291Y75590D02*
D03*
Y79527D02*
D03*
Y71653D02*
D03*
Y67716D02*
D03*
X23228D02*
D03*
Y71653D02*
D03*
Y79527D02*
D03*
Y75590D02*
D03*
X54724Y59842D02*
D03*
Y63779D02*
D03*
Y67716D02*
D03*
Y71653D02*
D03*
Y75590D02*
D03*
X50787Y59842D02*
D03*
Y63779D02*
D03*
Y67716D02*
D03*
Y75590D02*
D03*
X67716Y43307D02*
D03*
Y59055D02*
D03*
Y62992D02*
D03*
Y66929D02*
D03*
Y70866D02*
D03*
Y51181D02*
D03*
Y55118D02*
D03*
Y47244D02*
D03*
X83465Y70866D02*
D03*
X91339D02*
D03*
X95276D02*
D03*
X75591D02*
D03*
X79528D02*
D03*
X71653D02*
D03*
Y43307D02*
D03*
X79528D02*
D03*
X75591D02*
D03*
X95276D02*
D03*
X91339D02*
D03*
X87402D02*
D03*
X83465D02*
D03*
X61024Y76772D02*
D03*
X68898D02*
D03*
X64961D02*
D03*
X74410D02*
D03*
X82284D02*
D03*
X78347D02*
D03*
X87795D02*
D03*
X95669D02*
D03*
X91732D02*
D03*
X101181D02*
D03*
X105118D02*
D03*
D36*
X266929Y203543D02*
D03*
X245669Y91339D02*
D03*
X211811Y198819D02*
D03*
X247244Y204331D02*
D03*
X295276Y277559D02*
D03*
X215300Y222987D02*
D03*
X311417Y198425D02*
D03*
X317830Y206412D02*
D03*
X304724Y275984D02*
D03*
X301325Y275881D02*
D03*
X212598Y24803D02*
D03*
X221654Y15748D02*
D03*
X212598Y6693D02*
D03*
X203543Y15748D02*
D03*
X206195Y9345D02*
D03*
X219001D02*
D03*
Y22151D02*
D03*
X206195D02*
D03*
X221654Y299213D02*
D03*
X212598Y290158D02*
D03*
X203543Y299213D02*
D03*
X212598Y308268D02*
D03*
X206195Y305615D02*
D03*
Y292810D02*
D03*
X219001D02*
D03*
Y305615D02*
D03*
X377953Y290158D02*
D03*
X368898Y299213D02*
D03*
X377953Y308268D02*
D03*
X387008Y299213D02*
D03*
X384356Y305615D02*
D03*
X371550D02*
D03*
Y292810D02*
D03*
X384356D02*
D03*
X368898Y15748D02*
D03*
X377953Y24803D02*
D03*
X387008Y15748D02*
D03*
X377953Y6693D02*
D03*
X384356Y9345D02*
D03*
Y22151D02*
D03*
X371550D02*
D03*
Y9345D02*
D03*
X222047Y227559D02*
D03*
X307874Y224409D02*
D03*
X329528Y205512D02*
D03*
X235433Y142126D02*
D03*
X225590Y216929D02*
D03*
X244488Y97244D02*
D03*
X70079Y203543D02*
D03*
X48819Y91339D02*
D03*
X14961Y198819D02*
D03*
X50394Y204331D02*
D03*
X98425Y277559D02*
D03*
X18449Y222987D02*
D03*
X114567Y198425D02*
D03*
X120979Y206412D02*
D03*
X107874Y275984D02*
D03*
X104475Y275881D02*
D03*
X15748Y24803D02*
D03*
X24803Y15748D02*
D03*
X15748Y6693D02*
D03*
X6693Y15748D02*
D03*
X9345Y9345D02*
D03*
X22151D02*
D03*
Y22151D02*
D03*
X9345D02*
D03*
X24803Y299213D02*
D03*
X15748Y290158D02*
D03*
X6693Y299213D02*
D03*
X15748Y308268D02*
D03*
X9345Y305615D02*
D03*
Y292810D02*
D03*
X22151D02*
D03*
Y305615D02*
D03*
X181102Y290158D02*
D03*
X172047Y299213D02*
D03*
X181102Y308268D02*
D03*
X190157Y299213D02*
D03*
X187505Y305615D02*
D03*
X174699D02*
D03*
Y292810D02*
D03*
X187505D02*
D03*
X172047Y15748D02*
D03*
X181102Y24803D02*
D03*
X190157Y15748D02*
D03*
X181102Y6693D02*
D03*
X187505Y9345D02*
D03*
Y22151D02*
D03*
X174699D02*
D03*
Y9345D02*
D03*
X25197Y227559D02*
D03*
X111024Y224409D02*
D03*
X132677Y205512D02*
D03*
X38583Y142126D02*
D03*
X28740Y216929D02*
D03*
X47638Y97244D02*
D03*
D37*
X248819Y224733D02*
D03*
X247676Y215195D02*
D03*
X276772Y198031D02*
D03*
X51968Y224733D02*
D03*
X50825Y215195D02*
D03*
X79922Y198031D02*
D03*
M02*
