G04*
G04 #@! TF.GenerationSoftware,Altium Limited,Altium Designer,20.0.10 (225)*
G04*
G04 Layer_Color=16711935*
%FSLAX25Y25*%
%MOIN*%
G70*
G01*
G75*
%ADD26C,0.11811*%
%ADD41R,0.13780X0.15748*%
%ADD43R,0.15748X0.13780*%
%ADD59R,0.11417X0.07087*%
%ADD60R,0.05118X0.04724*%
%ADD64R,0.04724X0.05118*%
%ADD70C,0.06787*%
%ADD71C,0.16535*%
%ADD72C,0.28347*%
%ADD73R,0.14567X0.06693*%
%ADD74R,0.06693X0.14567*%
%ADD75R,0.06693X0.16535*%
%ADD76C,0.06693*%
%ADD77C,0.09987*%
%ADD78O,0.11417X0.06299*%
%ADD79C,0.02756*%
%ADD80C,0.03543*%
%ADD81C,0.04724*%
%ADD82R,0.06693X0.05512*%
%ADD83R,0.06102X0.05118*%
%ADD84R,0.04724X0.03740*%
%ADD85R,0.03740X0.04724*%
%ADD86R,0.03740X0.04921*%
G04:AMPARAMS|DCode=87|XSize=19.68mil|YSize=33.47mil|CornerRadius=6.89mil|HoleSize=0mil|Usage=FLASHONLY|Rotation=90.000|XOffset=0mil|YOffset=0mil|HoleType=Round|Shape=RoundedRectangle|*
%AMROUNDEDRECTD87*
21,1,0.01968,0.01968,0,0,90.0*
21,1,0.00591,0.03347,0,0,90.0*
1,1,0.01378,0.00984,0.00295*
1,1,0.01378,0.00984,-0.00295*
1,1,0.01378,-0.00984,-0.00295*
1,1,0.01378,-0.00984,0.00295*
%
%ADD87ROUNDEDRECTD87*%
G04:AMPARAMS|DCode=88|XSize=19.68mil|YSize=33.47mil|CornerRadius=6.89mil|HoleSize=0mil|Usage=FLASHONLY|Rotation=180.000|XOffset=0mil|YOffset=0mil|HoleType=Round|Shape=RoundedRectangle|*
%AMROUNDEDRECTD88*
21,1,0.01968,0.01968,0,0,180.0*
21,1,0.00591,0.03347,0,0,180.0*
1,1,0.01378,-0.00295,0.00984*
1,1,0.01378,0.00295,0.00984*
1,1,0.01378,0.00295,-0.00984*
1,1,0.01378,-0.00295,-0.00984*
%
%ADD88ROUNDEDRECTD88*%
G04:AMPARAMS|DCode=89|XSize=76.77mil|YSize=116.14mil|CornerRadius=6.93mil|HoleSize=0mil|Usage=FLASHONLY|Rotation=180.000|XOffset=0mil|YOffset=0mil|HoleType=Round|Shape=RoundedRectangle|*
%AMROUNDEDRECTD89*
21,1,0.07677,0.10228,0,0,180.0*
21,1,0.06291,0.11614,0,0,180.0*
1,1,0.01386,-0.03146,0.05114*
1,1,0.01386,0.03146,0.05114*
1,1,0.01386,0.03146,-0.05114*
1,1,0.01386,-0.03146,-0.05114*
%
%ADD89ROUNDEDRECTD89*%
%ADD90R,0.11614X0.04724*%
%ADD91R,0.25984X0.22638*%
%ADD92R,0.09252X0.10433*%
%ADD93C,0.26378*%
G36*
X238260Y120371D02*
X238311Y120361D01*
X238360Y120345D01*
X238406Y120322D01*
X238449Y120293D01*
X238488Y120259D01*
X238522Y120220D01*
X238550Y120178D01*
X238573Y120131D01*
X238590Y120082D01*
X238600Y120032D01*
X238603Y119980D01*
Y118450D01*
X239882D01*
X239933Y118446D01*
X239984Y118436D01*
X240033Y118420D01*
X240079Y118397D01*
X240122Y118368D01*
X240161Y118334D01*
X240195Y118295D01*
X240224Y118252D01*
X240246Y118206D01*
X240263Y118157D01*
X240273Y118107D01*
X240276Y118055D01*
Y100079D01*
X240273Y100027D01*
X240263Y99977D01*
X240246Y99928D01*
X240224Y99882D01*
X240195Y99839D01*
X240161Y99800D01*
X240122Y99766D01*
X240079Y99737D01*
X240033Y99714D01*
X239984Y99698D01*
X239933Y99688D01*
X239882Y99684D01*
X238603D01*
Y98130D01*
X238600Y98078D01*
X238590Y98028D01*
X238573Y97979D01*
X238550Y97933D01*
X238522Y97890D01*
X238488Y97851D01*
X238449Y97817D01*
X238406Y97788D01*
X238360Y97765D01*
X238311Y97749D01*
X238260Y97739D01*
X238209Y97735D01*
X234646D01*
X234594Y97739D01*
X234544Y97749D01*
X234495Y97765D01*
X234448Y97788D01*
X234405Y97817D01*
X234367Y97851D01*
X234333Y97890D01*
X234304Y97933D01*
X234281Y97979D01*
X234265Y98028D01*
X234255Y98078D01*
X234251Y98130D01*
Y99684D01*
X222047D01*
X221996Y99688D01*
X221945Y99698D01*
X221896Y99714D01*
X221850Y99737D01*
X221807Y99766D01*
X221768Y99800D01*
X221734Y99839D01*
X221706Y99882D01*
X221683Y99928D01*
X221666Y99977D01*
X221656Y100027D01*
X221653Y100079D01*
Y103032D01*
X221656Y103083D01*
X221666Y103134D01*
X221683Y103182D01*
X221706Y103229D01*
X221734Y103272D01*
X221768Y103311D01*
X221807Y103345D01*
X221850Y103373D01*
X221896Y103396D01*
X221945Y103413D01*
X221996Y103423D01*
X222047Y103426D01*
X223523D01*
Y114684D01*
X222047D01*
X221996Y114688D01*
X221945Y114698D01*
X221896Y114714D01*
X221850Y114737D01*
X221807Y114766D01*
X221768Y114800D01*
X221734Y114839D01*
X221706Y114882D01*
X221683Y114928D01*
X221666Y114977D01*
X221656Y115027D01*
X221653Y115079D01*
Y118032D01*
X221656Y118083D01*
X221666Y118134D01*
X221683Y118183D01*
X221706Y118229D01*
X221734Y118272D01*
X221768Y118310D01*
X221807Y118344D01*
X221850Y118373D01*
X221896Y118396D01*
X221945Y118413D01*
X221996Y118423D01*
X222047Y118426D01*
X234251D01*
Y119980D01*
X234255Y120032D01*
X234265Y120082D01*
X234281Y120131D01*
X234304Y120178D01*
X234333Y120220D01*
X234367Y120259D01*
X234405Y120293D01*
X234448Y120322D01*
X234495Y120345D01*
X234544Y120361D01*
X234594Y120371D01*
X234646Y120375D01*
X238209D01*
X238260Y120371D01*
D02*
G37*
G36*
X41410D02*
X41460Y120361D01*
X41509Y120345D01*
X41556Y120322D01*
X41598Y120293D01*
X41637Y120259D01*
X41671Y120220D01*
X41700Y120178D01*
X41723Y120131D01*
X41739Y120082D01*
X41749Y120032D01*
X41753Y119980D01*
Y118450D01*
X43031D01*
X43083Y118446D01*
X43134Y118436D01*
X43183Y118420D01*
X43229Y118397D01*
X43272Y118368D01*
X43310Y118334D01*
X43345Y118295D01*
X43373Y118252D01*
X43396Y118206D01*
X43413Y118157D01*
X43423Y118107D01*
X43426Y118055D01*
Y100079D01*
X43423Y100027D01*
X43413Y99977D01*
X43396Y99928D01*
X43373Y99882D01*
X43345Y99839D01*
X43310Y99800D01*
X43272Y99766D01*
X43229Y99737D01*
X43183Y99714D01*
X43134Y99698D01*
X43083Y99688D01*
X43031Y99684D01*
X41753D01*
Y98130D01*
X41749Y98078D01*
X41739Y98028D01*
X41723Y97979D01*
X41700Y97933D01*
X41671Y97890D01*
X41637Y97851D01*
X41598Y97817D01*
X41556Y97788D01*
X41509Y97765D01*
X41460Y97749D01*
X41410Y97739D01*
X41358Y97735D01*
X37795D01*
X37744Y97739D01*
X37693Y97749D01*
X37644Y97765D01*
X37598Y97788D01*
X37555Y97817D01*
X37516Y97851D01*
X37482Y97890D01*
X37454Y97933D01*
X37431Y97979D01*
X37414Y98028D01*
X37404Y98078D01*
X37401Y98130D01*
Y99684D01*
X25197D01*
X25145Y99688D01*
X25095Y99698D01*
X25046Y99714D01*
X25000Y99737D01*
X24957Y99766D01*
X24918Y99800D01*
X24884Y99839D01*
X24855Y99882D01*
X24832Y99928D01*
X24816Y99977D01*
X24806Y100027D01*
X24802Y100079D01*
Y103032D01*
X24806Y103083D01*
X24816Y103134D01*
X24832Y103182D01*
X24855Y103229D01*
X24884Y103272D01*
X24918Y103311D01*
X24957Y103345D01*
X25000Y103373D01*
X25046Y103396D01*
X25095Y103413D01*
X25145Y103423D01*
X25197Y103426D01*
X26672D01*
Y114684D01*
X25197D01*
X25145Y114688D01*
X25095Y114698D01*
X25046Y114714D01*
X25000Y114737D01*
X24957Y114766D01*
X24918Y114800D01*
X24884Y114839D01*
X24855Y114882D01*
X24832Y114928D01*
X24816Y114977D01*
X24806Y115027D01*
X24802Y115079D01*
Y118032D01*
X24806Y118083D01*
X24816Y118134D01*
X24832Y118183D01*
X24855Y118229D01*
X24884Y118272D01*
X24918Y118310D01*
X24957Y118344D01*
X25000Y118373D01*
X25046Y118396D01*
X25095Y118413D01*
X25145Y118423D01*
X25197Y118426D01*
X37401D01*
Y119980D01*
X37404Y120032D01*
X37414Y120082D01*
X37431Y120131D01*
X37454Y120178D01*
X37482Y120220D01*
X37516Y120259D01*
X37555Y120293D01*
X37598Y120322D01*
X37644Y120345D01*
X37693Y120361D01*
X37744Y120371D01*
X37795Y120375D01*
X41358D01*
X41410Y120371D01*
D02*
G37*
G36*
X242886Y81218D02*
X242937Y81208D01*
X242986Y81191D01*
X243032Y81168D01*
X243075Y81140D01*
X243114Y81106D01*
X243148Y81067D01*
X243176Y81024D01*
X243199Y80978D01*
X243216Y80929D01*
X243226Y80878D01*
X243229Y80827D01*
Y79548D01*
X244783D01*
X244835Y79545D01*
X244886Y79535D01*
X244935Y79518D01*
X244981Y79495D01*
X245024Y79466D01*
X245062Y79432D01*
X245096Y79394D01*
X245125Y79351D01*
X245148Y79304D01*
X245165Y79256D01*
X245175Y79205D01*
X245178Y79154D01*
Y75590D01*
X245175Y75539D01*
X245165Y75488D01*
X245148Y75440D01*
X245125Y75393D01*
X245096Y75350D01*
X245062Y75312D01*
X245024Y75278D01*
X244981Y75249D01*
X244935Y75226D01*
X244886Y75209D01*
X244835Y75199D01*
X244783Y75196D01*
X243229D01*
Y62992D01*
X243226Y62941D01*
X243216Y62890D01*
X243199Y62841D01*
X243176Y62795D01*
X243148Y62752D01*
X243114Y62713D01*
X243075Y62679D01*
X243032Y62650D01*
X242986Y62628D01*
X242937Y62611D01*
X242886Y62601D01*
X242835Y62598D01*
X239882D01*
X239830Y62601D01*
X239780Y62611D01*
X239731Y62628D01*
X239685Y62650D01*
X239642Y62679D01*
X239603Y62713D01*
X239569Y62752D01*
X239540Y62795D01*
X239517Y62841D01*
X239501Y62890D01*
X239491Y62941D01*
X239487Y62992D01*
Y64468D01*
X228229D01*
Y62992D01*
X228226Y62941D01*
X228216Y62890D01*
X228199Y62841D01*
X228176Y62795D01*
X228148Y62752D01*
X228114Y62713D01*
X228075Y62679D01*
X228032Y62650D01*
X227986Y62628D01*
X227937Y62611D01*
X227886Y62601D01*
X227835Y62598D01*
X224882D01*
X224830Y62601D01*
X224780Y62611D01*
X224731Y62628D01*
X224685Y62650D01*
X224642Y62679D01*
X224603Y62713D01*
X224569Y62752D01*
X224540Y62795D01*
X224517Y62841D01*
X224501Y62890D01*
X224491Y62941D01*
X224487Y62992D01*
Y75196D01*
X222933D01*
X222882Y75199D01*
X222831Y75209D01*
X222782Y75226D01*
X222736Y75249D01*
X222693Y75278D01*
X222654Y75312D01*
X222620Y75350D01*
X222591Y75393D01*
X222569Y75440D01*
X222552Y75488D01*
X222542Y75539D01*
X222538Y75590D01*
Y79154D01*
X222542Y79205D01*
X222552Y79256D01*
X222569Y79304D01*
X222591Y79351D01*
X222620Y79394D01*
X222654Y79432D01*
X222693Y79466D01*
X222736Y79495D01*
X222782Y79518D01*
X222831Y79535D01*
X222882Y79545D01*
X222933Y79548D01*
X224464D01*
Y80827D01*
X224467Y80878D01*
X224477Y80929D01*
X224494Y80978D01*
X224517Y81024D01*
X224545Y81067D01*
X224579Y81106D01*
X224618Y81140D01*
X224661Y81168D01*
X224707Y81191D01*
X224756Y81208D01*
X224807Y81218D01*
X224858Y81221D01*
X242835D01*
X242886Y81218D01*
D02*
G37*
G36*
X46036D02*
X46086Y81208D01*
X46135Y81191D01*
X46181Y81168D01*
X46224Y81140D01*
X46263Y81106D01*
X46297Y81067D01*
X46326Y81024D01*
X46349Y80978D01*
X46365Y80929D01*
X46375Y80878D01*
X46379Y80827D01*
Y79548D01*
X47933D01*
X47985Y79545D01*
X48035Y79535D01*
X48084Y79518D01*
X48130Y79495D01*
X48173Y79466D01*
X48212Y79432D01*
X48246Y79394D01*
X48275Y79351D01*
X48298Y79304D01*
X48314Y79256D01*
X48324Y79205D01*
X48328Y79154D01*
Y75590D01*
X48324Y75539D01*
X48314Y75488D01*
X48298Y75440D01*
X48275Y75393D01*
X48246Y75350D01*
X48212Y75312D01*
X48173Y75278D01*
X48130Y75249D01*
X48084Y75226D01*
X48035Y75209D01*
X47985Y75199D01*
X47933Y75196D01*
X46379D01*
Y62992D01*
X46375Y62941D01*
X46365Y62890D01*
X46349Y62841D01*
X46326Y62795D01*
X46297Y62752D01*
X46263Y62713D01*
X46224Y62679D01*
X46181Y62650D01*
X46135Y62628D01*
X46086Y62611D01*
X46036Y62601D01*
X45984Y62598D01*
X43031D01*
X42980Y62601D01*
X42929Y62611D01*
X42880Y62628D01*
X42834Y62650D01*
X42791Y62679D01*
X42753Y62713D01*
X42718Y62752D01*
X42690Y62795D01*
X42667Y62841D01*
X42650Y62890D01*
X42640Y62941D01*
X42637Y62992D01*
Y64468D01*
X31379D01*
Y62992D01*
X31375Y62941D01*
X31365Y62890D01*
X31349Y62841D01*
X31326Y62795D01*
X31297Y62752D01*
X31263Y62713D01*
X31224Y62679D01*
X31181Y62650D01*
X31135Y62628D01*
X31086Y62611D01*
X31036Y62601D01*
X30984Y62598D01*
X28032D01*
X27980Y62601D01*
X27929Y62611D01*
X27880Y62628D01*
X27834Y62650D01*
X27791Y62679D01*
X27753Y62713D01*
X27718Y62752D01*
X27690Y62795D01*
X27667Y62841D01*
X27650Y62890D01*
X27640Y62941D01*
X27637Y62992D01*
Y75196D01*
X26083D01*
X26031Y75199D01*
X25981Y75209D01*
X25932Y75226D01*
X25885Y75249D01*
X25842Y75278D01*
X25804Y75312D01*
X25770Y75350D01*
X25741Y75393D01*
X25718Y75440D01*
X25702Y75488D01*
X25692Y75539D01*
X25688Y75590D01*
Y79154D01*
X25692Y79205D01*
X25702Y79256D01*
X25718Y79304D01*
X25741Y79351D01*
X25770Y79394D01*
X25804Y79432D01*
X25842Y79466D01*
X25885Y79495D01*
X25932Y79518D01*
X25981Y79535D01*
X26031Y79545D01*
X26083Y79548D01*
X27613D01*
Y80827D01*
X27617Y80878D01*
X27627Y80929D01*
X27643Y80978D01*
X27666Y81024D01*
X27695Y81067D01*
X27729Y81106D01*
X27768Y81140D01*
X27811Y81168D01*
X27857Y81191D01*
X27906Y81208D01*
X27956Y81218D01*
X28008Y81221D01*
X45984D01*
X46036Y81218D01*
D02*
G37*
D26*
X375197Y232283D02*
D03*
Y200787D02*
D03*
Y169291D02*
D03*
X178347Y232283D02*
D03*
Y200787D02*
D03*
Y169291D02*
D03*
D41*
X231890Y109055D02*
D03*
X35039D02*
D03*
D43*
X233858Y72835D02*
D03*
X37008D02*
D03*
D59*
X261811Y92913D02*
D03*
Y81890D02*
D03*
X275197Y92913D02*
D03*
Y81890D02*
D03*
X288583Y92913D02*
D03*
Y81890D02*
D03*
X301969Y92913D02*
D03*
Y81890D02*
D03*
X64961Y92913D02*
D03*
Y81890D02*
D03*
X78347Y92913D02*
D03*
Y81890D02*
D03*
X91732Y92913D02*
D03*
Y81890D02*
D03*
X105118Y92913D02*
D03*
Y81890D02*
D03*
D60*
X254724Y197047D02*
D03*
Y203740D02*
D03*
X308661Y210827D02*
D03*
Y217520D02*
D03*
X315748Y217520D02*
D03*
Y210827D02*
D03*
X254724Y217126D02*
D03*
Y210433D02*
D03*
X261811Y210433D02*
D03*
Y217126D02*
D03*
X210236Y225787D02*
D03*
Y219094D02*
D03*
X272047Y202953D02*
D03*
Y196260D02*
D03*
X261811Y197047D02*
D03*
Y203740D02*
D03*
X253937Y246260D02*
D03*
Y239567D02*
D03*
X268110Y246260D02*
D03*
Y239567D02*
D03*
X219685Y240354D02*
D03*
Y247047D02*
D03*
X268898Y230906D02*
D03*
Y224213D02*
D03*
X261024Y239567D02*
D03*
Y246260D02*
D03*
X251575Y84055D02*
D03*
Y90748D02*
D03*
X57874Y197047D02*
D03*
Y203740D02*
D03*
X111811Y210827D02*
D03*
Y217520D02*
D03*
X118898Y217520D02*
D03*
Y210827D02*
D03*
X57874Y217126D02*
D03*
Y210433D02*
D03*
X64961Y210433D02*
D03*
Y217126D02*
D03*
X13386Y225787D02*
D03*
Y219094D02*
D03*
X75197Y202953D02*
D03*
Y196260D02*
D03*
X64961Y197047D02*
D03*
Y203740D02*
D03*
X57087Y246260D02*
D03*
Y239567D02*
D03*
X71260Y246260D02*
D03*
Y239567D02*
D03*
X22835Y240354D02*
D03*
Y247047D02*
D03*
X72047Y230906D02*
D03*
Y224213D02*
D03*
X64173Y239567D02*
D03*
Y246260D02*
D03*
X54724Y84055D02*
D03*
Y90748D02*
D03*
D64*
X266339Y291339D02*
D03*
X273031D02*
D03*
X339173Y38189D02*
D03*
X345866D02*
D03*
X222244Y255512D02*
D03*
X228937D02*
D03*
X254921Y231102D02*
D03*
X261614D02*
D03*
X268701Y209842D02*
D03*
X275394D02*
D03*
X239567Y190157D02*
D03*
X232874D02*
D03*
X226969Y245669D02*
D03*
X233661D02*
D03*
X322638Y210630D02*
D03*
X329331D02*
D03*
X275394Y217323D02*
D03*
X268701D02*
D03*
X254921Y224016D02*
D03*
X261614D02*
D03*
X239567Y197244D02*
D03*
X232874D02*
D03*
X218701Y233071D02*
D03*
X212008D02*
D03*
X226969Y238583D02*
D03*
X233661D02*
D03*
X69488Y291339D02*
D03*
X76181D02*
D03*
X142323Y38189D02*
D03*
X149016D02*
D03*
X25394Y255512D02*
D03*
X32087D02*
D03*
X58071Y231102D02*
D03*
X64764D02*
D03*
X71850Y209842D02*
D03*
X78543D02*
D03*
X42717Y190157D02*
D03*
X36024D02*
D03*
X30118Y245669D02*
D03*
X36811D02*
D03*
X125787Y210630D02*
D03*
X132480D02*
D03*
X78543Y217323D02*
D03*
X71850D02*
D03*
X58071Y224016D02*
D03*
X64764D02*
D03*
X42717Y197244D02*
D03*
X36024D02*
D03*
X21850Y233071D02*
D03*
X15157D02*
D03*
X30118Y238583D02*
D03*
X36811D02*
D03*
D70*
X358189Y232283D02*
D03*
X346378D02*
D03*
X358189Y200787D02*
D03*
X346378D02*
D03*
X358189Y169291D02*
D03*
X346378D02*
D03*
X239276Y291339D02*
D03*
X351276D02*
D03*
X161339Y232283D02*
D03*
X149528D02*
D03*
X161339Y200787D02*
D03*
X149528D02*
D03*
X161339Y169291D02*
D03*
X149528D02*
D03*
X42425Y291339D02*
D03*
X154425D02*
D03*
D71*
X328740Y96063D02*
D03*
Y124409D02*
D03*
X131890Y96063D02*
D03*
Y124409D02*
D03*
D72*
X212598Y15748D02*
D03*
Y299213D02*
D03*
X377953D02*
D03*
Y15748D02*
D03*
X15748D02*
D03*
Y299213D02*
D03*
X181102D02*
D03*
Y15748D02*
D03*
D73*
X350787Y71653D02*
D03*
X153937D02*
D03*
D74*
X362598Y53150D02*
D03*
X165748D02*
D03*
D75*
X338976D02*
D03*
X142126D02*
D03*
D76*
X287402Y180512D02*
D03*
Y194291D02*
D03*
X246063Y26575D02*
D03*
Y12795D02*
D03*
X281496Y26575D02*
D03*
Y12795D02*
D03*
X250276Y281339D02*
D03*
X254276Y274339D02*
D03*
X258276Y281339D02*
D03*
X262276Y274339D02*
D03*
X266276Y281339D02*
D03*
X270276Y274339D02*
D03*
X274276Y281339D02*
D03*
X278276Y274339D02*
D03*
X237276Y255339D02*
D03*
X246276D02*
D03*
X282276D02*
D03*
X291276D02*
D03*
X312276Y281339D02*
D03*
X316276Y274339D02*
D03*
X320276Y281339D02*
D03*
X324276Y274339D02*
D03*
X328276Y281339D02*
D03*
X332276Y274339D02*
D03*
X336276Y281339D02*
D03*
X340276Y274339D02*
D03*
X299276Y255339D02*
D03*
X308276D02*
D03*
X344276D02*
D03*
X353276D02*
D03*
X90551Y180512D02*
D03*
Y194291D02*
D03*
X49213Y26575D02*
D03*
Y12795D02*
D03*
X84646Y26575D02*
D03*
Y12795D02*
D03*
X53425Y281339D02*
D03*
X57425Y274339D02*
D03*
X61425Y281339D02*
D03*
X65425Y274339D02*
D03*
X69425Y281339D02*
D03*
X73425Y274339D02*
D03*
X77425Y281339D02*
D03*
X81425Y274339D02*
D03*
X40425Y255339D02*
D03*
X49425D02*
D03*
X85425D02*
D03*
X94425D02*
D03*
X115425Y281339D02*
D03*
X119425Y274339D02*
D03*
X123425Y281339D02*
D03*
X127425Y274339D02*
D03*
X131425Y281339D02*
D03*
X135425Y274339D02*
D03*
X139425Y281339D02*
D03*
X143425Y274339D02*
D03*
X102425Y255339D02*
D03*
X111425D02*
D03*
X147425D02*
D03*
X156425D02*
D03*
D77*
X232276Y277839D02*
D03*
X358276D02*
D03*
X35425D02*
D03*
X161425D02*
D03*
D78*
X352362Y83661D02*
D03*
Y136811D02*
D03*
X155512Y83661D02*
D03*
Y136811D02*
D03*
D79*
X233858Y219291D02*
D03*
X236221Y214961D02*
D03*
Y223622D02*
D03*
X37008Y219291D02*
D03*
X39370Y214961D02*
D03*
Y223622D02*
D03*
D80*
X245669Y91339D02*
D03*
X244488Y97244D02*
D03*
X48819Y91339D02*
D03*
X47638Y97244D02*
D03*
D81*
X276378Y231890D02*
D03*
Y238583D02*
D03*
X205906Y253150D02*
D03*
X276378Y245276D02*
D03*
X212598Y253150D02*
D03*
X79528Y231890D02*
D03*
Y238583D02*
D03*
X9055Y253150D02*
D03*
X79528Y245276D02*
D03*
X15748Y253150D02*
D03*
D82*
X218898Y213583D02*
D03*
Y206102D02*
D03*
X22047Y213583D02*
D03*
Y206102D02*
D03*
D83*
X234941Y126378D02*
D03*
X246161D02*
D03*
X38091D02*
D03*
X49311D02*
D03*
D84*
X245650Y101555D02*
D03*
Y106555D02*
D03*
Y116555D02*
D03*
Y111555D02*
D03*
X48799Y101555D02*
D03*
Y106555D02*
D03*
Y116555D02*
D03*
Y111555D02*
D03*
D85*
X241358Y86594D02*
D03*
X236358D02*
D03*
X226358D02*
D03*
X231358D02*
D03*
X44508D02*
D03*
X39508D02*
D03*
X29508D02*
D03*
X34508D02*
D03*
D86*
X209842Y203248D02*
D03*
Y211713D02*
D03*
X12992Y203248D02*
D03*
Y211713D02*
D03*
D87*
X242717Y226181D02*
D03*
Y224213D02*
D03*
Y222244D02*
D03*
Y220276D02*
D03*
Y218307D02*
D03*
Y216339D02*
D03*
Y214370D02*
D03*
Y212402D02*
D03*
X229724D02*
D03*
Y214370D02*
D03*
Y216339D02*
D03*
Y218307D02*
D03*
Y220276D02*
D03*
Y222244D02*
D03*
Y224213D02*
D03*
Y226181D02*
D03*
X45866D02*
D03*
Y224213D02*
D03*
Y222244D02*
D03*
Y220276D02*
D03*
Y218307D02*
D03*
Y216339D02*
D03*
Y214370D02*
D03*
Y212402D02*
D03*
X32874D02*
D03*
Y214370D02*
D03*
Y216339D02*
D03*
Y218307D02*
D03*
Y220276D02*
D03*
Y222244D02*
D03*
Y224213D02*
D03*
Y226181D02*
D03*
D88*
X239173Y210827D02*
D03*
X233268D02*
D03*
Y227756D02*
D03*
X239173D02*
D03*
X42323Y210827D02*
D03*
X36417D02*
D03*
Y227756D02*
D03*
X42323D02*
D03*
D89*
X236221Y219291D02*
D03*
X39370D02*
D03*
D90*
X305906Y66102D02*
D03*
Y48071D02*
D03*
X109055Y66102D02*
D03*
Y48071D02*
D03*
D91*
X280118Y57087D02*
D03*
X83268D02*
D03*
D92*
X263779Y29823D02*
D03*
Y17421D02*
D03*
X66929Y29823D02*
D03*
Y17421D02*
D03*
D93*
X214567Y49213D02*
D03*
X293307Y127953D02*
D03*
X17717Y49213D02*
D03*
X96457Y127953D02*
D03*
M02*
