G04*
G04 #@! TF.GenerationSoftware,Altium Limited,Altium Designer,20.0.10 (225)*
G04*
G04 Layer_Physical_Order=2*
G04 Layer_Color=16711680*
%FSLAX25Y25*%
%MOIN*%
G70*
G01*
G75*
%ADD10C,0.00787*%
%ADD11R,0.10630X0.06299*%
%ADD12R,0.04331X0.03937*%
%ADD16R,0.03937X0.04331*%
%ADD22C,0.01968*%
%ADD23C,0.01000*%
%ADD25C,0.06000*%
%ADD26C,0.11811*%
%ADD27C,0.15748*%
%ADD28C,0.27559*%
%ADD29R,0.13780X0.05906*%
%ADD30R,0.05906X0.13780*%
%ADD31R,0.05906X0.15748*%
%ADD32C,0.05906*%
%ADD33C,0.09200*%
%ADD34O,0.10630X0.05512*%
%ADD35C,0.01968*%
%ADD36C,0.02756*%
%ADD37C,0.02799*%
%ADD38C,0.03937*%
%ADD39R,0.05906X0.04724*%
%ADD40R,0.05315X0.04331*%
%ADD41R,0.13780X0.15748*%
%ADD42R,0.03937X0.02953*%
%ADD43R,0.15748X0.13780*%
%ADD44R,0.02953X0.03937*%
%ADD45R,0.02953X0.04134*%
G04:AMPARAMS|DCode=46|XSize=9.84mil|YSize=23.62mil|CornerRadius=1.97mil|HoleSize=0mil|Usage=FLASHONLY|Rotation=90.000|XOffset=0mil|YOffset=0mil|HoleType=Round|Shape=RoundedRectangle|*
%AMROUNDEDRECTD46*
21,1,0.00984,0.01968,0,0,90.0*
21,1,0.00591,0.02362,0,0,90.0*
1,1,0.00394,0.00984,0.00295*
1,1,0.00394,0.00984,-0.00295*
1,1,0.00394,-0.00984,-0.00295*
1,1,0.00394,-0.00984,0.00295*
%
%ADD46ROUNDEDRECTD46*%
G04:AMPARAMS|DCode=47|XSize=9.84mil|YSize=23.62mil|CornerRadius=1.97mil|HoleSize=0mil|Usage=FLASHONLY|Rotation=180.000|XOffset=0mil|YOffset=0mil|HoleType=Round|Shape=RoundedRectangle|*
%AMROUNDEDRECTD47*
21,1,0.00984,0.01968,0,0,180.0*
21,1,0.00591,0.02362,0,0,180.0*
1,1,0.00394,-0.00295,0.00984*
1,1,0.00394,0.00295,0.00984*
1,1,0.00394,0.00295,-0.00984*
1,1,0.00394,-0.00295,-0.00984*
%
%ADD47ROUNDEDRECTD47*%
G04:AMPARAMS|DCode=48|XSize=66.93mil|YSize=106.3mil|CornerRadius=2.01mil|HoleSize=0mil|Usage=FLASHONLY|Rotation=180.000|XOffset=0mil|YOffset=0mil|HoleType=Round|Shape=RoundedRectangle|*
%AMROUNDEDRECTD48*
21,1,0.06693,0.10228,0,0,180.0*
21,1,0.06291,0.10630,0,0,180.0*
1,1,0.00402,-0.03146,0.05114*
1,1,0.00402,0.03146,0.05114*
1,1,0.00402,0.03146,-0.05114*
1,1,0.00402,-0.03146,-0.05114*
%
%ADD48ROUNDEDRECTD48*%
%ADD49O,0.01968X0.00787*%
%ADD50R,0.10827X0.03937*%
%ADD51R,0.25197X0.21850*%
%ADD52R,0.08465X0.09646*%
%ADD53C,0.03937*%
%ADD54C,0.25591*%
G36*
X392095Y1606D02*
X198456D01*
Y313355D01*
X392095Y313355D01*
Y1606D01*
D02*
G37*
G36*
X195245D02*
X1606D01*
Y313355D01*
X195245Y313355D01*
Y1606D01*
D02*
G37*
%LPC*%
G36*
X351276Y298561D02*
X349867Y298422D01*
X348512Y298011D01*
X347263Y297344D01*
X346169Y296445D01*
X345271Y295351D01*
X344603Y294102D01*
X344192Y292748D01*
X344053Y291339D01*
X344192Y289930D01*
X344603Y288575D01*
X345271Y287326D01*
X346169Y286232D01*
X347263Y285334D01*
X348512Y284666D01*
X349867Y284255D01*
X351276Y284116D01*
X352685Y284255D01*
X354039Y284666D01*
X355288Y285334D01*
X356382Y286232D01*
X357281Y287326D01*
X357948Y288575D01*
X358359Y289930D01*
X358498Y291339D01*
X358359Y292748D01*
X357948Y294102D01*
X357281Y295351D01*
X356382Y296445D01*
X355288Y297344D01*
X354039Y298011D01*
X352685Y298422D01*
X351276Y298561D01*
D02*
G37*
G36*
X239276D02*
X237867Y298422D01*
X236512Y298011D01*
X235263Y297344D01*
X234169Y296445D01*
X233271Y295351D01*
X232603Y294102D01*
X232192Y292748D01*
X232053Y291339D01*
X232192Y289930D01*
X232603Y288575D01*
X233271Y287326D01*
X234169Y286232D01*
X235263Y285334D01*
X236512Y284666D01*
X237867Y284255D01*
X239276Y284116D01*
X240685Y284255D01*
X242039Y284666D01*
X243288Y285334D01*
X244382Y286232D01*
X245281Y287326D01*
X245948Y288575D01*
X246359Y289930D01*
X246498Y291339D01*
X246359Y292748D01*
X245948Y294102D01*
X245281Y295351D01*
X244382Y296445D01*
X243288Y297344D01*
X242039Y298011D01*
X240685Y298422D01*
X239276Y298561D01*
D02*
G37*
G36*
X328276Y285111D02*
X327299Y284982D01*
X326389Y284606D01*
X325608Y284006D01*
X325009Y283225D01*
X324632Y282315D01*
X324503Y281339D01*
X324632Y280362D01*
X325009Y279452D01*
X325219Y279178D01*
X324580Y278071D01*
X324276Y278111D01*
X323299Y277982D01*
X322389Y277606D01*
X321608Y277006D01*
X321009Y276225D01*
X320915Y275998D01*
X319636D01*
X319543Y276225D01*
X318943Y277006D01*
X318162Y277606D01*
X317252Y277982D01*
X316276Y278111D01*
X315971Y278071D01*
X315332Y279178D01*
X315543Y279452D01*
X315919Y280362D01*
X316048Y281339D01*
X315919Y282315D01*
X315543Y283225D01*
X314943Y284006D01*
X314162Y284606D01*
X313252Y284982D01*
X312276Y285111D01*
X311299Y284982D01*
X310389Y284606D01*
X309608Y284006D01*
X309009Y283225D01*
X308632Y282315D01*
X308503Y281339D01*
X308632Y280362D01*
X308647Y280325D01*
X308033Y279707D01*
X307715Y279488D01*
X307337Y279563D01*
X305808D01*
X305716Y279582D01*
X305716Y279582D01*
X303180D01*
X303180Y279582D01*
X302719Y279490D01*
X302329Y279229D01*
X302329Y279229D01*
X301155Y278055D01*
X300480Y277921D01*
X299764Y277443D01*
X299583Y277172D01*
X298408Y276924D01*
X297457Y277692D01*
X297315Y278404D01*
X296837Y279120D01*
X296121Y279599D01*
X295276Y279767D01*
X294431Y279599D01*
X293714Y279120D01*
X293236Y278404D01*
X293068Y277559D01*
X293236Y276714D01*
X293714Y275998D01*
X294431Y275519D01*
X295276Y275351D01*
X295897Y275475D01*
X299859Y271513D01*
X300285Y271228D01*
X300787Y271128D01*
X309693D01*
X311760Y269060D01*
X312186Y268776D01*
X312689Y268676D01*
X326077D01*
X326580Y268776D01*
X327006Y269060D01*
X329107Y271162D01*
X329442Y271228D01*
X329839Y271494D01*
X330389Y271072D01*
X331299Y270695D01*
X332276Y270566D01*
X333252Y270695D01*
X334162Y271072D01*
X334943Y271671D01*
X335543Y272452D01*
X335919Y273362D01*
X336048Y274339D01*
X335919Y275315D01*
X335543Y276225D01*
X334943Y277006D01*
X334162Y277606D01*
X333252Y277982D01*
X332276Y278111D01*
X331971Y278071D01*
X331332Y279178D01*
X331543Y279452D01*
X331920Y280362D01*
X332048Y281339D01*
X331920Y282315D01*
X331543Y283225D01*
X330943Y284006D01*
X330162Y284606D01*
X329252Y284982D01*
X328276Y285111D01*
D02*
G37*
G36*
X269094Y294291D02*
X263583D01*
Y291519D01*
X263559Y291339D01*
Y283942D01*
X263009Y283225D01*
X262632Y282315D01*
X262503Y281339D01*
X262632Y280362D01*
X263009Y279452D01*
X263219Y279178D01*
X262580Y278071D01*
X262276Y278111D01*
X261299Y277982D01*
X260389Y277606D01*
X259608Y277006D01*
X259009Y276225D01*
X258915Y275998D01*
X257636D01*
X257543Y276225D01*
X256943Y277006D01*
X256162Y277606D01*
X255252Y277982D01*
X254276Y278111D01*
X253971Y278071D01*
X253332Y279178D01*
X253543Y279452D01*
X253920Y280362D01*
X254048Y281339D01*
X253920Y282315D01*
X253543Y283225D01*
X252943Y284006D01*
X252162Y284606D01*
X251252Y284982D01*
X250276Y285111D01*
X249299Y284982D01*
X248389Y284606D01*
X247608Y284006D01*
X247009Y283225D01*
X246632Y282315D01*
X246503Y281339D01*
X246632Y280362D01*
X247009Y279452D01*
X247608Y278671D01*
X248389Y278072D01*
X249299Y277695D01*
X250276Y277566D01*
X250580Y277606D01*
X251219Y276499D01*
X251009Y276225D01*
X250632Y275315D01*
X250503Y274339D01*
X250632Y273362D01*
X251009Y272452D01*
X251608Y271671D01*
X252389Y271072D01*
X253299Y270695D01*
X254276Y270566D01*
X255252Y270695D01*
X256162Y271072D01*
X256943Y271671D01*
X257543Y272452D01*
X257636Y272679D01*
X258915D01*
X259009Y272452D01*
X259608Y271671D01*
X260389Y271072D01*
X261299Y270695D01*
X262276Y270566D01*
X263252Y270695D01*
X264162Y271072D01*
X264943Y271671D01*
X265543Y272452D01*
X265636Y272679D01*
X266915D01*
X267009Y272452D01*
X267608Y271671D01*
X268389Y271072D01*
X269299Y270695D01*
X270276Y270566D01*
X271252Y270695D01*
X272162Y271072D01*
X272943Y271671D01*
X273543Y272452D01*
X273920Y273362D01*
X274048Y274339D01*
X273920Y275315D01*
X273543Y276225D01*
X272943Y277006D01*
X272162Y277606D01*
X271252Y277982D01*
X270276Y278111D01*
X269971Y278071D01*
X269332Y279178D01*
X269543Y279452D01*
X269919Y280362D01*
X270048Y281339D01*
X269919Y282315D01*
X269543Y283225D01*
X269118Y283778D01*
Y291339D01*
X269094Y291519D01*
Y294291D01*
D02*
G37*
G36*
X237276Y259111D02*
X236299Y258982D01*
X235389Y258606D01*
X234608Y258006D01*
X234009Y257225D01*
X233726Y256543D01*
X231693D01*
Y258465D01*
X226181D01*
Y252559D01*
X231693D01*
Y254134D01*
X233726D01*
X234009Y253452D01*
X234608Y252671D01*
X235389Y252072D01*
X236299Y251695D01*
X237276Y251566D01*
X238252Y251695D01*
X239162Y252072D01*
X239943Y252671D01*
X240543Y253452D01*
X240919Y254362D01*
X241048Y255339D01*
X240919Y256315D01*
X240543Y257225D01*
X239943Y258006D01*
X239162Y258606D01*
X238252Y258982D01*
X237276Y259111D01*
D02*
G37*
G36*
X308276D02*
X307299Y258982D01*
X306389Y258606D01*
X305608Y258006D01*
X305009Y257225D01*
X304632Y256315D01*
X304503Y255339D01*
X304632Y254362D01*
X305009Y253452D01*
X305608Y252671D01*
X306389Y252072D01*
X307299Y251695D01*
X308276Y251566D01*
X309252Y251695D01*
X310162Y252072D01*
X310943Y252671D01*
X311543Y253452D01*
X311919Y254362D01*
X312048Y255339D01*
X311919Y256315D01*
X311543Y257225D01*
X310943Y258006D01*
X310162Y258606D01*
X309252Y258982D01*
X308276Y259111D01*
D02*
G37*
G36*
X299276D02*
X298299Y258982D01*
X297389Y258606D01*
X296608Y258006D01*
X296009Y257225D01*
X295632Y256315D01*
X295503Y255339D01*
X295632Y254362D01*
X296009Y253452D01*
X296608Y252671D01*
X297389Y252072D01*
X298299Y251695D01*
X299276Y251566D01*
X300252Y251695D01*
X301162Y252072D01*
X301943Y252671D01*
X302543Y253452D01*
X302920Y254362D01*
X303048Y255339D01*
X302920Y256315D01*
X302543Y257225D01*
X301943Y258006D01*
X301162Y258606D01*
X300252Y258982D01*
X299276Y259111D01*
D02*
G37*
G36*
X246276D02*
X245299Y258982D01*
X244389Y258606D01*
X243608Y258006D01*
X243009Y257225D01*
X242632Y256315D01*
X242503Y255339D01*
X242632Y254362D01*
X243009Y253452D01*
X243608Y252671D01*
X244389Y252072D01*
X245299Y251695D01*
X246276Y251566D01*
X247252Y251695D01*
X248162Y252072D01*
X248943Y252671D01*
X249543Y253452D01*
X249920Y254362D01*
X250048Y255339D01*
X249920Y256315D01*
X249543Y257225D01*
X248943Y258006D01*
X248162Y258606D01*
X247252Y258982D01*
X246276Y259111D01*
D02*
G37*
G36*
X264951Y250426D02*
X264951Y250426D01*
X248870D01*
X248409Y250335D01*
X248018Y250074D01*
X244818Y246873D01*
X240059D01*
X239598Y246782D01*
X239208Y246521D01*
X238773Y246086D01*
X236417D01*
Y248622D01*
X230906D01*
Y242717D01*
X236417D01*
Y243678D01*
X237969D01*
Y229151D01*
X237951Y229124D01*
X237874Y228740D01*
Y226772D01*
X237951Y226388D01*
X238168Y226062D01*
X238494Y225845D01*
X238878Y225768D01*
X239469D01*
X239587Y225792D01*
X239904Y225818D01*
X239978Y225780D01*
X240805Y224892D01*
X240729Y224508D01*
Y223917D01*
X240805Y223533D01*
X241009Y223228D01*
X240805Y222923D01*
X240729Y222539D01*
Y221949D01*
X240805Y221565D01*
X241009Y221260D01*
X240805Y220955D01*
X240729Y220571D01*
Y219980D01*
X240805Y219596D01*
X241009Y219291D01*
X240805Y218986D01*
X240729Y218602D01*
Y218012D01*
X240805Y217628D01*
X241009Y217323D01*
X240805Y217018D01*
X240729Y216634D01*
Y216043D01*
X240805Y215659D01*
X241009Y215354D01*
X240805Y215049D01*
X240729Y214665D01*
Y214075D01*
X240805Y213691D01*
X241023Y213365D01*
X241348Y213148D01*
X241732Y213071D01*
X243701D01*
X244085Y213148D01*
X244112Y213166D01*
X244186D01*
X249570Y207782D01*
X249464Y206637D01*
X248403Y206161D01*
X248089Y206370D01*
X247244Y206539D01*
X246399Y206370D01*
X245683Y205892D01*
X245615Y205790D01*
X244169Y205565D01*
X240417Y209318D01*
Y209565D01*
X240472Y209842D01*
Y211811D01*
X240396Y212195D01*
X240178Y212521D01*
X239852Y212738D01*
X239469Y212815D01*
X238878D01*
X238494Y212738D01*
X238168Y212521D01*
X237951Y212195D01*
X237874Y211811D01*
Y209842D01*
X237951Y209458D01*
X238008Y209372D01*
Y208819D01*
X238008Y208819D01*
X238100Y208358D01*
X238361Y207967D01*
X238361Y207967D01*
X246746Y199583D01*
Y198116D01*
X246746Y198116D01*
X246837Y197655D01*
X247098Y197264D01*
X248133Y196230D01*
Y193718D01*
X248133Y193718D01*
X248225Y193257D01*
X248486Y192867D01*
X248486Y192867D01*
X250471Y190881D01*
X250862Y190620D01*
X251323Y190528D01*
X251323Y190528D01*
X262598D01*
X262598Y190528D01*
X263059Y190620D01*
X263450Y190881D01*
X267625Y195056D01*
X269094D01*
Y193504D01*
X275000D01*
Y195164D01*
X275327Y195451D01*
X276181Y195919D01*
X276772Y195801D01*
X277625Y195971D01*
X278349Y196454D01*
X278832Y197178D01*
X279002Y198031D01*
X278832Y198884D01*
X278349Y199608D01*
X277625Y200091D01*
X276772Y200261D01*
X276157Y200139D01*
X275343Y200597D01*
X275000Y200898D01*
Y205709D01*
X269315D01*
Y206890D01*
X271457D01*
Y212795D01*
X265945D01*
Y211637D01*
X264764D01*
Y213189D01*
X258858D01*
Y207677D01*
X264764D01*
Y209229D01*
X265945D01*
Y206890D01*
X265945D01*
X265735Y205959D01*
X264764Y206496D01*
Y206496D01*
X258858D01*
Y205194D01*
X258858Y205194D01*
X257761Y205719D01*
X257677Y205847D01*
Y206496D01*
X256531D01*
Y207677D01*
X257677D01*
Y213189D01*
X255101D01*
X255010Y213290D01*
X255488Y214370D01*
X257677D01*
Y215725D01*
X258858D01*
Y214370D01*
X264764D01*
Y215708D01*
X265945D01*
Y214370D01*
X271457D01*
Y220276D01*
X265945D01*
Y218117D01*
X264764D01*
Y219882D01*
X263015D01*
Y221063D01*
X264370D01*
Y222927D01*
X265945D01*
Y221457D01*
X271850D01*
Y223008D01*
X274213D01*
X274213Y223008D01*
X274674Y223100D01*
X275064Y223361D01*
X277229Y225526D01*
X277229Y225526D01*
X277490Y225917D01*
X277582Y226378D01*
X277582Y226378D01*
Y229406D01*
X277768Y229483D01*
X278344Y229924D01*
X278785Y230500D01*
X279063Y231170D01*
X279158Y231890D01*
X279063Y232609D01*
X278785Y233280D01*
X278344Y233855D01*
X277768Y234297D01*
X277281Y234499D01*
X277127Y234563D01*
X277097Y234645D01*
Y235827D01*
X277127Y235910D01*
X277190Y235936D01*
X277768Y236175D01*
X278344Y236617D01*
X278785Y237193D01*
X279063Y237863D01*
X279158Y238583D01*
X279063Y239302D01*
X278785Y239972D01*
X278344Y240548D01*
X277768Y240990D01*
X277281Y241192D01*
X277127Y241256D01*
X277097Y241338D01*
Y242520D01*
X277127Y242603D01*
X277190Y242629D01*
X277768Y242868D01*
X278344Y243310D01*
X278785Y243886D01*
X279063Y244556D01*
X279158Y245276D01*
X279063Y245995D01*
X278785Y246665D01*
X278344Y247241D01*
X277768Y247683D01*
X277097Y247961D01*
X276378Y248055D01*
X275658Y247961D01*
X274988Y247683D01*
X274412Y247241D01*
X273971Y246665D01*
X273894Y246480D01*
X271063D01*
Y249016D01*
X266861D01*
X265803Y250074D01*
X265803Y250074D01*
X265412Y250335D01*
X264951Y250426D01*
D02*
G37*
G36*
X212598Y255929D02*
X211879Y255835D01*
X211209Y255557D01*
X210633Y255115D01*
X210191Y254539D01*
X209913Y253869D01*
X209819Y253150D01*
X209913Y252430D01*
X210191Y251760D01*
X210633Y251184D01*
X210792Y251062D01*
Y247599D01*
X204028Y240835D01*
X203637Y240249D01*
X203499Y239558D01*
Y86427D01*
X203637Y85735D01*
X203922Y85309D01*
X203922Y82283D01*
X203922Y59326D01*
X203949Y59188D01*
X203971Y59048D01*
X203980Y59035D01*
X203983Y59019D01*
X204061Y58902D01*
X204135Y58781D01*
X204148Y58772D01*
X204157Y58759D01*
X204274Y58680D01*
X204388Y58597D01*
X204888Y58367D01*
X205026Y58334D01*
X205161Y58295D01*
X205177Y58297D01*
X205193Y58293D01*
X205332Y58316D01*
X205472Y58332D01*
X205486Y58340D01*
X205502Y58342D01*
X205623Y58416D01*
X205746Y58485D01*
X207032Y59584D01*
X208747Y60635D01*
X210606Y61405D01*
X212561Y61874D01*
X214567Y62032D01*
X216572Y61874D01*
X218528Y61405D01*
X220387Y60635D01*
X222102Y59584D01*
X223632Y58277D01*
X224938Y56748D01*
X225989Y55032D01*
X226759Y53174D01*
X227228Y51218D01*
X227391Y49150D01*
X227425Y49029D01*
X227450Y48905D01*
X227468Y48879D01*
X227476Y48848D01*
X227554Y48749D01*
X227624Y48645D01*
X227650Y48627D01*
X227670Y48602D01*
X227780Y48541D01*
X227884Y48471D01*
X227916Y48465D01*
X227943Y48449D01*
X228068Y48434D01*
X228192Y48410D01*
X233132D01*
X239355Y42187D01*
X239355Y25197D01*
X239416Y24890D01*
X239590Y24629D01*
X239590Y24629D01*
X243527Y20692D01*
X243787Y20518D01*
X244094Y20457D01*
X255906Y20457D01*
X255906Y20457D01*
X256213Y20518D01*
X256473Y20692D01*
X256473Y20692D01*
X258994Y23213D01*
X268565D01*
X271086Y20692D01*
X271346Y20518D01*
X271654Y20457D01*
X295260D01*
X295260Y19276D01*
X295260Y10630D01*
X295321Y10323D01*
X295495Y10062D01*
X295495Y10062D01*
X296677Y8881D01*
X296937Y8707D01*
X297244Y8646D01*
X301968D01*
X301968Y8646D01*
X302276Y8707D01*
X302536Y8881D01*
X312772Y19117D01*
X312947Y19378D01*
X313008Y19685D01*
Y50378D01*
X314189Y50378D01*
X324016Y50378D01*
X324323Y50439D01*
X324583Y50613D01*
X325371Y51401D01*
X325545Y51661D01*
X325606Y51968D01*
X325606Y56299D01*
X325606Y56299D01*
X325545Y56606D01*
X325371Y56867D01*
X312379Y69859D01*
X312118Y70033D01*
X311811Y70094D01*
X309071D01*
X309071Y75984D01*
X309071Y85827D01*
X309009Y86134D01*
X308835Y86395D01*
X308835Y86395D01*
X307654Y87576D01*
X307394Y87750D01*
X307087Y87811D01*
X248657Y87811D01*
X248068Y88114D01*
X247609Y88526D01*
X247476Y88738D01*
Y90144D01*
X247709Y90494D01*
X247877Y91339D01*
X247709Y92184D01*
X247230Y92900D01*
X246514Y93378D01*
X245823Y93516D01*
X244897Y94095D01*
X245320Y95171D01*
X245557Y95354D01*
X246049Y95683D01*
X246528Y96399D01*
X246623Y96878D01*
X246927Y97181D01*
X247319Y97768D01*
X247456Y98459D01*
Y99291D01*
X248406D01*
Y103819D01*
X243716D01*
X242535Y104851D01*
X242535Y133858D01*
X242535Y133858D01*
X242474Y134166D01*
X242300Y134426D01*
X239640Y137086D01*
X240844Y138290D01*
X241236Y138876D01*
X241373Y139567D01*
Y187205D01*
X242323D01*
Y193110D01*
X236811D01*
Y187205D01*
X237761D01*
Y144504D01*
X236579Y143964D01*
X236278Y144166D01*
X235866Y144248D01*
X235271Y144843D01*
Y173622D01*
X235133Y174313D01*
X234742Y174899D01*
X225616Y184025D01*
Y212297D01*
X225685Y212399D01*
X225822Y213090D01*
X225884Y213166D01*
X228329D01*
X228356Y213148D01*
X228740Y213071D01*
X230709D01*
X231093Y213148D01*
X231418Y213365D01*
X231636Y213691D01*
X231712Y214075D01*
Y214665D01*
X231636Y215049D01*
X231432Y215354D01*
X231636Y215659D01*
X231712Y216043D01*
Y216634D01*
X231636Y217018D01*
X231418Y217343D01*
X231093Y217561D01*
X230709Y217637D01*
X228740D01*
X228087Y217718D01*
X227401Y218118D01*
X227152Y218490D01*
X226435Y218969D01*
X225648Y219125D01*
X225487Y219367D01*
X225095Y220243D01*
X225892Y221040D01*
X228329D01*
X228356Y221022D01*
X228740Y220945D01*
X230709D01*
X231093Y221022D01*
X231418Y221239D01*
X231636Y221565D01*
X231712Y221949D01*
Y222539D01*
X231636Y222923D01*
X231432Y223228D01*
X231636Y223533D01*
X231712Y223917D01*
Y224508D01*
X231636Y224892D01*
X232488Y225743D01*
X232703Y225804D01*
X232854Y225792D01*
X232973Y225768D01*
X233563D01*
X233947Y225845D01*
X234273Y226062D01*
X234490Y226388D01*
X234566Y226772D01*
Y228740D01*
X234490Y229124D01*
X234472Y229151D01*
Y230118D01*
X234472Y230118D01*
X234380Y230579D01*
X234119Y230970D01*
X229944Y235144D01*
Y237008D01*
X229944Y237008D01*
X229853Y237469D01*
X229724Y237661D01*
Y241535D01*
X224213D01*
Y241364D01*
X222638D01*
Y243110D01*
X216732D01*
Y237598D01*
X222638D01*
Y237751D01*
X224213D01*
Y235630D01*
X227536D01*
Y234646D01*
X227628Y234185D01*
X227889Y233794D01*
X232064Y229619D01*
Y229151D01*
X232045Y229124D01*
X231969Y228740D01*
Y228239D01*
X231691Y227974D01*
X230788Y227464D01*
X230709Y227480D01*
X228740D01*
X228356Y227403D01*
X228329Y227385D01*
X227332D01*
X226701Y228017D01*
X226310Y228278D01*
X225849Y228370D01*
X225849Y228370D01*
X225342D01*
X225293Y228443D01*
X225050Y228685D01*
X224464Y229077D01*
X223773Y229215D01*
X223467D01*
X222892Y229599D01*
X222480Y229680D01*
X221457Y230704D01*
Y236024D01*
X215945D01*
Y230118D01*
X217524D01*
X217622Y229624D01*
X218014Y229038D01*
X219926Y227126D01*
X220008Y226714D01*
X220466Y226028D01*
X220430Y225837D01*
X220082Y224847D01*
X216413D01*
X216144Y225027D01*
X215300Y225195D01*
X214455Y225027D01*
X214370Y224970D01*
X213189Y225602D01*
Y226794D01*
X213224Y226969D01*
Y230118D01*
X214764D01*
Y236024D01*
X209252D01*
Y230118D01*
X209611D01*
Y228543D01*
X207283Y228543D01*
X207112Y229653D01*
Y238809D01*
X212953Y244650D01*
X216732D01*
Y244291D01*
X222638D01*
Y244552D01*
X224213D01*
Y242717D01*
X229724D01*
Y248622D01*
X224213D01*
Y248165D01*
X222638D01*
Y249803D01*
X216732D01*
Y248263D01*
X214405D01*
Y251062D01*
X214564Y251184D01*
X215006Y251760D01*
X215283Y252430D01*
X215378Y253150D01*
X215283Y253869D01*
X215006Y254539D01*
X214564Y255115D01*
X213988Y255557D01*
X213318Y255835D01*
X212598Y255929D01*
D02*
G37*
G36*
X346378Y236104D02*
X345389Y235973D01*
X344468Y235592D01*
X343677Y234985D01*
X343070Y234193D01*
X342688Y233272D01*
X342558Y232283D01*
X342688Y231295D01*
X343070Y230373D01*
X343677Y229582D01*
X344468Y228975D01*
X345389Y228594D01*
X346378Y228463D01*
X347367Y228594D01*
X348288Y228975D01*
X349079Y229582D01*
X349686Y230373D01*
X350068Y231295D01*
X350198Y232283D01*
X350068Y233272D01*
X349686Y234193D01*
X349079Y234985D01*
X348288Y235592D01*
X347367Y235973D01*
X346378Y236104D01*
D02*
G37*
G36*
X375197Y239009D02*
X373885Y238879D01*
X372623Y238497D01*
X371461Y237875D01*
X370441Y237039D01*
X369605Y236020D01*
X368984Y234857D01*
X368601Y233595D01*
X368472Y232283D01*
X368601Y230971D01*
X368984Y229710D01*
X369605Y228547D01*
X370441Y227528D01*
X371461Y226692D01*
X372623Y226070D01*
X373885Y225687D01*
X375197Y225558D01*
X376509Y225687D01*
X377770Y226070D01*
X378933Y226692D01*
X379952Y227528D01*
X380789Y228547D01*
X381410Y229710D01*
X381793Y230971D01*
X381922Y232283D01*
X381793Y233595D01*
X381410Y234857D01*
X380789Y236020D01*
X379952Y237039D01*
X378933Y237875D01*
X377770Y238497D01*
X376509Y238879D01*
X375197Y239009D01*
D02*
G37*
G36*
X307874Y226617D02*
X307029Y226449D01*
X306313Y225970D01*
X305835Y225254D01*
X305666Y224409D01*
X305835Y223564D01*
X306313Y222848D01*
X307029Y222369D01*
X307874Y222201D01*
X308719Y222369D01*
X308843Y222452D01*
X312395D01*
X313390Y221457D01*
X312901Y220276D01*
X312795D01*
Y214764D01*
X318701D01*
Y220276D01*
X317554D01*
Y221654D01*
X317417Y222345D01*
X317025Y222931D01*
X314421Y225536D01*
X313835Y225927D01*
X313143Y226065D01*
X309294D01*
X308719Y226449D01*
X307874Y226617D01*
D02*
G37*
G36*
X278150Y220276D02*
X272638D01*
Y214370D01*
X273993D01*
Y212795D01*
X272638D01*
Y206890D01*
X278150D01*
Y212795D01*
X276401D01*
Y214370D01*
X278150D01*
Y220276D01*
D02*
G37*
G36*
X311614Y213583D02*
X305709D01*
Y208071D01*
X311614D01*
Y208071D01*
X312761Y207987D01*
Y202323D01*
X310984Y200547D01*
X310572Y200465D01*
X309856Y199986D01*
X309378Y199270D01*
X309210Y198425D01*
X309378Y197580D01*
X309856Y196864D01*
X310572Y196386D01*
X311417Y196217D01*
X312262Y196386D01*
X312979Y196864D01*
X313457Y197580D01*
X313539Y197992D01*
X315844Y200297D01*
X316236Y200884D01*
X316373Y201575D01*
Y203468D01*
X317554Y204259D01*
X317830Y204204D01*
X318675Y204372D01*
X319249Y204756D01*
X320500D01*
X321192Y204894D01*
X321778Y205285D01*
X322931Y206438D01*
X323322Y207024D01*
X323452Y207677D01*
X325394D01*
Y213583D01*
X319882D01*
Y211007D01*
X319781Y210915D01*
X318701Y211394D01*
Y213583D01*
X312795D01*
Y212436D01*
X311614D01*
Y213583D01*
D02*
G37*
G36*
X332087Y213583D02*
X326575D01*
Y207677D01*
X327333D01*
X327581Y206496D01*
X327488Y206357D01*
X327320Y205512D01*
X327488Y204667D01*
X327966Y203951D01*
X328683Y203472D01*
X329528Y203304D01*
X330372Y203472D01*
X331089Y203951D01*
X331567Y204667D01*
X331735Y205512D01*
X331567Y206357D01*
X331474Y206496D01*
X331966Y207677D01*
X332087D01*
Y213583D01*
D02*
G37*
G36*
X346378Y204608D02*
X345389Y204477D01*
X344468Y204096D01*
X343677Y203489D01*
X343070Y202697D01*
X342688Y201776D01*
X342558Y200787D01*
X342688Y199799D01*
X343070Y198877D01*
X343677Y198086D01*
X344468Y197479D01*
X345389Y197098D01*
X346378Y196967D01*
X347367Y197098D01*
X348288Y197479D01*
X349079Y198086D01*
X349686Y198877D01*
X350068Y199799D01*
X350198Y200787D01*
X350068Y201776D01*
X349686Y202697D01*
X349079Y203489D01*
X348288Y204096D01*
X347367Y204477D01*
X346378Y204608D01*
D02*
G37*
G36*
X375197Y207513D02*
X373885Y207383D01*
X372623Y207001D01*
X371461Y206379D01*
X370441Y205543D01*
X369605Y204524D01*
X368984Y203361D01*
X368601Y202099D01*
X368472Y200787D01*
X368601Y199475D01*
X368984Y198214D01*
X369605Y197051D01*
X370441Y196032D01*
X371461Y195195D01*
X372623Y194574D01*
X373885Y194191D01*
X375197Y194062D01*
X376509Y194191D01*
X377770Y194574D01*
X378933Y195195D01*
X379952Y196032D01*
X380789Y197051D01*
X381410Y198214D01*
X381793Y199475D01*
X381922Y200787D01*
X381793Y202099D01*
X381410Y203361D01*
X380789Y204524D01*
X379952Y205543D01*
X378933Y206379D01*
X377770Y207001D01*
X376509Y207383D01*
X375197Y207513D01*
D02*
G37*
G36*
X233563Y212815D02*
X232973D01*
X232588Y212738D01*
X232263Y212521D01*
X232045Y212195D01*
X231969Y211811D01*
Y209842D01*
X232045Y209458D01*
X232064Y209431D01*
Y200197D01*
X230118D01*
Y194291D01*
X231670D01*
Y193110D01*
X230118D01*
Y187205D01*
X235630D01*
Y193110D01*
X234078D01*
Y194291D01*
X235630D01*
Y200197D01*
X234472D01*
Y209431D01*
X234490Y209458D01*
X234566Y209842D01*
Y211811D01*
X234490Y212195D01*
X234273Y212521D01*
X233947Y212738D01*
X233563Y212815D01*
D02*
G37*
G36*
X287402Y184284D02*
X286425Y184156D01*
X285515Y183779D01*
X284734Y183179D01*
X284135Y182398D01*
X283758Y181488D01*
X283629Y180512D01*
X283758Y179535D01*
X284135Y178626D01*
X284734Y177844D01*
X285515Y177245D01*
X286425Y176868D01*
X287402Y176739D01*
X288378Y176868D01*
X289288Y177245D01*
X290069Y177844D01*
X290669Y178626D01*
X291045Y179535D01*
X291174Y180512D01*
X291045Y181488D01*
X290669Y182398D01*
X290069Y183179D01*
X289288Y183779D01*
X288378Y184156D01*
X287402Y184284D01*
D02*
G37*
G36*
X346378Y173111D02*
X345389Y172981D01*
X344468Y172600D01*
X343677Y171993D01*
X343070Y171201D01*
X342688Y170280D01*
X342558Y169291D01*
X342688Y168303D01*
X343070Y167381D01*
X343677Y166590D01*
X344468Y165983D01*
X345389Y165601D01*
X346378Y165471D01*
X347367Y165601D01*
X348288Y165983D01*
X349079Y166590D01*
X349686Y167381D01*
X350068Y168303D01*
X350198Y169291D01*
X350068Y170280D01*
X349686Y171201D01*
X349079Y171993D01*
X348288Y172600D01*
X347367Y172981D01*
X346378Y173111D01*
D02*
G37*
G36*
X375197Y176017D02*
X373885Y175887D01*
X372623Y175505D01*
X371461Y174883D01*
X370441Y174047D01*
X369605Y173028D01*
X368984Y171865D01*
X368601Y170603D01*
X368472Y169291D01*
X368601Y167979D01*
X368984Y166718D01*
X369605Y165555D01*
X370441Y164536D01*
X371461Y163699D01*
X372623Y163078D01*
X373885Y162695D01*
X375197Y162566D01*
X376509Y162695D01*
X377770Y163078D01*
X378933Y163699D01*
X379952Y164536D01*
X380789Y165555D01*
X381410Y166718D01*
X381793Y167979D01*
X381922Y169291D01*
X381793Y170603D01*
X381410Y171865D01*
X380789Y173028D01*
X379952Y174047D01*
X378933Y174883D01*
X377770Y175505D01*
X376509Y175887D01*
X375197Y176017D01*
D02*
G37*
G36*
X328740Y104766D02*
X327042Y104599D01*
X325410Y104104D01*
X323905Y103299D01*
X322586Y102217D01*
X321504Y100898D01*
X320699Y99394D01*
X320204Y97761D01*
X320037Y96063D01*
X320204Y94365D01*
X320699Y92732D01*
X321504Y91228D01*
X322586Y89909D01*
X323905Y88826D01*
X325410Y88022D01*
X327042Y87527D01*
X328740Y87360D01*
X330438Y87527D01*
X332071Y88022D01*
X333576Y88826D01*
X334894Y89909D01*
X335977Y91228D01*
X336781Y92732D01*
X337276Y94365D01*
X337443Y96063D01*
X337276Y97761D01*
X336781Y99394D01*
X335977Y100898D01*
X334894Y102217D01*
X333576Y103299D01*
X332071Y104104D01*
X330438Y104599D01*
X328740Y104766D01*
D02*
G37*
G36*
X342717Y61811D02*
X335236D01*
Y44488D01*
X336394D01*
Y38189D01*
X336417Y38008D01*
Y35236D01*
X341929D01*
Y38008D01*
X341953Y38189D01*
Y44488D01*
X342717D01*
Y61811D01*
D02*
G37*
%LPD*%
G36*
X250984Y246086D02*
X250394D01*
X249933Y245994D01*
X249542Y245733D01*
X249542Y245733D01*
X243637Y239828D01*
X243376Y239437D01*
X243284Y238976D01*
X243284Y238976D01*
Y230027D01*
X241865Y228608D01*
X241653Y228290D01*
X241567Y228278D01*
X240472Y228740D01*
X240396Y229124D01*
X240377Y229151D01*
Y244285D01*
X240558Y244465D01*
X245317D01*
X245317Y244465D01*
X245778Y244557D01*
X246168Y244818D01*
X249369Y248018D01*
X250984D01*
Y246086D01*
D02*
G37*
G36*
X265158Y236811D02*
X268920D01*
X269094Y236776D01*
X274290D01*
X274412Y236617D01*
X274988Y236175D01*
X275475Y235974D01*
X275629Y235910D01*
X275658Y235827D01*
Y234645D01*
X275629Y234563D01*
X275566Y234536D01*
X274988Y234297D01*
X274412Y233855D01*
X273971Y233280D01*
X273693Y232609D01*
X273598Y231890D01*
X273693Y231170D01*
X273971Y230500D01*
X274412Y229924D01*
X274988Y229483D01*
X275174Y229406D01*
Y226877D01*
X273714Y225417D01*
X271850D01*
Y226969D01*
X265945D01*
Y225335D01*
X264370D01*
Y226969D01*
X258858D01*
Y221063D01*
X260607D01*
Y219882D01*
X258858D01*
Y218133D01*
X257677D01*
Y219882D01*
X255173D01*
X254650Y221063D01*
X254650Y221063D01*
X257677D01*
Y226969D01*
X256125D01*
Y228150D01*
X257677D01*
Y234055D01*
X252650D01*
X252158Y235233D01*
X253736Y236811D01*
X256890D01*
Y237761D01*
X258071D01*
Y236811D01*
X263976D01*
Y237761D01*
X265158D01*
Y236811D01*
D02*
G37*
%LPC*%
G36*
X264370Y234055D02*
X258858D01*
Y228150D01*
X264370D01*
Y229898D01*
X265945D01*
Y228150D01*
X271850D01*
Y233661D01*
X265945D01*
Y232307D01*
X264370D01*
Y234055D01*
D02*
G37*
%LPD*%
G36*
X215158Y210433D02*
X222003D01*
Y184346D01*
X221558Y184019D01*
X220822Y183784D01*
X220780Y183813D01*
X220472Y183874D01*
X207112Y183874D01*
Y198973D01*
X208097Y199880D01*
X208591Y199772D01*
X208630Y199579D01*
X208914Y199153D01*
X209692Y198376D01*
X209772Y197974D01*
X210250Y197257D01*
X210966Y196779D01*
X211811Y196611D01*
X212656Y196779D01*
X213372Y197257D01*
X213851Y197974D01*
X214019Y198819D01*
X213851Y199663D01*
X213372Y200380D01*
X212656Y200858D01*
X212106Y200968D01*
Y206102D01*
X207579Y206102D01*
X207112Y207090D01*
Y207871D01*
X207579Y208858D01*
X212106D01*
Y211010D01*
X215158D01*
Y210433D01*
D02*
G37*
G36*
X221632Y181911D02*
X221985Y181452D01*
X230883Y172553D01*
Y144095D01*
X230971Y143426D01*
X231100Y143115D01*
X231229Y142804D01*
X231639Y142269D01*
X232558Y141351D01*
X232854Y140637D01*
X233327Y140020D01*
X233944Y139547D01*
X234662Y139249D01*
X235433Y139148D01*
X236204Y139249D01*
X236301Y139289D01*
X241732Y133858D01*
X241732Y98307D01*
X241611Y98015D01*
X241510Y97244D01*
X241611Y96473D01*
X241909Y95755D01*
X242382Y95138D01*
X242999Y94665D01*
X243717Y94367D01*
X243837Y94352D01*
X244094Y94095D01*
Y92879D01*
X243630Y92184D01*
X243461Y91339D01*
X243630Y90494D01*
X243793Y90250D01*
X242894Y89350D01*
X239094D01*
Y84370D01*
X238189Y83464D01*
X210822D01*
X207112Y87175D01*
Y183071D01*
X220472Y183071D01*
X221632Y181911D01*
D02*
G37*
G36*
X308268Y85827D02*
X308268Y75984D01*
X308268Y70094D01*
X300394Y70094D01*
X300394Y70094D01*
X300086Y70033D01*
X299826Y69859D01*
X299826Y69859D01*
X299039Y69072D01*
X298865Y68811D01*
X298803Y68504D01*
X298803Y51181D01*
X298865Y50874D01*
X298927Y50780D01*
X298865Y50686D01*
X298803Y50378D01*
Y28285D01*
X295495Y24977D01*
X295321Y24717D01*
X295260Y24409D01*
Y21260D01*
X271654D01*
X268898Y24016D01*
X258661D01*
X255906Y21260D01*
X244094Y21260D01*
X240158Y25197D01*
X240158Y42520D01*
X233465Y49213D01*
X228192D01*
X228024Y51344D01*
X227525Y53423D01*
X226707Y55398D01*
X225589Y57221D01*
X224201Y58847D01*
X222575Y60235D01*
X220752Y61352D01*
X218777Y62170D01*
X216698Y62669D01*
X214567Y62837D01*
X212436Y62669D01*
X210357Y62170D01*
X208382Y61352D01*
X206559Y60235D01*
X205224Y59096D01*
X204724Y59326D01*
X204725Y82284D01*
X204724Y86355D01*
X205186Y86546D01*
X208661Y83071D01*
X210081D01*
X210255Y82897D01*
X210515Y82723D01*
X210822Y82662D01*
X238189D01*
X238496Y82723D01*
X238757Y82897D01*
X238757Y82897D01*
X238911Y83051D01*
X244409D01*
Y83071D01*
X244508D01*
X245778Y84374D01*
X246294Y84769D01*
X247494Y85970D01*
X247905Y86505D01*
X247907Y86510D01*
X248405Y87008D01*
X307087Y87008D01*
X308268Y85827D01*
D02*
G37*
G36*
X311811Y69291D02*
X324803Y56299D01*
X324803Y51968D01*
X324016Y51181D01*
X299606Y51181D01*
X299606Y68504D01*
X300394Y69291D01*
X311811Y69291D01*
D02*
G37*
G36*
X312205Y19685D02*
X301968Y9449D01*
X297244D01*
X296063Y10630D01*
X296063Y24409D01*
X299606Y27953D01*
Y50378D01*
X312205Y50378D01*
Y19685D01*
D02*
G37*
%LPC*%
G36*
X154425Y298561D02*
X153016Y298422D01*
X151661Y298011D01*
X150413Y297344D01*
X149318Y296445D01*
X148420Y295351D01*
X147753Y294102D01*
X147342Y292748D01*
X147203Y291339D01*
X147342Y289930D01*
X147753Y288575D01*
X148420Y287326D01*
X149318Y286232D01*
X150413Y285334D01*
X151661Y284666D01*
X153016Y284255D01*
X154425Y284116D01*
X155834Y284255D01*
X157189Y284666D01*
X158438Y285334D01*
X159532Y286232D01*
X160430Y287326D01*
X161098Y288575D01*
X161509Y289930D01*
X161647Y291339D01*
X161509Y292748D01*
X161098Y294102D01*
X160430Y295351D01*
X159532Y296445D01*
X158438Y297344D01*
X157189Y298011D01*
X155834Y298422D01*
X154425Y298561D01*
D02*
G37*
G36*
X42425D02*
X41016Y298422D01*
X39661Y298011D01*
X38413Y297344D01*
X37318Y296445D01*
X36420Y295351D01*
X35753Y294102D01*
X35342Y292748D01*
X35203Y291339D01*
X35342Y289930D01*
X35753Y288575D01*
X36420Y287326D01*
X37318Y286232D01*
X38413Y285334D01*
X39661Y284666D01*
X41016Y284255D01*
X42425Y284116D01*
X43834Y284255D01*
X45189Y284666D01*
X46438Y285334D01*
X47532Y286232D01*
X48430Y287326D01*
X49098Y288575D01*
X49509Y289930D01*
X49647Y291339D01*
X49509Y292748D01*
X49098Y294102D01*
X48430Y295351D01*
X47532Y296445D01*
X46438Y297344D01*
X45189Y298011D01*
X43834Y298422D01*
X42425Y298561D01*
D02*
G37*
G36*
X131425Y285111D02*
X130449Y284982D01*
X129539Y284606D01*
X128758Y284006D01*
X128158Y283225D01*
X127781Y282315D01*
X127653Y281339D01*
X127781Y280362D01*
X128158Y279452D01*
X128369Y279178D01*
X127729Y278071D01*
X127425Y278111D01*
X126449Y277982D01*
X125539Y277606D01*
X124758Y277006D01*
X124158Y276225D01*
X124064Y275998D01*
X122786D01*
X122692Y276225D01*
X122093Y277006D01*
X121311Y277606D01*
X120402Y277982D01*
X119425Y278111D01*
X119121Y278071D01*
X118482Y279178D01*
X118692Y279452D01*
X119069Y280362D01*
X119198Y281339D01*
X119069Y282315D01*
X118692Y283225D01*
X118093Y284006D01*
X117311Y284606D01*
X116402Y284982D01*
X115425Y285111D01*
X114449Y284982D01*
X113539Y284606D01*
X112758Y284006D01*
X112158Y283225D01*
X111781Y282315D01*
X111653Y281339D01*
X111781Y280362D01*
X111797Y280325D01*
X111182Y279707D01*
X110865Y279488D01*
X110487Y279563D01*
X108958D01*
X108865Y279582D01*
X108865Y279582D01*
X106330D01*
X106330Y279582D01*
X105869Y279490D01*
X105478Y279229D01*
X105478Y279229D01*
X104305Y278055D01*
X103630Y277921D01*
X102914Y277443D01*
X102733Y277172D01*
X101557Y276924D01*
X100607Y277692D01*
X100465Y278404D01*
X99986Y279120D01*
X99270Y279599D01*
X98425Y279767D01*
X97580Y279599D01*
X96864Y279120D01*
X96386Y278404D01*
X96217Y277559D01*
X96386Y276714D01*
X96864Y275998D01*
X97580Y275519D01*
X98425Y275351D01*
X99047Y275475D01*
X103009Y271513D01*
X103435Y271228D01*
X103937Y271128D01*
X112842D01*
X114910Y269060D01*
X115336Y268776D01*
X115838Y268676D01*
X129227D01*
X129729Y268776D01*
X130155Y269060D01*
X132256Y271162D01*
X132592Y271228D01*
X132989Y271494D01*
X133539Y271072D01*
X134449Y270695D01*
X135425Y270566D01*
X136402Y270695D01*
X137311Y271072D01*
X138093Y271671D01*
X138692Y272452D01*
X139069Y273362D01*
X139198Y274339D01*
X139069Y275315D01*
X138692Y276225D01*
X138093Y277006D01*
X137311Y277606D01*
X136402Y277982D01*
X135425Y278111D01*
X135121Y278071D01*
X134482Y279178D01*
X134692Y279452D01*
X135069Y280362D01*
X135198Y281339D01*
X135069Y282315D01*
X134692Y283225D01*
X134093Y284006D01*
X133311Y284606D01*
X132402Y284982D01*
X131425Y285111D01*
D02*
G37*
G36*
X72244Y294291D02*
X66732D01*
Y291519D01*
X66708Y291339D01*
Y283942D01*
X66158Y283225D01*
X65781Y282315D01*
X65653Y281339D01*
X65781Y280362D01*
X66158Y279452D01*
X66369Y279178D01*
X65729Y278071D01*
X65425Y278111D01*
X64449Y277982D01*
X63539Y277606D01*
X62758Y277006D01*
X62158Y276225D01*
X62064Y275998D01*
X60786D01*
X60692Y276225D01*
X60093Y277006D01*
X59311Y277606D01*
X58402Y277982D01*
X57425Y278111D01*
X57121Y278071D01*
X56482Y279178D01*
X56692Y279452D01*
X57069Y280362D01*
X57198Y281339D01*
X57069Y282315D01*
X56692Y283225D01*
X56093Y284006D01*
X55311Y284606D01*
X54402Y284982D01*
X53425Y285111D01*
X52449Y284982D01*
X51539Y284606D01*
X50758Y284006D01*
X50158Y283225D01*
X49781Y282315D01*
X49653Y281339D01*
X49781Y280362D01*
X50158Y279452D01*
X50758Y278671D01*
X51539Y278072D01*
X52449Y277695D01*
X53425Y277566D01*
X53729Y277606D01*
X54369Y276499D01*
X54158Y276225D01*
X53781Y275315D01*
X53653Y274339D01*
X53781Y273362D01*
X54158Y272452D01*
X54758Y271671D01*
X55539Y271072D01*
X56449Y270695D01*
X57425Y270566D01*
X58402Y270695D01*
X59311Y271072D01*
X60093Y271671D01*
X60692Y272452D01*
X60786Y272679D01*
X62064D01*
X62158Y272452D01*
X62758Y271671D01*
X63539Y271072D01*
X64449Y270695D01*
X65425Y270566D01*
X66402Y270695D01*
X67311Y271072D01*
X68093Y271671D01*
X68692Y272452D01*
X68786Y272679D01*
X70064D01*
X70158Y272452D01*
X70758Y271671D01*
X71539Y271072D01*
X72449Y270695D01*
X73425Y270566D01*
X74402Y270695D01*
X75311Y271072D01*
X76093Y271671D01*
X76692Y272452D01*
X77069Y273362D01*
X77198Y274339D01*
X77069Y275315D01*
X76692Y276225D01*
X76093Y277006D01*
X75311Y277606D01*
X74402Y277982D01*
X73425Y278111D01*
X73121Y278071D01*
X72482Y279178D01*
X72692Y279452D01*
X73069Y280362D01*
X73198Y281339D01*
X73069Y282315D01*
X72692Y283225D01*
X72268Y283778D01*
Y291339D01*
X72244Y291519D01*
Y294291D01*
D02*
G37*
G36*
X40425Y259111D02*
X39449Y258982D01*
X38539Y258606D01*
X37758Y258006D01*
X37158Y257225D01*
X36876Y256543D01*
X34843D01*
Y258465D01*
X29331D01*
Y252559D01*
X34843D01*
Y254134D01*
X36876D01*
X37158Y253452D01*
X37758Y252671D01*
X38539Y252072D01*
X39449Y251695D01*
X40425Y251566D01*
X41402Y251695D01*
X42311Y252072D01*
X43093Y252671D01*
X43692Y253452D01*
X44069Y254362D01*
X44198Y255339D01*
X44069Y256315D01*
X43692Y257225D01*
X43093Y258006D01*
X42311Y258606D01*
X41402Y258982D01*
X40425Y259111D01*
D02*
G37*
G36*
X111425D02*
X110449Y258982D01*
X109539Y258606D01*
X108758Y258006D01*
X108158Y257225D01*
X107781Y256315D01*
X107653Y255339D01*
X107781Y254362D01*
X108158Y253452D01*
X108758Y252671D01*
X109539Y252072D01*
X110449Y251695D01*
X111425Y251566D01*
X112402Y251695D01*
X113311Y252072D01*
X114093Y252671D01*
X114692Y253452D01*
X115069Y254362D01*
X115198Y255339D01*
X115069Y256315D01*
X114692Y257225D01*
X114093Y258006D01*
X113311Y258606D01*
X112402Y258982D01*
X111425Y259111D01*
D02*
G37*
G36*
X102425D02*
X101449Y258982D01*
X100539Y258606D01*
X99758Y258006D01*
X99158Y257225D01*
X98781Y256315D01*
X98653Y255339D01*
X98781Y254362D01*
X99158Y253452D01*
X99758Y252671D01*
X100539Y252072D01*
X101449Y251695D01*
X102425Y251566D01*
X103402Y251695D01*
X104311Y252072D01*
X105093Y252671D01*
X105692Y253452D01*
X106069Y254362D01*
X106198Y255339D01*
X106069Y256315D01*
X105692Y257225D01*
X105093Y258006D01*
X104311Y258606D01*
X103402Y258982D01*
X102425Y259111D01*
D02*
G37*
G36*
X49425D02*
X48449Y258982D01*
X47539Y258606D01*
X46758Y258006D01*
X46158Y257225D01*
X45781Y256315D01*
X45653Y255339D01*
X45781Y254362D01*
X46158Y253452D01*
X46758Y252671D01*
X47539Y252072D01*
X48449Y251695D01*
X49425Y251566D01*
X50402Y251695D01*
X51311Y252072D01*
X52093Y252671D01*
X52692Y253452D01*
X53069Y254362D01*
X53198Y255339D01*
X53069Y256315D01*
X52692Y257225D01*
X52093Y258006D01*
X51311Y258606D01*
X50402Y258982D01*
X49425Y259111D01*
D02*
G37*
G36*
X68101Y250426D02*
X68101Y250426D01*
X52019D01*
X51559Y250335D01*
X51168Y250074D01*
X47968Y246873D01*
X43209D01*
X42748Y246782D01*
X42357Y246521D01*
X41922Y246086D01*
X39567D01*
Y248622D01*
X34055D01*
Y242717D01*
X39567D01*
Y243678D01*
X41119D01*
Y229151D01*
X41100Y229124D01*
X41024Y228740D01*
Y226772D01*
X41100Y226388D01*
X41318Y226062D01*
X41644Y225845D01*
X42028Y225768D01*
X42618D01*
X42736Y225792D01*
X43054Y225818D01*
X43127Y225780D01*
X43955Y224892D01*
X43878Y224508D01*
Y223917D01*
X43955Y223533D01*
X44159Y223228D01*
X43955Y222923D01*
X43878Y222539D01*
Y221949D01*
X43955Y221565D01*
X44159Y221260D01*
X43955Y220955D01*
X43878Y220571D01*
Y219980D01*
X43955Y219596D01*
X44159Y219291D01*
X43955Y218986D01*
X43878Y218602D01*
Y218012D01*
X43955Y217628D01*
X44159Y217323D01*
X43955Y217018D01*
X43878Y216634D01*
Y216043D01*
X43955Y215659D01*
X44159Y215354D01*
X43955Y215049D01*
X43878Y214665D01*
Y214075D01*
X43955Y213691D01*
X44172Y213365D01*
X44498Y213148D01*
X44882Y213071D01*
X46850D01*
X47234Y213148D01*
X47262Y213166D01*
X47336D01*
X52720Y207782D01*
X52614Y206637D01*
X51552Y206161D01*
X51239Y206370D01*
X50394Y206539D01*
X49549Y206370D01*
X48833Y205892D01*
X48765Y205790D01*
X47319Y205565D01*
X43566Y209318D01*
Y209565D01*
X43622Y209842D01*
Y211811D01*
X43545Y212195D01*
X43328Y212521D01*
X43002Y212738D01*
X42618Y212815D01*
X42028D01*
X41644Y212738D01*
X41318Y212521D01*
X41100Y212195D01*
X41024Y211811D01*
Y209842D01*
X41100Y209458D01*
X41158Y209372D01*
Y208819D01*
X41158Y208819D01*
X41250Y208358D01*
X41511Y207967D01*
X41511Y207967D01*
X49895Y199583D01*
Y198116D01*
X49895Y198116D01*
X49987Y197655D01*
X50248Y197264D01*
X51283Y196230D01*
Y193718D01*
X51283Y193718D01*
X51374Y193257D01*
X51635Y192867D01*
X51635Y192867D01*
X53621Y190881D01*
X54012Y190620D01*
X54473Y190528D01*
X54473Y190528D01*
X65748D01*
X65748Y190528D01*
X66209Y190620D01*
X66600Y190881D01*
X70774Y195056D01*
X72244D01*
Y193504D01*
X78150D01*
Y195164D01*
X78476Y195451D01*
X79331Y195919D01*
X79922Y195801D01*
X80775Y195971D01*
X81498Y196454D01*
X81982Y197178D01*
X82151Y198031D01*
X81982Y198884D01*
X81498Y199608D01*
X80775Y200091D01*
X79922Y200261D01*
X79307Y200139D01*
X78492Y200597D01*
X78150Y200898D01*
Y205709D01*
X72464D01*
Y206890D01*
X74606D01*
Y212795D01*
X69095D01*
Y211637D01*
X67913D01*
Y213189D01*
X62008D01*
Y207677D01*
X67913D01*
Y209229D01*
X69095D01*
Y206890D01*
X69095D01*
X68884Y205959D01*
X67913Y206496D01*
Y206496D01*
X62008D01*
Y205194D01*
X62008Y205194D01*
X60911Y205719D01*
X60827Y205847D01*
Y206496D01*
X59680D01*
Y207677D01*
X60827D01*
Y213189D01*
X58251D01*
X58159Y213290D01*
X58638Y214370D01*
X60827D01*
Y215725D01*
X62008D01*
Y214370D01*
X67913D01*
Y215708D01*
X69095D01*
Y214370D01*
X74606D01*
Y220276D01*
X69095D01*
Y218117D01*
X67913D01*
Y219882D01*
X66165D01*
Y221063D01*
X67520D01*
Y222927D01*
X69095D01*
Y221457D01*
X75000D01*
Y223008D01*
X77362D01*
X77362Y223008D01*
X77823Y223100D01*
X78214Y223361D01*
X80379Y225526D01*
X80379Y225526D01*
X80640Y225917D01*
X80732Y226378D01*
X80732Y226378D01*
Y229406D01*
X80917Y229483D01*
X81493Y229924D01*
X81935Y230500D01*
X82213Y231170D01*
X82307Y231890D01*
X82213Y232609D01*
X81935Y233280D01*
X81493Y233855D01*
X80917Y234297D01*
X80431Y234499D01*
X80276Y234563D01*
X80247Y234645D01*
Y235827D01*
X80276Y235910D01*
X80340Y235936D01*
X80917Y236175D01*
X81493Y236617D01*
X81935Y237193D01*
X82213Y237863D01*
X82307Y238583D01*
X82213Y239302D01*
X81935Y239972D01*
X81493Y240548D01*
X80917Y240990D01*
X80431Y241192D01*
X80276Y241256D01*
X80247Y241338D01*
Y242520D01*
X80276Y242603D01*
X80340Y242629D01*
X80917Y242868D01*
X81493Y243310D01*
X81935Y243886D01*
X82213Y244556D01*
X82307Y245276D01*
X82213Y245995D01*
X81935Y246665D01*
X81493Y247241D01*
X80917Y247683D01*
X80247Y247961D01*
X79528Y248055D01*
X78808Y247961D01*
X78138Y247683D01*
X77562Y247241D01*
X77120Y246665D01*
X77043Y246480D01*
X74213D01*
Y249016D01*
X70010D01*
X68952Y250074D01*
X68952Y250074D01*
X68562Y250335D01*
X68101Y250426D01*
D02*
G37*
G36*
X15748Y255929D02*
X15029Y255835D01*
X14358Y255557D01*
X13782Y255115D01*
X13341Y254539D01*
X13063Y253869D01*
X12968Y253150D01*
X13063Y252430D01*
X13341Y251760D01*
X13782Y251184D01*
X13942Y251062D01*
Y247599D01*
X7178Y240835D01*
X6786Y240249D01*
X6649Y239558D01*
Y86427D01*
X6786Y85735D01*
X7071Y85309D01*
X7071Y82283D01*
X7071Y59326D01*
X7099Y59188D01*
X7121Y59048D01*
X7129Y59035D01*
X7132Y59019D01*
X7211Y58902D01*
X7284Y58781D01*
X7298Y58772D01*
X7306Y58759D01*
X7424Y58680D01*
X7538Y58597D01*
X8038Y58367D01*
X8175Y58334D01*
X8311Y58295D01*
X8327Y58297D01*
X8343Y58293D01*
X8482Y58316D01*
X8622Y58332D01*
X8636Y58340D01*
X8652Y58342D01*
X8772Y58416D01*
X8895Y58485D01*
X10182Y59584D01*
X11897Y60635D01*
X13755Y61405D01*
X15711Y61874D01*
X17717Y62032D01*
X19722Y61874D01*
X21678Y61405D01*
X23536Y60635D01*
X25252Y59584D01*
X26781Y58277D01*
X28088Y56748D01*
X29139Y55032D01*
X29908Y53174D01*
X30378Y51218D01*
X30541Y49150D01*
X30575Y49029D01*
X30599Y48905D01*
X30617Y48879D01*
X30626Y48848D01*
X30704Y48749D01*
X30773Y48645D01*
X30800Y48627D01*
X30820Y48602D01*
X30929Y48541D01*
X31034Y48471D01*
X31065Y48465D01*
X31093Y48449D01*
X31218Y48434D01*
X31341Y48410D01*
X36282D01*
X42504Y42187D01*
X42504Y25197D01*
X42565Y24890D01*
X42739Y24629D01*
X42739Y24629D01*
X46676Y20692D01*
X46937Y20518D01*
X47244Y20457D01*
X59055Y20457D01*
X59055Y20457D01*
X59362Y20518D01*
X59623Y20692D01*
X59623Y20692D01*
X62144Y23213D01*
X71715D01*
X74235Y20692D01*
X74496Y20518D01*
X74803Y20457D01*
X98410D01*
X98410Y19276D01*
X98410Y10630D01*
X98471Y10323D01*
X98645Y10062D01*
X98645Y10062D01*
X99826Y8881D01*
X100087Y8707D01*
X100394Y8646D01*
X105118D01*
X105118Y8646D01*
X105425Y8707D01*
X105686Y8881D01*
X115922Y19117D01*
X116096Y19378D01*
X116157Y19685D01*
Y50378D01*
X117338Y50378D01*
X127165Y50378D01*
X127473Y50439D01*
X127733Y50613D01*
X128521Y51401D01*
X128694Y51661D01*
X128756Y51968D01*
X128756Y56299D01*
X128756Y56299D01*
X128694Y56606D01*
X128521Y56867D01*
X115528Y69859D01*
X115268Y70033D01*
X114961Y70094D01*
X112220D01*
X112220Y75984D01*
X112220Y85827D01*
X112159Y86134D01*
X111985Y86395D01*
X111985Y86395D01*
X110804Y87576D01*
X110544Y87750D01*
X110236Y87811D01*
X51806Y87811D01*
X51218Y88114D01*
X50759Y88526D01*
X50625Y88738D01*
Y90144D01*
X50859Y90494D01*
X51027Y91339D01*
X50859Y92184D01*
X50380Y92900D01*
X49664Y93378D01*
X48973Y93516D01*
X48047Y94095D01*
X48469Y95171D01*
X48706Y95354D01*
X49199Y95683D01*
X49678Y96399D01*
X49773Y96878D01*
X50077Y97181D01*
X50468Y97768D01*
X50606Y98459D01*
Y99291D01*
X51555D01*
Y103819D01*
X46866D01*
X45685Y104851D01*
X45685Y133858D01*
X45685Y133858D01*
X45624Y134166D01*
X45450Y134426D01*
X42790Y137086D01*
X43994Y138290D01*
X44385Y138876D01*
X44523Y139567D01*
Y187205D01*
X45472D01*
Y193110D01*
X39961D01*
Y187205D01*
X40910D01*
Y144504D01*
X39729Y143964D01*
X39428Y144166D01*
X39016Y144248D01*
X38421Y144843D01*
Y173622D01*
X38283Y174313D01*
X37892Y174899D01*
X28766Y184025D01*
Y212297D01*
X28834Y212399D01*
X28972Y213090D01*
X29033Y213166D01*
X31479D01*
X31506Y213148D01*
X31890Y213071D01*
X33858D01*
X34242Y213148D01*
X34568Y213365D01*
X34785Y213691D01*
X34862Y214075D01*
Y214665D01*
X34785Y215049D01*
X34582Y215354D01*
X34785Y215659D01*
X34862Y216043D01*
Y216634D01*
X34785Y217018D01*
X34568Y217343D01*
X34242Y217561D01*
X33858Y217637D01*
X31890D01*
X31237Y217718D01*
X30550Y218118D01*
X30301Y218490D01*
X29585Y218969D01*
X28798Y219125D01*
X28637Y219367D01*
X28245Y220243D01*
X29042Y221040D01*
X31479D01*
X31506Y221022D01*
X31890Y220945D01*
X33858D01*
X34242Y221022D01*
X34568Y221239D01*
X34785Y221565D01*
X34862Y221949D01*
Y222539D01*
X34785Y222923D01*
X34582Y223228D01*
X34785Y223533D01*
X34862Y223917D01*
Y224508D01*
X34785Y224892D01*
X35637Y225743D01*
X35852Y225804D01*
X36004Y225792D01*
X36122Y225768D01*
X36713D01*
X37097Y225845D01*
X37422Y226062D01*
X37640Y226388D01*
X37716Y226772D01*
Y228740D01*
X37640Y229124D01*
X37622Y229151D01*
Y230118D01*
X37622Y230118D01*
X37530Y230579D01*
X37269Y230970D01*
X33094Y235144D01*
Y237008D01*
X33094Y237008D01*
X33002Y237469D01*
X32874Y237661D01*
Y241535D01*
X27362D01*
Y241364D01*
X25787D01*
Y243110D01*
X19882D01*
Y237598D01*
X25787D01*
Y237751D01*
X27362D01*
Y235630D01*
X30685D01*
Y234646D01*
X30777Y234185D01*
X31038Y233794D01*
X35213Y229619D01*
Y229151D01*
X35195Y229124D01*
X35118Y228740D01*
Y228239D01*
X34841Y227974D01*
X33937Y227464D01*
X33858Y227480D01*
X31890D01*
X31506Y227403D01*
X31479Y227385D01*
X30482D01*
X29850Y228017D01*
X29460Y228278D01*
X28999Y228370D01*
X28999Y228370D01*
X28492D01*
X28443Y228443D01*
X28200Y228685D01*
X27614Y229077D01*
X26923Y229215D01*
X26617D01*
X26042Y229599D01*
X25630Y229680D01*
X24606Y230704D01*
Y236024D01*
X19094D01*
Y230118D01*
X20674D01*
X20772Y229624D01*
X21164Y229038D01*
X23075Y227126D01*
X23157Y226714D01*
X23615Y226028D01*
X23580Y225837D01*
X23232Y224847D01*
X19563D01*
X19294Y225027D01*
X18449Y225195D01*
X17604Y225027D01*
X17520Y224970D01*
X16339Y225602D01*
Y226794D01*
X16373Y226969D01*
Y230118D01*
X17913D01*
Y236024D01*
X12402D01*
Y230118D01*
X12761D01*
Y228543D01*
X10433Y228543D01*
X10261Y229653D01*
Y238809D01*
X16103Y244650D01*
X19882D01*
Y244291D01*
X25787D01*
Y244552D01*
X27362D01*
Y242717D01*
X32874D01*
Y248622D01*
X27362D01*
Y248165D01*
X25787D01*
Y249803D01*
X19882D01*
Y248263D01*
X17554D01*
Y251062D01*
X17714Y251184D01*
X18155Y251760D01*
X18433Y252430D01*
X18528Y253150D01*
X18433Y253869D01*
X18155Y254539D01*
X17714Y255115D01*
X17138Y255557D01*
X16467Y255835D01*
X15748Y255929D01*
D02*
G37*
G36*
X149528Y236104D02*
X148539Y235973D01*
X147617Y235592D01*
X146826Y234985D01*
X146219Y234193D01*
X145838Y233272D01*
X145707Y232283D01*
X145838Y231295D01*
X146219Y230373D01*
X146826Y229582D01*
X147617Y228975D01*
X148539Y228594D01*
X149528Y228463D01*
X150516Y228594D01*
X151438Y228975D01*
X152229Y229582D01*
X152836Y230373D01*
X153217Y231295D01*
X153348Y232283D01*
X153217Y233272D01*
X152836Y234193D01*
X152229Y234985D01*
X151438Y235592D01*
X150516Y235973D01*
X149528Y236104D01*
D02*
G37*
G36*
X178347Y239009D02*
X177034Y238879D01*
X175773Y238497D01*
X174610Y237875D01*
X173591Y237039D01*
X172755Y236020D01*
X172133Y234857D01*
X171750Y233595D01*
X171621Y232283D01*
X171750Y230971D01*
X172133Y229710D01*
X172755Y228547D01*
X173591Y227528D01*
X174610Y226692D01*
X175773Y226070D01*
X177034Y225687D01*
X178347Y225558D01*
X179658Y225687D01*
X180920Y226070D01*
X182083Y226692D01*
X183102Y227528D01*
X183938Y228547D01*
X184560Y229710D01*
X184942Y230971D01*
X185072Y232283D01*
X184942Y233595D01*
X184560Y234857D01*
X183938Y236020D01*
X183102Y237039D01*
X182083Y237875D01*
X180920Y238497D01*
X179658Y238879D01*
X178347Y239009D01*
D02*
G37*
G36*
X111024Y226617D02*
X110179Y226449D01*
X109463Y225970D01*
X108984Y225254D01*
X108816Y224409D01*
X108984Y223564D01*
X109463Y222848D01*
X110179Y222369D01*
X111024Y222201D01*
X111869Y222369D01*
X111992Y222452D01*
X115545D01*
X116540Y221457D01*
X116051Y220276D01*
X115945D01*
Y214764D01*
X121850D01*
Y220276D01*
X120704D01*
Y221654D01*
X120566Y222345D01*
X120175Y222931D01*
X117570Y225536D01*
X116984Y225927D01*
X116293Y226065D01*
X112443D01*
X111869Y226449D01*
X111024Y226617D01*
D02*
G37*
G36*
X81299Y220276D02*
X75787D01*
Y214370D01*
X77142D01*
Y212795D01*
X75787D01*
Y206890D01*
X81299D01*
Y212795D01*
X79551D01*
Y214370D01*
X81299D01*
Y220276D01*
D02*
G37*
G36*
X114764Y213583D02*
X108858D01*
Y208071D01*
X114764D01*
Y208071D01*
X115910Y207987D01*
Y202323D01*
X114134Y200547D01*
X113722Y200465D01*
X113006Y199986D01*
X112527Y199270D01*
X112359Y198425D01*
X112527Y197580D01*
X113006Y196864D01*
X113722Y196386D01*
X114567Y196217D01*
X115412Y196386D01*
X116128Y196864D01*
X116607Y197580D01*
X116689Y197992D01*
X118994Y200297D01*
X119385Y200884D01*
X119523Y201575D01*
Y203468D01*
X120704Y204259D01*
X120979Y204204D01*
X121824Y204372D01*
X122399Y204756D01*
X123650D01*
X124341Y204894D01*
X124927Y205285D01*
X126080Y206438D01*
X126472Y207024D01*
X126602Y207677D01*
X128543D01*
Y213583D01*
X123031D01*
Y211007D01*
X122930Y210915D01*
X121850Y211394D01*
Y213583D01*
X115945D01*
Y212436D01*
X114764D01*
Y213583D01*
D02*
G37*
G36*
X135236Y213583D02*
X129724D01*
Y207677D01*
X130482D01*
X130731Y206496D01*
X130638Y206357D01*
X130469Y205512D01*
X130638Y204667D01*
X131116Y203951D01*
X131832Y203472D01*
X132677Y203304D01*
X133522Y203472D01*
X134238Y203951D01*
X134717Y204667D01*
X134885Y205512D01*
X134717Y206357D01*
X134624Y206496D01*
X135116Y207677D01*
X135236D01*
Y213583D01*
D02*
G37*
G36*
X149528Y204608D02*
X148539Y204477D01*
X147617Y204096D01*
X146826Y203489D01*
X146219Y202697D01*
X145838Y201776D01*
X145707Y200787D01*
X145838Y199799D01*
X146219Y198877D01*
X146826Y198086D01*
X147617Y197479D01*
X148539Y197098D01*
X149528Y196967D01*
X150516Y197098D01*
X151438Y197479D01*
X152229Y198086D01*
X152836Y198877D01*
X153217Y199799D01*
X153348Y200787D01*
X153217Y201776D01*
X152836Y202697D01*
X152229Y203489D01*
X151438Y204096D01*
X150516Y204477D01*
X149528Y204608D01*
D02*
G37*
G36*
X178347Y207513D02*
X177034Y207383D01*
X175773Y207001D01*
X174610Y206379D01*
X173591Y205543D01*
X172755Y204524D01*
X172133Y203361D01*
X171750Y202099D01*
X171621Y200787D01*
X171750Y199475D01*
X172133Y198214D01*
X172755Y197051D01*
X173591Y196032D01*
X174610Y195195D01*
X175773Y194574D01*
X177034Y194191D01*
X178347Y194062D01*
X179658Y194191D01*
X180920Y194574D01*
X182083Y195195D01*
X183102Y196032D01*
X183938Y197051D01*
X184560Y198214D01*
X184942Y199475D01*
X185072Y200787D01*
X184942Y202099D01*
X184560Y203361D01*
X183938Y204524D01*
X183102Y205543D01*
X182083Y206379D01*
X180920Y207001D01*
X179658Y207383D01*
X178347Y207513D01*
D02*
G37*
G36*
X36713Y212815D02*
X36122D01*
X35738Y212738D01*
X35412Y212521D01*
X35195Y212195D01*
X35118Y211811D01*
Y209842D01*
X35195Y209458D01*
X35213Y209431D01*
Y200197D01*
X33268D01*
Y194291D01*
X34819D01*
Y193110D01*
X33268D01*
Y187205D01*
X38780D01*
Y193110D01*
X37228D01*
Y194291D01*
X38780D01*
Y200197D01*
X37622D01*
Y209431D01*
X37640Y209458D01*
X37716Y209842D01*
Y211811D01*
X37640Y212195D01*
X37422Y212521D01*
X37097Y212738D01*
X36713Y212815D01*
D02*
G37*
G36*
X90551Y184284D02*
X89575Y184156D01*
X88665Y183779D01*
X87884Y183179D01*
X87284Y182398D01*
X86907Y181488D01*
X86779Y180512D01*
X86907Y179535D01*
X87284Y178626D01*
X87884Y177844D01*
X88665Y177245D01*
X89575Y176868D01*
X90551Y176739D01*
X91528Y176868D01*
X92437Y177245D01*
X93219Y177844D01*
X93818Y178626D01*
X94195Y179535D01*
X94324Y180512D01*
X94195Y181488D01*
X93818Y182398D01*
X93219Y183179D01*
X92437Y183779D01*
X91528Y184156D01*
X90551Y184284D01*
D02*
G37*
G36*
X149528Y173111D02*
X148539Y172981D01*
X147617Y172600D01*
X146826Y171993D01*
X146219Y171201D01*
X145838Y170280D01*
X145707Y169291D01*
X145838Y168303D01*
X146219Y167381D01*
X146826Y166590D01*
X147617Y165983D01*
X148539Y165601D01*
X149528Y165471D01*
X150516Y165601D01*
X151438Y165983D01*
X152229Y166590D01*
X152836Y167381D01*
X153217Y168303D01*
X153348Y169291D01*
X153217Y170280D01*
X152836Y171201D01*
X152229Y171993D01*
X151438Y172600D01*
X150516Y172981D01*
X149528Y173111D01*
D02*
G37*
G36*
X178347Y176017D02*
X177034Y175887D01*
X175773Y175505D01*
X174610Y174883D01*
X173591Y174047D01*
X172755Y173028D01*
X172133Y171865D01*
X171750Y170603D01*
X171621Y169291D01*
X171750Y167979D01*
X172133Y166718D01*
X172755Y165555D01*
X173591Y164536D01*
X174610Y163699D01*
X175773Y163078D01*
X177034Y162695D01*
X178347Y162566D01*
X179658Y162695D01*
X180920Y163078D01*
X182083Y163699D01*
X183102Y164536D01*
X183938Y165555D01*
X184560Y166718D01*
X184942Y167979D01*
X185072Y169291D01*
X184942Y170603D01*
X184560Y171865D01*
X183938Y173028D01*
X183102Y174047D01*
X182083Y174883D01*
X180920Y175505D01*
X179658Y175887D01*
X178347Y176017D01*
D02*
G37*
G36*
X131890Y104766D02*
X130192Y104599D01*
X128559Y104104D01*
X127055Y103299D01*
X125736Y102217D01*
X124653Y100898D01*
X123849Y99394D01*
X123354Y97761D01*
X123186Y96063D01*
X123354Y94365D01*
X123849Y92732D01*
X124653Y91228D01*
X125736Y89909D01*
X127055Y88826D01*
X128559Y88022D01*
X130192Y87527D01*
X131890Y87360D01*
X133588Y87527D01*
X135220Y88022D01*
X136725Y88826D01*
X138044Y89909D01*
X139126Y91228D01*
X139931Y92732D01*
X140426Y94365D01*
X140593Y96063D01*
X140426Y97761D01*
X139931Y99394D01*
X139126Y100898D01*
X138044Y102217D01*
X136725Y103299D01*
X135220Y104104D01*
X133588Y104599D01*
X131890Y104766D01*
D02*
G37*
G36*
X145866Y61811D02*
X138386D01*
Y44488D01*
X139543D01*
Y38189D01*
X139567Y38008D01*
Y35236D01*
X145079D01*
Y38008D01*
X145103Y38189D01*
Y44488D01*
X145866D01*
Y61811D01*
D02*
G37*
%LPD*%
G36*
X54134Y246086D02*
X53543D01*
X53083Y245994D01*
X52692Y245733D01*
X52692Y245733D01*
X46786Y239828D01*
X46525Y239437D01*
X46434Y238976D01*
X46434Y238976D01*
Y230027D01*
X45015Y228608D01*
X44803Y228290D01*
X44716Y228278D01*
X43622Y228740D01*
X43545Y229124D01*
X43527Y229151D01*
Y244285D01*
X43707Y244465D01*
X48467D01*
X48467Y244465D01*
X48927Y244557D01*
X49318Y244818D01*
X52518Y248018D01*
X54134D01*
Y246086D01*
D02*
G37*
G36*
X68307Y236811D02*
X72070D01*
X72244Y236776D01*
X77440D01*
X77562Y236617D01*
X78138Y236175D01*
X78624Y235974D01*
X78779Y235910D01*
X78808Y235827D01*
Y234645D01*
X78779Y234563D01*
X78715Y234536D01*
X78138Y234297D01*
X77562Y233855D01*
X77120Y233280D01*
X76843Y232609D01*
X76748Y231890D01*
X76843Y231170D01*
X77120Y230500D01*
X77562Y229924D01*
X78138Y229483D01*
X78323Y229406D01*
Y226877D01*
X76863Y225417D01*
X75000D01*
Y226969D01*
X69095D01*
Y225335D01*
X67520D01*
Y226969D01*
X62008D01*
Y221063D01*
X63756D01*
Y219882D01*
X62008D01*
Y218133D01*
X60827D01*
Y219882D01*
X58323D01*
X57799Y221063D01*
X57799Y221063D01*
X60827D01*
Y226969D01*
X59275D01*
Y228150D01*
X60827D01*
Y234055D01*
X55800D01*
X55307Y235233D01*
X56885Y236811D01*
X60039D01*
Y237761D01*
X61221D01*
Y236811D01*
X67126D01*
Y237761D01*
X68307D01*
Y236811D01*
D02*
G37*
%LPC*%
G36*
X67520Y234055D02*
X62008D01*
Y228150D01*
X67520D01*
Y229898D01*
X69095D01*
Y228150D01*
X75000D01*
Y233661D01*
X69095D01*
Y232307D01*
X67520D01*
Y234055D01*
D02*
G37*
%LPD*%
G36*
X18307Y210433D02*
X25153D01*
Y184346D01*
X24708Y184019D01*
X23972Y183784D01*
X23929Y183813D01*
X23622Y183874D01*
X10261Y183874D01*
Y198973D01*
X11246Y199880D01*
X11741Y199772D01*
X11779Y199579D01*
X12064Y199153D01*
X12841Y198376D01*
X12921Y197974D01*
X13400Y197257D01*
X14116Y196779D01*
X14961Y196611D01*
X15806Y196779D01*
X16522Y197257D01*
X17001Y197974D01*
X17169Y198819D01*
X17001Y199663D01*
X16522Y200380D01*
X15806Y200858D01*
X15256Y200968D01*
Y206102D01*
X10728Y206102D01*
X10261Y207090D01*
Y207871D01*
X10728Y208858D01*
X15256D01*
Y211010D01*
X18307D01*
Y210433D01*
D02*
G37*
G36*
X24781Y181911D02*
X25134Y181452D01*
X34033Y172553D01*
Y144095D01*
X34121Y143426D01*
X34250Y143115D01*
X34379Y142804D01*
X34789Y142269D01*
X35708Y141351D01*
X36004Y140637D01*
X36477Y140020D01*
X37094Y139547D01*
X37812Y139249D01*
X38583Y139148D01*
X39353Y139249D01*
X39451Y139289D01*
X44882Y133858D01*
X44882Y98307D01*
X44761Y98015D01*
X44660Y97244D01*
X44761Y96473D01*
X45059Y95755D01*
X45532Y95138D01*
X46149Y94665D01*
X46867Y94367D01*
X46987Y94352D01*
X47244Y94095D01*
Y92879D01*
X46779Y92184D01*
X46611Y91339D01*
X46779Y90494D01*
X46942Y90250D01*
X46043Y89350D01*
X42244D01*
Y84370D01*
X41339Y83464D01*
X13972D01*
X10261Y87175D01*
Y183071D01*
X23622Y183071D01*
X24781Y181911D01*
D02*
G37*
G36*
X111417Y85827D02*
X111417Y75984D01*
X111417Y70094D01*
X103543Y70094D01*
X103543Y70094D01*
X103236Y70033D01*
X102976Y69859D01*
X102976Y69859D01*
X102188Y69072D01*
X102014Y68811D01*
X101953Y68504D01*
X101953Y51181D01*
X102014Y50874D01*
X102077Y50780D01*
X102014Y50686D01*
X101953Y50378D01*
Y28285D01*
X98645Y24977D01*
X98471Y24717D01*
X98410Y24409D01*
Y21260D01*
X74803D01*
X72047Y24016D01*
X61811D01*
X59055Y21260D01*
X47244Y21260D01*
X43307Y25197D01*
X43307Y42520D01*
X36614Y49213D01*
X31341D01*
X31174Y51344D01*
X30674Y53423D01*
X29856Y55398D01*
X28739Y57221D01*
X27351Y58847D01*
X25725Y60235D01*
X23902Y61352D01*
X21927Y62170D01*
X19848Y62669D01*
X17717Y62837D01*
X15585Y62669D01*
X13506Y62170D01*
X11531Y61352D01*
X9708Y60235D01*
X8374Y59096D01*
X7874Y59326D01*
X7874Y82284D01*
X7874Y86355D01*
X8336Y86546D01*
X11811Y83071D01*
X13230D01*
X13404Y82897D01*
X13665Y82723D01*
X13972Y82662D01*
X41339D01*
X41646Y82723D01*
X41906Y82897D01*
X41906Y82897D01*
X42061Y83051D01*
X47559D01*
Y83071D01*
X47657D01*
X48928Y84374D01*
X49443Y84769D01*
X50644Y85970D01*
X51054Y86505D01*
X51056Y86510D01*
X51555Y87008D01*
X110236Y87008D01*
X111417Y85827D01*
D02*
G37*
G36*
X114961Y69291D02*
X127953Y56299D01*
X127953Y51968D01*
X127165Y51181D01*
X102756Y51181D01*
X102756Y68504D01*
X103543Y69291D01*
X114961Y69291D01*
D02*
G37*
G36*
X115354Y19685D02*
X105118Y9449D01*
X100394D01*
X99213Y10630D01*
X99213Y24409D01*
X102756Y27953D01*
Y50378D01*
X115354Y50378D01*
Y19685D01*
D02*
G37*
D10*
X268110Y209252D02*
X268701Y209842D01*
X266929Y203543D02*
Y203808D01*
X268110Y204989D01*
Y209252D01*
X268701Y209842D02*
X268110Y210433D01*
X223795Y215551D02*
X225173Y216929D01*
X226135D02*
X225173D01*
X223795Y215551D02*
X220866D01*
X252559Y244882D02*
X250394D01*
X244488Y238976D02*
X250394Y244882D01*
X242717Y226181D02*
Y227756D01*
X244488Y229528D02*
Y238976D01*
X242717Y227756D02*
X244488Y229528D01*
X252559Y244882D02*
X253937Y246260D01*
X250788Y199202D02*
Y208267D01*
X254724Y197047D02*
X253351Y198420D01*
X251570D01*
X250788Y208267D02*
X244685Y214370D01*
X251570Y198420D02*
X250788Y199202D01*
X244685Y214370D02*
X242717D01*
X229724Y226181D02*
X226833D01*
X225849Y227165D01*
X224016D01*
X229724Y214370D02*
X225295D01*
X239173Y227756D02*
Y244783D01*
X239272Y244882D01*
X253346Y222244D02*
X242618D01*
X254921Y223819D02*
Y224016D01*
Y231102D01*
X257096Y242529D02*
X251360D01*
X257096D02*
X260827Y246260D01*
X247950Y200082D02*
X239213Y208819D01*
X272244Y196260D02*
X267126D01*
X262598Y191732D02*
X267126Y196260D01*
X262598Y191732D02*
X251323D01*
X247950Y198116D02*
Y200082D01*
X251323Y191732D02*
X249337Y193718D01*
Y196728D01*
X247950Y198116D01*
X239213Y208819D02*
Y210788D01*
X239173Y210827D01*
X254724Y217126D02*
X253346Y218504D01*
X248668D01*
X246897Y220276D01*
X242717D01*
X227165Y238583D02*
X226969D01*
X228740Y237008D02*
X227165Y238583D01*
X228740Y234646D02*
Y237008D01*
X233268Y230118D02*
X228740Y234646D01*
X233268Y227756D02*
Y230118D01*
Y197638D02*
Y210827D01*
X232874Y197244D02*
X233268Y197638D01*
X229724Y222244D02*
X225394D01*
X223622Y220472D02*
X225394Y222244D01*
X223622Y220472D02*
X222047D01*
X242717Y224213D02*
X242815Y224311D01*
X244390D02*
X242815D01*
X244390D02*
X246426Y226347D01*
Y237595D01*
X251360Y242529D01*
X261024Y246260D02*
X260827D01*
X253346Y222244D02*
X254921Y223819D01*
X224016Y213090D02*
X225295Y214370D01*
X217529Y212214D02*
X220866Y215551D01*
X217529Y212214D02*
X210344D01*
X209842Y211713D02*
X210344Y212214D01*
X276378Y226378D02*
Y231890D01*
Y245276D02*
X269094D01*
X268110Y246260D01*
X274213Y224213D02*
X268898D01*
X274213D02*
X276378Y226378D01*
X268110Y246260D02*
X267913D01*
X245317Y245669D02*
X240059D01*
X245317D02*
X248870Y249222D01*
X239272Y244882D02*
X240059Y245669D01*
X247676Y215195D02*
Y215468D01*
X244837Y218307D01*
X244201D01*
X229724Y224213D02*
X223819D01*
X276575Y197835D02*
X276772Y198031D01*
X276575Y197835D02*
X273819D01*
X272244Y196260D02*
X273819Y197835D01*
X250787Y194230D02*
Y197240D01*
X249337Y198690D01*
Y202238D02*
X247244Y204331D01*
X249337Y198690D02*
Y202238D01*
X254724Y197047D02*
X256102Y198425D01*
X258268Y199117D02*
Y201969D01*
X257576Y198425D02*
X256102D01*
X257576D02*
X258268Y199117D01*
X260698Y202627D02*
X261811Y203740D01*
X258268Y201969D02*
X258926Y202627D01*
X260698D02*
X258926D01*
X260039Y194291D02*
Y195472D01*
X259055Y193307D02*
X251710D01*
X259055D02*
X260039Y194291D01*
X251710Y193307D02*
X250787Y194230D01*
X261811Y197047D02*
X261614D01*
X260039Y195472D02*
X261614Y197047D01*
X261811D02*
X263189Y198425D01*
X270472Y201378D02*
X272047Y202953D01*
X270472Y201378D02*
X269094D01*
X266142Y198425D02*
X269094Y201378D01*
X266142Y198425D02*
X263189D01*
X232874Y190157D02*
Y197244D01*
X261614Y216929D02*
X254724D01*
X229724Y216339D02*
X226726D01*
X313255Y275520D02*
X308214D01*
X305759Y276361D02*
X306170Y276772D01*
X305759Y276361D02*
X305101D01*
X306962Y276772D02*
X306170D01*
X304724Y275984D02*
X305101Y276361D01*
X308214Y275520D02*
X306962Y276772D01*
X313457Y275318D02*
X313255Y275520D01*
X315296Y275318D02*
X313457D01*
X316276Y274339D02*
X315296Y275318D01*
X305716Y278378D02*
X303180D01*
X305734Y278359D02*
X305716Y278378D01*
X312825Y280789D02*
X312276Y281339D01*
X307337Y278359D02*
X305734D01*
X312825Y277369D02*
Y280789D01*
X301325Y276234D02*
X301181Y276378D01*
X301325Y275881D02*
Y276234D01*
X301181Y276378D02*
X303180Y278378D01*
X308789Y276907D02*
X307337Y278359D01*
X312363Y276907D02*
X308789D01*
X312363D02*
X312825Y277369D01*
X254921Y231102D02*
X254921Y231102D01*
X261811Y223819D02*
X261614Y224016D01*
X261811Y217126D02*
Y223819D01*
X261614Y224016D02*
X261729Y224131D01*
X268816D02*
X261729D01*
X268816D02*
X268898Y224213D01*
X264951Y249222D02*
X248870D01*
X267913Y246260D02*
X264951Y249222D01*
X239272Y244882D02*
X234449D01*
X268290Y216912D02*
X262025D01*
X268290D02*
X268701Y217323D01*
X262025Y216912D02*
X261811Y217126D01*
X275197Y217126D02*
X275394Y217323D01*
X275197Y210039D02*
Y217126D01*
X275394Y209842D02*
X275197Y210039D01*
X268110Y210433D02*
X261811D01*
X268898Y230906D02*
X268701Y231102D01*
X261614D01*
X261614Y216929D02*
X261811Y217126D01*
X242724Y218304D02*
X241936D01*
X228421Y255339D02*
X228248Y255512D01*
X237276Y255339D02*
X228421D01*
X237362D02*
X237828Y255805D01*
X237362Y255339D02*
X237276D01*
X226726Y216339D02*
X226135Y216929D01*
X71260Y209252D02*
X71850Y209842D01*
X70079Y203543D02*
Y203808D01*
X71260Y204989D01*
Y209252D01*
X71850Y209842D02*
X71260Y210433D01*
X26945Y215551D02*
X28322Y216929D01*
X29285D02*
X28322D01*
X26945Y215551D02*
X24016D01*
X55709Y244882D02*
X53543D01*
X47638Y238976D02*
X53543Y244882D01*
X45866Y226181D02*
Y227756D01*
X47638Y229528D02*
Y238976D01*
X45866Y227756D02*
X47638Y229528D01*
X55709Y244882D02*
X57087Y246260D01*
X53938Y199202D02*
Y208267D01*
X57874Y197047D02*
X56501Y198420D01*
X54719D01*
X53938Y208267D02*
X47835Y214370D01*
X54719Y198420D02*
X53938Y199202D01*
X47835Y214370D02*
X45866D01*
X32874Y226181D02*
X29983D01*
X28999Y227165D01*
X27165D01*
X32874Y214370D02*
X28445D01*
X42323Y227756D02*
Y244783D01*
X42421Y244882D01*
X56496Y222244D02*
X45768D01*
X58071Y223819D02*
Y224016D01*
Y231102D01*
X60246Y242529D02*
X54510D01*
X60246D02*
X63976Y246260D01*
X51099Y200082D02*
X42362Y208819D01*
X75394Y196260D02*
X70276D01*
X65748Y191732D02*
X70276Y196260D01*
X65748Y191732D02*
X54473D01*
X51099Y198116D02*
Y200082D01*
X54473Y191732D02*
X52487Y193718D01*
Y196728D01*
X51099Y198116D01*
X42362Y208819D02*
Y210788D01*
X42323Y210827D01*
X57874Y217126D02*
X56496Y218504D01*
X51818D01*
X50046Y220276D01*
X45866D01*
X30315Y238583D02*
X30118D01*
X31890Y237008D02*
X30315Y238583D01*
X31890Y234646D02*
Y237008D01*
X36417Y230118D02*
X31890Y234646D01*
X36417Y227756D02*
Y230118D01*
Y197638D02*
Y210827D01*
X36024Y197244D02*
X36417Y197638D01*
X32874Y222244D02*
X28543D01*
X26772Y220472D02*
X28543Y222244D01*
X26772Y220472D02*
X25197D01*
X45866Y224213D02*
X45965Y224311D01*
X47539D02*
X45965D01*
X47539D02*
X49575Y226347D01*
Y237595D01*
X54510Y242529D01*
X64173Y246260D02*
X63976D01*
X56496Y222244D02*
X58071Y223819D01*
X27165Y213090D02*
X28445Y214370D01*
X20679Y212214D02*
X24016Y215551D01*
X20679Y212214D02*
X13494D01*
X12992Y211713D02*
X13494Y212214D01*
X79528Y226378D02*
Y231890D01*
Y245276D02*
X72244D01*
X71260Y246260D01*
X77362Y224213D02*
X72047D01*
X77362D02*
X79528Y226378D01*
X71260Y246260D02*
X71063D01*
X48467Y245669D02*
X43209D01*
X48467D02*
X52019Y249222D01*
X42421Y244882D02*
X43209Y245669D01*
X50825Y215195D02*
Y215468D01*
X47986Y218307D01*
X47350D01*
X32874Y224213D02*
X26969D01*
X79725Y197835D02*
X79922Y198031D01*
X79725Y197835D02*
X76968D01*
X75394Y196260D02*
X76968Y197835D01*
X53937Y194230D02*
Y197240D01*
X52487Y198690D01*
Y202238D02*
X50394Y204331D01*
X52487Y198690D02*
Y202238D01*
X57874Y197047D02*
X59252Y198425D01*
X61417Y199117D02*
Y201969D01*
X60726Y198425D02*
X59252D01*
X60726D02*
X61417Y199117D01*
X63847Y202627D02*
X64961Y203740D01*
X61417Y201969D02*
X62075Y202627D01*
X63847D02*
X62075D01*
X63189Y194291D02*
Y195472D01*
X62205Y193307D02*
X54860D01*
X62205D02*
X63189Y194291D01*
X54860Y193307D02*
X53937Y194230D01*
X64961Y197047D02*
X64764D01*
X63189Y195472D02*
X64764Y197047D01*
X64961D02*
X66339Y198425D01*
X73622Y201378D02*
X75197Y202953D01*
X73622Y201378D02*
X72244D01*
X69291Y198425D02*
X72244Y201378D01*
X69291Y198425D02*
X66339D01*
X36024Y190157D02*
Y197244D01*
X64764Y216929D02*
X57874D01*
X32874Y216339D02*
X29875D01*
X116405Y275520D02*
X111364D01*
X108909Y276361D02*
X109319Y276772D01*
X108909Y276361D02*
X108251D01*
X110112Y276772D02*
X109319D01*
X107874Y275984D02*
X108251Y276361D01*
X111364Y275520D02*
X110112Y276772D01*
X116607Y275318D02*
X116405Y275520D01*
X118446Y275318D02*
X116607D01*
X119425Y274339D02*
X118446Y275318D01*
X108865Y278378D02*
X106330D01*
X108884Y278359D02*
X108865Y278378D01*
X115974Y280789D02*
X115425Y281339D01*
X110487Y278359D02*
X108884D01*
X115974Y277369D02*
Y280789D01*
X104475Y276234D02*
X104330Y276378D01*
X104475Y275881D02*
Y276234D01*
X104330Y276378D02*
X106330Y278378D01*
X111938Y276907D02*
X110487Y278359D01*
X115513Y276907D02*
X111938D01*
X115513D02*
X115974Y277369D01*
X58071Y231102D02*
X58071Y231102D01*
X64961Y223819D02*
X64764Y224016D01*
X64961Y217126D02*
Y223819D01*
X64764Y224016D02*
X64879Y224131D01*
X71965D02*
X64879D01*
X71965D02*
X72047Y224213D01*
X68101Y249222D02*
X52019D01*
X71063Y246260D02*
X68101Y249222D01*
X42421Y244882D02*
X37598D01*
X71440Y216912D02*
X65174D01*
X71440D02*
X71850Y217323D01*
X65174Y216912D02*
X64961Y217126D01*
X78347Y217126D02*
X78543Y217323D01*
X78347Y210039D02*
Y217126D01*
X78543Y209842D02*
X78347Y210039D01*
X71260Y210433D02*
X64961D01*
X72047Y230906D02*
X71850Y231102D01*
X64764D01*
X64764Y216929D02*
X64961Y217126D01*
X45873Y218304D02*
X45086D01*
X31571Y255339D02*
X31398Y255512D01*
X40425Y255339D02*
X31571D01*
X40511D02*
X40977Y255805D01*
X40511Y255339D02*
X40425D01*
X29875Y216339D02*
X29285Y216929D01*
D11*
X261811Y92913D02*
D03*
Y81890D02*
D03*
X275197Y92913D02*
D03*
Y81890D02*
D03*
X288583Y92913D02*
D03*
Y81890D02*
D03*
X301969Y92913D02*
D03*
Y81890D02*
D03*
X64961Y92913D02*
D03*
Y81890D02*
D03*
X78347Y92913D02*
D03*
Y81890D02*
D03*
X91732Y92913D02*
D03*
Y81890D02*
D03*
X105118Y92913D02*
D03*
Y81890D02*
D03*
D12*
X254724Y197047D02*
D03*
Y203740D02*
D03*
X308661Y210827D02*
D03*
Y217520D02*
D03*
X315748Y217520D02*
D03*
Y210827D02*
D03*
X254724Y217126D02*
D03*
Y210433D02*
D03*
X261811Y210433D02*
D03*
Y217126D02*
D03*
X210236Y225787D02*
D03*
Y219094D02*
D03*
X272047Y202953D02*
D03*
Y196260D02*
D03*
X261811Y197047D02*
D03*
Y203740D02*
D03*
X253937Y246260D02*
D03*
Y239567D02*
D03*
X268110Y246260D02*
D03*
Y239567D02*
D03*
X219685Y240354D02*
D03*
Y247047D02*
D03*
X268898Y230906D02*
D03*
Y224213D02*
D03*
X261024Y239567D02*
D03*
Y246260D02*
D03*
X251575Y84055D02*
D03*
Y90748D02*
D03*
X57874Y197047D02*
D03*
Y203740D02*
D03*
X111811Y210827D02*
D03*
Y217520D02*
D03*
X118898Y217520D02*
D03*
Y210827D02*
D03*
X57874Y217126D02*
D03*
Y210433D02*
D03*
X64961Y210433D02*
D03*
Y217126D02*
D03*
X13386Y225787D02*
D03*
Y219094D02*
D03*
X75197Y202953D02*
D03*
Y196260D02*
D03*
X64961Y197047D02*
D03*
Y203740D02*
D03*
X57087Y246260D02*
D03*
Y239567D02*
D03*
X71260Y246260D02*
D03*
Y239567D02*
D03*
X22835Y240354D02*
D03*
Y247047D02*
D03*
X72047Y230906D02*
D03*
Y224213D02*
D03*
X64173Y239567D02*
D03*
Y246260D02*
D03*
X54724Y84055D02*
D03*
Y90748D02*
D03*
D16*
X266339Y291339D02*
D03*
X273031D02*
D03*
X339173Y38189D02*
D03*
X345866D02*
D03*
X222244Y255512D02*
D03*
X228937D02*
D03*
X254921Y231102D02*
D03*
X261614D02*
D03*
X268701Y209842D02*
D03*
X275394D02*
D03*
X239567Y190157D02*
D03*
X232874D02*
D03*
X226969Y245669D02*
D03*
X233661D02*
D03*
X322638Y210630D02*
D03*
X329331D02*
D03*
X275394Y217323D02*
D03*
X268701D02*
D03*
X254921Y224016D02*
D03*
X261614D02*
D03*
X239567Y197244D02*
D03*
X232874D02*
D03*
X218701Y233071D02*
D03*
X212008D02*
D03*
X226969Y238583D02*
D03*
X233661D02*
D03*
X69488Y291339D02*
D03*
X76181D02*
D03*
X142323Y38189D02*
D03*
X149016D02*
D03*
X25394Y255512D02*
D03*
X32087D02*
D03*
X58071Y231102D02*
D03*
X64764D02*
D03*
X71850Y209842D02*
D03*
X78543D02*
D03*
X42717Y190157D02*
D03*
X36024D02*
D03*
X30118Y245669D02*
D03*
X36811D02*
D03*
X125787Y210630D02*
D03*
X132480D02*
D03*
X78543Y217323D02*
D03*
X71850D02*
D03*
X58071Y224016D02*
D03*
X64764D02*
D03*
X42717Y197244D02*
D03*
X36024D02*
D03*
X21850Y233071D02*
D03*
X15157D02*
D03*
X30118Y238583D02*
D03*
X36811D02*
D03*
D22*
X205306Y86427D02*
Y239558D01*
X212205Y79527D02*
X205306Y86427D01*
Y239558D02*
X212205Y246457D01*
X212598Y246850D02*
Y253150D01*
X212205Y246457D02*
X212598Y246850D01*
X216142Y79527D02*
X212205D01*
X220079D02*
X216142D01*
X219094Y246457D02*
X212205D01*
X219094D02*
X219685Y247047D01*
X276378Y238583D02*
X269094D01*
X268110Y239567D01*
X261024D02*
X253937D01*
X268110D02*
X261024D01*
X248819Y224733D02*
Y234449D01*
X247676Y214923D02*
Y215195D01*
X251181Y211417D02*
X247676Y214923D01*
X245669Y87795D02*
Y91339D01*
X244468Y86594D02*
X245669Y87795D01*
X244468Y86594D02*
X241358D01*
X222647Y223041D02*
X223819Y224213D01*
X215300Y222987D02*
X215353Y223041D01*
X222647D02*
X215353D01*
X254724Y203740D02*
Y210433D01*
X253740Y211417D01*
X251181D01*
X223810Y183277D02*
Y203937D01*
X235433Y142126D02*
X233465Y144095D01*
Y173622D01*
X223810Y183277D01*
X314567Y201575D02*
Y209842D01*
X311417Y198425D02*
X314567Y201575D01*
X314961Y210039D02*
X314764D01*
X314567Y209842D02*
X314764Y210039D01*
X314961D02*
X315748Y210827D01*
X321654Y209646D02*
X322638Y210630D01*
X321654Y207716D02*
Y209646D01*
X320500Y206562D02*
X321654Y207716D01*
X320500Y206562D02*
X317980D01*
X317830Y206412D02*
X317980Y206562D01*
X314370Y210630D02*
X308858D01*
X315256D02*
X314370D01*
X315748Y217520D02*
Y221654D01*
X313143Y224258D02*
X308025D01*
X315748Y221654D02*
X313143Y224258D01*
X216428Y219094D02*
X210236D01*
X216428D02*
X217806Y220472D01*
X225994Y239558D02*
X220482D01*
X226969Y238583D02*
X225994Y239558D01*
X220482D02*
X219685Y240354D01*
X223810Y203937D02*
Y212885D01*
X308858Y210630D02*
X308661Y210827D01*
X222198Y227408D02*
X219291Y230315D01*
X224016Y227165D02*
X223773Y227408D01*
X222198D01*
X219291Y232185D02*
X218406Y233071D01*
X222047Y220472D02*
X217806D01*
X308025Y224258D02*
X307874Y224409D01*
X226969Y245669D02*
X226279Y246358D01*
X220374D01*
X219685Y247047D01*
X211417Y226969D02*
Y232480D01*
X210236Y225787D02*
X211417Y226969D01*
Y232480D02*
X212008Y233071D01*
X329528Y205512D02*
X329429Y205610D01*
Y210531D01*
X329331Y210630D01*
X315256D02*
X315748Y211122D01*
X315748Y210827D02*
Y211122D01*
X315748Y211122D01*
X239567Y139567D02*
Y190157D01*
X232070Y132070D02*
X239567Y139567D01*
X248819Y234449D02*
X253937Y239567D01*
X223810Y212885D02*
X224016Y213090D01*
X245650Y98459D02*
Y101555D01*
X244488Y97297D02*
X245650Y98459D01*
X244488Y97244D02*
Y97297D01*
X219291Y230315D02*
Y232185D01*
X8455Y86427D02*
Y239558D01*
X15354Y79527D02*
X8455Y86427D01*
Y239558D02*
X15354Y246457D01*
X15748Y246850D02*
Y253150D01*
X15354Y246457D02*
X15748Y246850D01*
X19291Y79527D02*
X15354D01*
X23228D02*
X19291D01*
X22244Y246457D02*
X15354D01*
X22244D02*
X22835Y247047D01*
X79528Y238583D02*
X72244D01*
X71260Y239567D01*
X64173D02*
X57087D01*
X71260D02*
X64173D01*
X51968Y224733D02*
Y234449D01*
X50825Y214923D02*
Y215195D01*
X54331Y211417D02*
X50825Y214923D01*
X48819Y87795D02*
Y91339D01*
X47618Y86594D02*
X48819Y87795D01*
X47618Y86594D02*
X44508D01*
X25797Y223041D02*
X26969Y224213D01*
X18449Y222987D02*
X18503Y223041D01*
X25797D02*
X18503D01*
X57874Y203740D02*
Y210433D01*
X56890Y211417D01*
X54331D01*
X26959Y183277D02*
Y203937D01*
X38583Y142126D02*
X36614Y144095D01*
Y173622D01*
X26959Y183277D01*
X117717Y201575D02*
Y209842D01*
X114567Y198425D02*
X117717Y201575D01*
X118110Y210039D02*
X117913D01*
X117717Y209842D02*
X117913Y210039D01*
X118110D02*
X118898Y210827D01*
X124803Y209646D02*
X125787Y210630D01*
X124803Y207716D02*
Y209646D01*
X123650Y206562D02*
X124803Y207716D01*
X123650Y206562D02*
X121130D01*
X120979Y206412D02*
X121130Y206562D01*
X117520Y210630D02*
X112008D01*
X118405D02*
X117520D01*
X118898Y217520D02*
Y221654D01*
X116293Y224258D02*
X111174D01*
X118898Y221654D02*
X116293Y224258D01*
X19577Y219094D02*
X13386D01*
X19577D02*
X20955Y220472D01*
X29143Y239558D02*
X23631D01*
X30118Y238583D02*
X29143Y239558D01*
X23631D02*
X22835Y240354D01*
X26959Y203937D02*
Y212885D01*
X112008Y210630D02*
X111811Y210827D01*
X25348Y227408D02*
X22441Y230315D01*
X27165Y227165D02*
X26923Y227408D01*
X25348D01*
X22441Y232185D02*
X21555Y233071D01*
X25197Y220472D02*
X20955D01*
X111174Y224258D02*
X111024Y224409D01*
X30118Y245669D02*
X29429Y246358D01*
X23524D01*
X22835Y247047D01*
X14567Y226969D02*
Y232480D01*
X13386Y225787D02*
X14567Y226969D01*
Y232480D02*
X15157Y233071D01*
X132677Y205512D02*
X132579Y205610D01*
Y210531D01*
X132480Y210630D01*
X118405D02*
X118898Y211122D01*
X118898Y210827D02*
Y211122D01*
X118898Y211122D01*
X42717Y139567D02*
Y190157D01*
X35219Y132070D02*
X42717Y139567D01*
X51968Y234449D02*
X57087Y239567D01*
X26959Y212885D02*
X27165Y213090D01*
X48799Y98459D02*
Y101555D01*
X47638Y97297D02*
X48799Y98459D01*
X47638Y97244D02*
Y97297D01*
X22441Y230315D02*
Y232185D01*
D23*
X211811Y198819D02*
X211475Y199154D01*
X210769D01*
X209842Y200081D01*
Y203248D01*
X326077Y269989D02*
X312689D01*
X310236Y272441D02*
X300787D01*
X312689Y269989D02*
X310236Y272441D01*
X300787D02*
X295669Y277559D01*
X295276D01*
X326077Y269989D02*
X328530Y272441D01*
X328940D02*
X328530D01*
X328940D02*
X330837Y274339D01*
X332276D02*
X330837D01*
X14961Y198819D02*
X14625Y199154D01*
X13919D01*
X12992Y200081D01*
Y203248D01*
X129227Y269989D02*
X115838D01*
X113386Y272441D02*
X103937D01*
X115838Y269989D02*
X113386Y272441D01*
X103937D02*
X98819Y277559D01*
X98425D01*
X129227Y269989D02*
X131679Y272441D01*
X132089D02*
X131679D01*
X132089D02*
X133987Y274339D01*
X135425D02*
X133987D01*
D25*
X358189Y232283D02*
D03*
X346378D02*
D03*
X358189Y200787D02*
D03*
X346378D02*
D03*
X358189Y169291D02*
D03*
X346378D02*
D03*
X239276Y291339D02*
D03*
X351276D02*
D03*
X161339Y232283D02*
D03*
X149528D02*
D03*
X161339Y200787D02*
D03*
X149528D02*
D03*
X161339Y169291D02*
D03*
X149528D02*
D03*
X42425Y291339D02*
D03*
X154425D02*
D03*
D26*
X375197Y232283D02*
D03*
Y200787D02*
D03*
Y169291D02*
D03*
X178347Y232283D02*
D03*
Y200787D02*
D03*
Y169291D02*
D03*
D27*
X328740Y96063D02*
D03*
Y124409D02*
D03*
X131890Y96063D02*
D03*
Y124409D02*
D03*
D28*
X212598Y15748D02*
D03*
Y299213D02*
D03*
X377953D02*
D03*
Y15748D02*
D03*
X15748D02*
D03*
Y299213D02*
D03*
X181102D02*
D03*
Y15748D02*
D03*
D29*
X350787Y71653D02*
D03*
X153937D02*
D03*
D30*
X362598Y53150D02*
D03*
X165748D02*
D03*
D31*
X338976D02*
D03*
X142126D02*
D03*
D32*
X287402Y180512D02*
D03*
Y194291D02*
D03*
X246063Y26575D02*
D03*
Y12795D02*
D03*
X281496Y26575D02*
D03*
Y12795D02*
D03*
X250276Y281339D02*
D03*
X254276Y274339D02*
D03*
X258276Y281339D02*
D03*
X262276Y274339D02*
D03*
X266276Y281339D02*
D03*
X270276Y274339D02*
D03*
X274276Y281339D02*
D03*
X278276Y274339D02*
D03*
X237276Y255339D02*
D03*
X246276D02*
D03*
X282276D02*
D03*
X291276D02*
D03*
X312276Y281339D02*
D03*
X316276Y274339D02*
D03*
X320276Y281339D02*
D03*
X324276Y274339D02*
D03*
X328276Y281339D02*
D03*
X332276Y274339D02*
D03*
X336276Y281339D02*
D03*
X340276Y274339D02*
D03*
X299276Y255339D02*
D03*
X308276D02*
D03*
X344276D02*
D03*
X353276D02*
D03*
X90551Y180512D02*
D03*
Y194291D02*
D03*
X49213Y26575D02*
D03*
Y12795D02*
D03*
X84646Y26575D02*
D03*
Y12795D02*
D03*
X53425Y281339D02*
D03*
X57425Y274339D02*
D03*
X61425Y281339D02*
D03*
X65425Y274339D02*
D03*
X69425Y281339D02*
D03*
X73425Y274339D02*
D03*
X77425Y281339D02*
D03*
X81425Y274339D02*
D03*
X40425Y255339D02*
D03*
X49425D02*
D03*
X85425D02*
D03*
X94425D02*
D03*
X115425Y281339D02*
D03*
X119425Y274339D02*
D03*
X123425Y281339D02*
D03*
X127425Y274339D02*
D03*
X131425Y281339D02*
D03*
X135425Y274339D02*
D03*
X139425Y281339D02*
D03*
X143425Y274339D02*
D03*
X102425Y255339D02*
D03*
X111425D02*
D03*
X147425D02*
D03*
X156425D02*
D03*
D33*
X232276Y277839D02*
D03*
X358276D02*
D03*
X35425D02*
D03*
X161425D02*
D03*
D34*
X352362Y83661D02*
D03*
Y136811D02*
D03*
X155512Y83661D02*
D03*
Y136811D02*
D03*
D35*
X275590Y311024D02*
D03*
X265129Y207101D02*
D03*
X258268Y213779D02*
D03*
X272099Y213607D02*
D03*
X208661Y229528D02*
D03*
X238583Y219291D02*
D03*
X233858D02*
D03*
X236221Y210236D02*
D03*
X274016Y262205D02*
D03*
X265748Y260236D02*
D03*
X257874Y261417D02*
D03*
X251969D02*
D03*
X230315Y242126D02*
D03*
X224410Y251575D02*
D03*
X216535Y251969D02*
D03*
X337795Y151181D02*
D03*
X210630Y275590D02*
D03*
X209842Y265748D02*
D03*
X270866Y151181D02*
D03*
X325590Y142520D02*
D03*
X311024Y147638D02*
D03*
X307087D02*
D03*
X314961D02*
D03*
X324409D02*
D03*
X320472D02*
D03*
X328346D02*
D03*
X281102Y235039D02*
D03*
X288583Y241732D02*
D03*
X242520Y243307D02*
D03*
X227953Y55905D02*
D03*
X231890D02*
D03*
X235827D02*
D03*
X231890Y59842D02*
D03*
X227953Y59842D02*
D03*
X231890Y51968D02*
D03*
X235827D02*
D03*
X329528Y70472D02*
D03*
X328346Y43701D02*
D03*
X322835Y29528D02*
D03*
X314961D02*
D03*
X324803Y23622D02*
D03*
Y13780D02*
D03*
X332677Y35039D02*
D03*
X348031Y31496D02*
D03*
X344094Y157480D02*
D03*
X220866Y201181D02*
D03*
X211417Y195669D02*
D03*
X214567Y209842D02*
D03*
X230709Y135433D02*
D03*
X239370Y130709D02*
D03*
X234646D02*
D03*
X313779Y55118D02*
D03*
X310630D02*
D03*
X316929D02*
D03*
X320079D02*
D03*
X323228D02*
D03*
X313779Y52362D02*
D03*
X354331Y23622D02*
D03*
X310630Y52362D02*
D03*
X316929D02*
D03*
X320079D02*
D03*
X298031Y14173D02*
D03*
X300787Y23622D02*
D03*
Y20472D02*
D03*
X298031Y17323D02*
D03*
X300787Y14173D02*
D03*
Y17323D02*
D03*
X298031Y20472D02*
D03*
Y11024D02*
D03*
X323228Y52362D02*
D03*
X300787Y11024D02*
D03*
X298031Y23622D02*
D03*
X281496Y248819D02*
D03*
X226772Y220079D02*
D03*
X231102Y208268D02*
D03*
X279922Y190551D02*
D03*
X306693Y199213D02*
D03*
X298819D02*
D03*
X280709Y205906D02*
D03*
X284252Y199213D02*
D03*
X285039Y203937D02*
D03*
X291732D02*
D03*
X298819D02*
D03*
X289764Y213779D02*
D03*
X276772Y202756D02*
D03*
X264567Y188976D02*
D03*
X323228Y205512D02*
D03*
X241732Y230709D02*
D03*
X309449Y100000D02*
D03*
X340551Y108268D02*
D03*
X340551Y118897D02*
D03*
X341339Y64567D02*
D03*
X324803Y3937D02*
D03*
X314961D02*
D03*
X263779Y150787D02*
D03*
X216535Y226378D02*
D03*
X253937Y189370D02*
D03*
X264173Y251969D02*
D03*
X223229Y230708D02*
D03*
X214567Y242913D02*
D03*
X328740Y221260D02*
D03*
X319685D02*
D03*
X383071Y261024D02*
D03*
X245669Y248819D02*
D03*
X272835Y248031D02*
D03*
X250787Y252756D02*
D03*
X257874D02*
D03*
X233071Y258661D02*
D03*
X280709Y282283D02*
D03*
X296850Y282677D02*
D03*
X229528Y145276D02*
D03*
X233465Y138583D02*
D03*
X207874Y141732D02*
D03*
Y131890D02*
D03*
Y122047D02*
D03*
Y112205D02*
D03*
Y102362D02*
D03*
Y92520D02*
D03*
X200787Y29528D02*
D03*
X206299Y81496D02*
D03*
Y71653D02*
D03*
Y61811D02*
D03*
X251969Y41339D02*
D03*
X242126D02*
D03*
X228346Y289370D02*
D03*
X223228Y281496D02*
D03*
X241339Y277165D02*
D03*
X242126Y259842D02*
D03*
X308268Y266535D02*
D03*
X298425Y270079D02*
D03*
X370472Y242126D02*
D03*
X360630D02*
D03*
X360236Y247638D02*
D03*
X375984Y251575D02*
D03*
X370079Y247638D02*
D03*
X350787Y240945D02*
D03*
X333858Y259842D02*
D03*
X337402Y248031D02*
D03*
X328740Y251575D02*
D03*
X330315Y269291D02*
D03*
X340551Y265748D02*
D03*
X350394D02*
D03*
X324803Y291732D02*
D03*
X314961Y292126D02*
D03*
X305118D02*
D03*
X295276D02*
D03*
X285433D02*
D03*
X334646Y291339D02*
D03*
X354331Y301181D02*
D03*
X344488D02*
D03*
X334646D02*
D03*
X324803D02*
D03*
X314961D02*
D03*
X305118D02*
D03*
X295276D02*
D03*
X275590D02*
D03*
X285433D02*
D03*
X255906Y291339D02*
D03*
X236221Y301181D02*
D03*
X246063D02*
D03*
X255906D02*
D03*
X265748D02*
D03*
X208661Y238583D02*
D03*
X275590Y254724D02*
D03*
X291339Y248819D02*
D03*
X296850Y220079D02*
D03*
X288583Y228346D02*
D03*
Y235039D02*
D03*
X296063Y210630D02*
D03*
X281102Y213386D02*
D03*
X288976Y220866D02*
D03*
X302756Y223622D02*
D03*
X306693Y203937D02*
D03*
X311024Y206299D02*
D03*
X303150Y188976D02*
D03*
X301575Y194095D02*
D03*
X276378Y194882D02*
D03*
X294094Y194488D02*
D03*
X272441Y190157D02*
D03*
X287008Y188976D02*
D03*
X296063D02*
D03*
X273228Y228346D02*
D03*
X291732Y199213D02*
D03*
X309842Y192126D02*
D03*
X316142Y188976D02*
D03*
X360236Y137795D02*
D03*
X389764Y127953D02*
D03*
X350394Y89370D02*
D03*
X320866Y136614D02*
D03*
X321260Y116535D02*
D03*
Y106299D02*
D03*
X330709Y108268D02*
D03*
X262992Y157480D02*
D03*
X334646Y151181D02*
D03*
X360236Y206693D02*
D03*
X370079Y216535D02*
D03*
X360236Y226378D02*
D03*
Y216535D02*
D03*
Y187008D02*
D03*
Y177165D02*
D03*
X370079Y187008D02*
D03*
Y177165D02*
D03*
X350394Y157874D02*
D03*
Y147638D02*
D03*
X340551D02*
D03*
Y137795D02*
D03*
X330709D02*
D03*
X341339Y88583D02*
D03*
Y78740D02*
D03*
X340551Y127953D02*
D03*
X350394Y108268D02*
D03*
Y98425D02*
D03*
Y127953D02*
D03*
Y118110D02*
D03*
X360236Y68898D02*
D03*
Y88583D02*
D03*
Y78740D02*
D03*
Y108268D02*
D03*
Y98425D02*
D03*
Y157480D02*
D03*
Y147638D02*
D03*
Y127953D02*
D03*
Y118110D02*
D03*
X293701Y18504D02*
D03*
X275590Y13780D02*
D03*
X255906D02*
D03*
X360252Y41361D02*
D03*
X364173Y31496D02*
D03*
X350394Y62992D02*
D03*
Y43307D02*
D03*
X354724Y31496D02*
D03*
X354331Y13780D02*
D03*
X370079Y39370D02*
D03*
Y49213D02*
D03*
X379921D02*
D03*
Y39370D02*
D03*
Y78740D02*
D03*
Y68898D02*
D03*
Y59055D02*
D03*
X370079Y68898D02*
D03*
Y59055D02*
D03*
Y98425D02*
D03*
Y88583D02*
D03*
Y78740D02*
D03*
Y118110D02*
D03*
Y108268D02*
D03*
Y147638D02*
D03*
Y137795D02*
D03*
Y127953D02*
D03*
Y157480D02*
D03*
X364173Y285433D02*
D03*
X360236Y265748D02*
D03*
Y255906D02*
D03*
X370079D02*
D03*
Y265748D02*
D03*
Y275590D02*
D03*
X379921Y216535D02*
D03*
Y246063D02*
D03*
Y277559D02*
D03*
Y187008D02*
D03*
Y137795D02*
D03*
Y147638D02*
D03*
Y157480D02*
D03*
Y177165D02*
D03*
Y88583D02*
D03*
Y98425D02*
D03*
Y108268D02*
D03*
Y118110D02*
D03*
Y127953D02*
D03*
X226378Y33465D02*
D03*
X236221D02*
D03*
Y23622D02*
D03*
Y13780D02*
D03*
X265748Y3937D02*
D03*
X255906D02*
D03*
X246063D02*
D03*
X236221D02*
D03*
X226378D02*
D03*
X305118D02*
D03*
X295276D02*
D03*
X285433D02*
D03*
X275590D02*
D03*
X334646D02*
D03*
X344488D02*
D03*
X354331D02*
D03*
X364173D02*
D03*
X226378Y311024D02*
D03*
X236221D02*
D03*
X246063D02*
D03*
X255906D02*
D03*
X265748D02*
D03*
X285433D02*
D03*
X295276D02*
D03*
X305118D02*
D03*
X314961D02*
D03*
X324803D02*
D03*
X334646D02*
D03*
X344488D02*
D03*
X354331D02*
D03*
X364173D02*
D03*
X389764Y285433D02*
D03*
Y274016D02*
D03*
Y236221D02*
D03*
Y226378D02*
D03*
Y246063D02*
D03*
Y187008D02*
D03*
Y177165D02*
D03*
Y196850D02*
D03*
Y206693D02*
D03*
Y216535D02*
D03*
Y137795D02*
D03*
Y147638D02*
D03*
Y157480D02*
D03*
Y167323D02*
D03*
Y88583D02*
D03*
Y78740D02*
D03*
Y98425D02*
D03*
Y108268D02*
D03*
Y118110D02*
D03*
Y68898D02*
D03*
Y59055D02*
D03*
Y49213D02*
D03*
Y29528D02*
D03*
Y39370D02*
D03*
X253937Y124016D02*
D03*
X254331Y114173D02*
D03*
X253150Y104331D02*
D03*
X283465D02*
D03*
X293701D02*
D03*
X304331D02*
D03*
X303150Y124016D02*
D03*
Y133858D02*
D03*
X293307Y114173D02*
D03*
X303150D02*
D03*
X283465D02*
D03*
Y124016D02*
D03*
Y133858D02*
D03*
X273622D02*
D03*
Y124016D02*
D03*
Y114173D02*
D03*
Y104331D02*
D03*
X263386D02*
D03*
X263779Y114173D02*
D03*
Y124016D02*
D03*
Y133858D02*
D03*
X253937D02*
D03*
X311811Y104331D02*
D03*
Y114173D02*
D03*
Y124016D02*
D03*
Y133858D02*
D03*
X244488Y268110D02*
D03*
X236221Y265748D02*
D03*
X226378D02*
D03*
X220472Y275590D02*
D03*
X218898Y265748D02*
D03*
X218110Y255906D02*
D03*
X200787D02*
D03*
Y265748D02*
D03*
Y275590D02*
D03*
Y285433D02*
D03*
Y206693D02*
D03*
Y216535D02*
D03*
Y226378D02*
D03*
Y236221D02*
D03*
Y246063D02*
D03*
Y157480D02*
D03*
Y167323D02*
D03*
Y177165D02*
D03*
Y187008D02*
D03*
Y196850D02*
D03*
Y147638D02*
D03*
Y137795D02*
D03*
Y127953D02*
D03*
Y118110D02*
D03*
Y108268D02*
D03*
Y98425D02*
D03*
Y88583D02*
D03*
Y78740D02*
D03*
Y68898D02*
D03*
Y59055D02*
D03*
Y49213D02*
D03*
Y39370D02*
D03*
X256299Y235433D02*
D03*
X244882Y199606D02*
D03*
X235433Y202362D02*
D03*
X240551D02*
D03*
X243307Y208268D02*
D03*
X220472Y185433D02*
D03*
X230709Y180709D02*
D03*
X272441Y235433D02*
D03*
X264567D02*
D03*
X237796Y248818D02*
D03*
X230315Y202362D02*
D03*
X316142Y197244D02*
D03*
X311811Y143701D02*
D03*
X303150Y144488D02*
D03*
X294488D02*
D03*
X281496Y144095D02*
D03*
X273622Y143701D02*
D03*
X263779D02*
D03*
X253937D02*
D03*
X244094D02*
D03*
Y153543D02*
D03*
Y163386D02*
D03*
Y173228D02*
D03*
X274016Y151181D02*
D03*
X280315Y147638D02*
D03*
X288189D02*
D03*
X284252D02*
D03*
X301575D02*
D03*
X293701D02*
D03*
X297638D02*
D03*
X281102Y241732D02*
D03*
X228740Y194882D02*
D03*
X220079Y63779D02*
D03*
X257874Y98032D02*
D03*
X261811D02*
D03*
X265748D02*
D03*
X251575Y96063D02*
D03*
X247638Y79527D02*
D03*
X251575D02*
D03*
X247638Y96063D02*
D03*
X236221Y186614D02*
D03*
X226772Y189370D02*
D03*
X296457Y246063D02*
D03*
X250394Y122835D02*
D03*
X253543Y100787D02*
D03*
X250394Y99213D02*
D03*
Y118898D02*
D03*
Y103150D02*
D03*
Y114961D02*
D03*
Y111024D02*
D03*
Y107087D02*
D03*
X239764Y51968D02*
D03*
X243701D02*
D03*
X247638D02*
D03*
X236221Y214961D02*
D03*
X226772Y211811D02*
D03*
X244094Y183071D02*
D03*
X236221Y175197D02*
D03*
X236614Y155512D02*
D03*
Y165354D02*
D03*
X211417Y185433D02*
D03*
X219291Y194488D02*
D03*
X214567Y201181D02*
D03*
X210630Y207480D02*
D03*
X225984Y233858D02*
D03*
X227165Y228740D02*
D03*
X236614Y241339D02*
D03*
X233071Y233465D02*
D03*
X236221Y229528D02*
D03*
X241732Y237402D02*
D03*
X250000Y247244D02*
D03*
X281102Y228740D02*
D03*
X273622Y221654D02*
D03*
X281102Y221260D02*
D03*
X247244Y208268D02*
D03*
X297244Y229528D02*
D03*
Y226378D02*
D03*
X296457Y234646D02*
D03*
Y237795D02*
D03*
Y242913D02*
D03*
X287402Y265748D02*
D03*
X316929D02*
D03*
Y253937D02*
D03*
X301575Y261417D02*
D03*
X305906Y281890D02*
D03*
X318898Y202756D02*
D03*
X319685Y197244D02*
D03*
X246063Y192913D02*
D03*
X329528Y199606D02*
D03*
X325590Y198031D02*
D03*
Y204724D02*
D03*
X226378Y151575D02*
D03*
X222441D02*
D03*
X218504D02*
D03*
X214567D02*
D03*
X226378Y155512D02*
D03*
X222441D02*
D03*
X218504D02*
D03*
X214567D02*
D03*
X210630D02*
D03*
Y151575D02*
D03*
Y159449D02*
D03*
X214567D02*
D03*
X218504D02*
D03*
X222441D02*
D03*
X226378D02*
D03*
Y163386D02*
D03*
Y167323D02*
D03*
Y171260D02*
D03*
Y175197D02*
D03*
X222441Y179134D02*
D03*
Y175197D02*
D03*
Y171260D02*
D03*
Y167323D02*
D03*
Y163386D02*
D03*
X260630Y70866D02*
D03*
Y66929D02*
D03*
Y62992D02*
D03*
Y59055D02*
D03*
Y55118D02*
D03*
Y51181D02*
D03*
Y47244D02*
D03*
Y43307D02*
D03*
X236614Y145669D02*
D03*
X214961Y126772D02*
D03*
Y122835D02*
D03*
Y118898D02*
D03*
Y114961D02*
D03*
Y111024D02*
D03*
Y107087D02*
D03*
Y103150D02*
D03*
Y99213D02*
D03*
Y95276D02*
D03*
Y91339D02*
D03*
X251575Y55905D02*
D03*
X247638D02*
D03*
X243701D02*
D03*
X239764D02*
D03*
X234646Y122835D02*
D03*
Y95276D02*
D03*
X251575Y51968D02*
D03*
X238583Y95276D02*
D03*
X284252Y70866D02*
D03*
X236221Y223622D02*
D03*
X218898Y91339D02*
D03*
X222835D02*
D03*
X218898Y95276D02*
D03*
X238583Y122835D02*
D03*
X301969Y98032D02*
D03*
X305906D02*
D03*
X298031D02*
D03*
X288583D02*
D03*
X292520D02*
D03*
X284646D02*
D03*
X275197D02*
D03*
X279134D02*
D03*
X271260D02*
D03*
X247638Y71653D02*
D03*
X226772Y91339D02*
D03*
X230709D02*
D03*
X234646D02*
D03*
X238583D02*
D03*
X218898Y126772D02*
D03*
X222835D02*
D03*
X226772D02*
D03*
X230709D02*
D03*
X218898Y122835D02*
D03*
X222835D02*
D03*
X226772D02*
D03*
X230709D02*
D03*
Y95276D02*
D03*
X226772D02*
D03*
X222835D02*
D03*
X218898Y118898D02*
D03*
Y99213D02*
D03*
Y103150D02*
D03*
Y114961D02*
D03*
Y111024D02*
D03*
Y107087D02*
D03*
X243701Y59842D02*
D03*
X239764D02*
D03*
X235827D02*
D03*
X216142Y75590D02*
D03*
Y79527D02*
D03*
Y71653D02*
D03*
Y67716D02*
D03*
X220079D02*
D03*
Y71653D02*
D03*
Y79527D02*
D03*
Y75590D02*
D03*
X251575Y59842D02*
D03*
Y63779D02*
D03*
Y67716D02*
D03*
Y71653D02*
D03*
Y75590D02*
D03*
X247638Y59842D02*
D03*
Y63779D02*
D03*
Y67716D02*
D03*
Y75590D02*
D03*
X264567Y43307D02*
D03*
Y59055D02*
D03*
Y62992D02*
D03*
Y66929D02*
D03*
Y70866D02*
D03*
Y51181D02*
D03*
Y55118D02*
D03*
Y47244D02*
D03*
X280315Y70866D02*
D03*
X288189D02*
D03*
X292126D02*
D03*
X272441D02*
D03*
X276378D02*
D03*
X268504D02*
D03*
Y43307D02*
D03*
X276378D02*
D03*
X272441D02*
D03*
X292126D02*
D03*
X288189D02*
D03*
X284252D02*
D03*
X280315D02*
D03*
X257874Y76772D02*
D03*
X265748D02*
D03*
X261811D02*
D03*
X271260D02*
D03*
X279134D02*
D03*
X275197D02*
D03*
X284646D02*
D03*
X292520D02*
D03*
X288583D02*
D03*
X298031D02*
D03*
X301969D02*
D03*
X78740Y311024D02*
D03*
X68279Y207101D02*
D03*
X61417Y213779D02*
D03*
X75249Y213607D02*
D03*
X11811Y229528D02*
D03*
X41732Y219291D02*
D03*
X37008D02*
D03*
X39370Y210236D02*
D03*
X77165Y262205D02*
D03*
X68898Y260236D02*
D03*
X61024Y261417D02*
D03*
X55118D02*
D03*
X33465Y242126D02*
D03*
X27559Y251575D02*
D03*
X19685Y251969D02*
D03*
X140945Y151181D02*
D03*
X13780Y275590D02*
D03*
X12992Y265748D02*
D03*
X74016Y151181D02*
D03*
X128740Y142520D02*
D03*
X114173Y147638D02*
D03*
X110236D02*
D03*
X118110D02*
D03*
X127559D02*
D03*
X123622D02*
D03*
X131496D02*
D03*
X84252Y235039D02*
D03*
X91732Y241732D02*
D03*
X45669Y243307D02*
D03*
X31102Y55905D02*
D03*
X35039D02*
D03*
X38976D02*
D03*
X35039Y59842D02*
D03*
X31102Y59842D02*
D03*
X35039Y51968D02*
D03*
X38976D02*
D03*
X132677Y70472D02*
D03*
X131496Y43701D02*
D03*
X125984Y29528D02*
D03*
X118110D02*
D03*
X127953Y23622D02*
D03*
Y13780D02*
D03*
X135827Y35039D02*
D03*
X151181Y31496D02*
D03*
X147244Y157480D02*
D03*
X24016Y201181D02*
D03*
X14567Y195669D02*
D03*
X17717Y209842D02*
D03*
X33858Y135433D02*
D03*
X42520Y130709D02*
D03*
X37795D02*
D03*
X116929Y55118D02*
D03*
X113779D02*
D03*
X120079D02*
D03*
X123228D02*
D03*
X126378D02*
D03*
X116929Y52362D02*
D03*
X157480Y23622D02*
D03*
X113779Y52362D02*
D03*
X120079D02*
D03*
X123228D02*
D03*
X101181Y14173D02*
D03*
X103937Y23622D02*
D03*
Y20472D02*
D03*
X101181Y17323D02*
D03*
X103937Y14173D02*
D03*
Y17323D02*
D03*
X101181Y20472D02*
D03*
Y11024D02*
D03*
X126378Y52362D02*
D03*
X103937Y11024D02*
D03*
X101181Y23622D02*
D03*
X84646Y248819D02*
D03*
X29921Y220079D02*
D03*
X34252Y208268D02*
D03*
X83071Y190551D02*
D03*
X109843Y199213D02*
D03*
X101969D02*
D03*
X83858Y205906D02*
D03*
X87402Y199213D02*
D03*
X88189Y203937D02*
D03*
X94882D02*
D03*
X101969D02*
D03*
X92913Y213779D02*
D03*
X79921Y202756D02*
D03*
X67716Y188976D02*
D03*
X126378Y205512D02*
D03*
X44882Y230709D02*
D03*
X112598Y100000D02*
D03*
X143701Y108268D02*
D03*
X143701Y118897D02*
D03*
X144488Y64567D02*
D03*
X127953Y3937D02*
D03*
X118110D02*
D03*
X66929Y150787D02*
D03*
X19685Y226378D02*
D03*
X57087Y189370D02*
D03*
X67323Y251969D02*
D03*
X26378Y230708D02*
D03*
X17717Y242913D02*
D03*
X131890Y221260D02*
D03*
X122835D02*
D03*
X186221Y261024D02*
D03*
X48819Y248819D02*
D03*
X75984Y248031D02*
D03*
X53937Y252756D02*
D03*
X61024D02*
D03*
X36220Y258661D02*
D03*
X83858Y282283D02*
D03*
X100000Y282677D02*
D03*
X32677Y145276D02*
D03*
X36614Y138583D02*
D03*
X11024Y141732D02*
D03*
Y131890D02*
D03*
Y122047D02*
D03*
Y112205D02*
D03*
Y102362D02*
D03*
Y92520D02*
D03*
X3937Y29528D02*
D03*
X9449Y81496D02*
D03*
Y71653D02*
D03*
Y61811D02*
D03*
X55118Y41339D02*
D03*
X45276D02*
D03*
X31496Y289370D02*
D03*
X26378Y281496D02*
D03*
X44488Y277165D02*
D03*
X45276Y259842D02*
D03*
X111417Y266535D02*
D03*
X101575Y270079D02*
D03*
X173622Y242126D02*
D03*
X163779D02*
D03*
X163386Y247638D02*
D03*
X179134Y251575D02*
D03*
X173228Y247638D02*
D03*
X153937Y240945D02*
D03*
X137008Y259842D02*
D03*
X140551Y248031D02*
D03*
X131890Y251575D02*
D03*
X133465Y269291D02*
D03*
X143701Y265748D02*
D03*
X153543D02*
D03*
X127953Y291732D02*
D03*
X118110Y292126D02*
D03*
X108268D02*
D03*
X98425D02*
D03*
X88583D02*
D03*
X137795Y291339D02*
D03*
X157480Y301181D02*
D03*
X147638D02*
D03*
X137795D02*
D03*
X127953D02*
D03*
X118110D02*
D03*
X108268D02*
D03*
X98425D02*
D03*
X78740D02*
D03*
X88583D02*
D03*
X59055Y291339D02*
D03*
X39370Y301181D02*
D03*
X49213D02*
D03*
X59055D02*
D03*
X68898D02*
D03*
X11811Y238583D02*
D03*
X78740Y254724D02*
D03*
X94488Y248819D02*
D03*
X100000Y220079D02*
D03*
X91732Y228346D02*
D03*
Y235039D02*
D03*
X99213Y210630D02*
D03*
X84252Y213386D02*
D03*
X92126Y220866D02*
D03*
X105905Y223622D02*
D03*
X109843Y203937D02*
D03*
X114173Y206299D02*
D03*
X106299Y188976D02*
D03*
X104724Y194095D02*
D03*
X79528Y194882D02*
D03*
X97244Y194488D02*
D03*
X75591Y190157D02*
D03*
X90158Y188976D02*
D03*
X99213D02*
D03*
X76378Y228346D02*
D03*
X94882Y199213D02*
D03*
X112992Y192126D02*
D03*
X119291Y188976D02*
D03*
X163386Y137795D02*
D03*
X192913Y127953D02*
D03*
X153543Y89370D02*
D03*
X124016Y136614D02*
D03*
X124409Y116535D02*
D03*
Y106299D02*
D03*
X133858Y108268D02*
D03*
X66142Y157480D02*
D03*
X137795Y151181D02*
D03*
X163386Y206693D02*
D03*
X173228Y216535D02*
D03*
X163386Y226378D02*
D03*
Y216535D02*
D03*
Y187008D02*
D03*
Y177165D02*
D03*
X173228Y187008D02*
D03*
Y177165D02*
D03*
X153543Y157874D02*
D03*
Y147638D02*
D03*
X143701D02*
D03*
Y137795D02*
D03*
X133858D02*
D03*
X144488Y88583D02*
D03*
Y78740D02*
D03*
X143701Y127953D02*
D03*
X153543Y108268D02*
D03*
Y98425D02*
D03*
Y127953D02*
D03*
Y118110D02*
D03*
X163386Y68898D02*
D03*
Y88583D02*
D03*
Y78740D02*
D03*
Y108268D02*
D03*
Y98425D02*
D03*
Y157480D02*
D03*
Y147638D02*
D03*
Y127953D02*
D03*
Y118110D02*
D03*
X96850Y18504D02*
D03*
X78740Y13780D02*
D03*
X59055D02*
D03*
X163401Y41361D02*
D03*
X167323Y31496D02*
D03*
X153543Y62992D02*
D03*
Y43307D02*
D03*
X157874Y31496D02*
D03*
X157480Y13780D02*
D03*
X173228Y39370D02*
D03*
Y49213D02*
D03*
X183071D02*
D03*
Y39370D02*
D03*
Y78740D02*
D03*
Y68898D02*
D03*
Y59055D02*
D03*
X173228Y68898D02*
D03*
Y59055D02*
D03*
Y98425D02*
D03*
Y88583D02*
D03*
Y78740D02*
D03*
Y118110D02*
D03*
Y108268D02*
D03*
Y147638D02*
D03*
Y137795D02*
D03*
Y127953D02*
D03*
Y157480D02*
D03*
X167323Y285433D02*
D03*
X163386Y265748D02*
D03*
Y255906D02*
D03*
X173228D02*
D03*
Y265748D02*
D03*
Y275590D02*
D03*
X183071Y216535D02*
D03*
Y246063D02*
D03*
Y277559D02*
D03*
Y187008D02*
D03*
Y137795D02*
D03*
Y147638D02*
D03*
Y157480D02*
D03*
Y177165D02*
D03*
Y88583D02*
D03*
Y98425D02*
D03*
Y108268D02*
D03*
Y118110D02*
D03*
Y127953D02*
D03*
X29528Y33465D02*
D03*
X39370D02*
D03*
Y23622D02*
D03*
Y13780D02*
D03*
X68898Y3937D02*
D03*
X59055D02*
D03*
X49213D02*
D03*
X39370D02*
D03*
X29528D02*
D03*
X108268D02*
D03*
X98425D02*
D03*
X88583D02*
D03*
X78740D02*
D03*
X137795D02*
D03*
X147638D02*
D03*
X157480D02*
D03*
X167323D02*
D03*
X29528Y311024D02*
D03*
X39370D02*
D03*
X49213D02*
D03*
X59055D02*
D03*
X68898D02*
D03*
X88583D02*
D03*
X98425D02*
D03*
X108268D02*
D03*
X118110D02*
D03*
X127953D02*
D03*
X137795D02*
D03*
X147638D02*
D03*
X157480D02*
D03*
X167323D02*
D03*
X192913Y285433D02*
D03*
Y274016D02*
D03*
Y236221D02*
D03*
Y226378D02*
D03*
Y246063D02*
D03*
Y187008D02*
D03*
Y177165D02*
D03*
Y196850D02*
D03*
Y206693D02*
D03*
Y216535D02*
D03*
Y137795D02*
D03*
Y147638D02*
D03*
Y157480D02*
D03*
Y167323D02*
D03*
Y88583D02*
D03*
Y78740D02*
D03*
Y98425D02*
D03*
Y108268D02*
D03*
Y118110D02*
D03*
Y68898D02*
D03*
Y59055D02*
D03*
Y49213D02*
D03*
Y29528D02*
D03*
Y39370D02*
D03*
X57087Y124016D02*
D03*
X57480Y114173D02*
D03*
X56299Y104331D02*
D03*
X86614D02*
D03*
X96850D02*
D03*
X107480D02*
D03*
X106299Y124016D02*
D03*
Y133858D02*
D03*
X96457Y114173D02*
D03*
X106299D02*
D03*
X86614D02*
D03*
Y124016D02*
D03*
Y133858D02*
D03*
X76772D02*
D03*
Y124016D02*
D03*
Y114173D02*
D03*
Y104331D02*
D03*
X66535D02*
D03*
X66929Y114173D02*
D03*
Y124016D02*
D03*
Y133858D02*
D03*
X57087D02*
D03*
X114961Y104331D02*
D03*
Y114173D02*
D03*
Y124016D02*
D03*
Y133858D02*
D03*
X47638Y268110D02*
D03*
X39370Y265748D02*
D03*
X29528D02*
D03*
X23622Y275590D02*
D03*
X22047Y265748D02*
D03*
X21260Y255906D02*
D03*
X3937D02*
D03*
Y265748D02*
D03*
Y275590D02*
D03*
Y285433D02*
D03*
Y206693D02*
D03*
Y216535D02*
D03*
Y226378D02*
D03*
Y236221D02*
D03*
Y246063D02*
D03*
Y157480D02*
D03*
Y167323D02*
D03*
Y177165D02*
D03*
Y187008D02*
D03*
Y196850D02*
D03*
Y147638D02*
D03*
Y137795D02*
D03*
Y127953D02*
D03*
Y118110D02*
D03*
Y108268D02*
D03*
Y98425D02*
D03*
Y88583D02*
D03*
Y78740D02*
D03*
Y68898D02*
D03*
Y59055D02*
D03*
Y49213D02*
D03*
Y39370D02*
D03*
X59449Y235433D02*
D03*
X48031Y199606D02*
D03*
X38583Y202362D02*
D03*
X43701D02*
D03*
X46457Y208268D02*
D03*
X23622Y185433D02*
D03*
X33858Y180709D02*
D03*
X75591Y235433D02*
D03*
X67716D02*
D03*
X40945Y248818D02*
D03*
X33465Y202362D02*
D03*
X119291Y197244D02*
D03*
X114961Y143701D02*
D03*
X106299Y144488D02*
D03*
X97638D02*
D03*
X84646Y144095D02*
D03*
X76772Y143701D02*
D03*
X66929D02*
D03*
X57087D02*
D03*
X47244D02*
D03*
Y153543D02*
D03*
Y163386D02*
D03*
Y173228D02*
D03*
X77165Y151181D02*
D03*
X83465Y147638D02*
D03*
X91339D02*
D03*
X87402D02*
D03*
X104724D02*
D03*
X96850D02*
D03*
X100787D02*
D03*
X84252Y241732D02*
D03*
X31890Y194882D02*
D03*
X23228Y63779D02*
D03*
X61024Y98032D02*
D03*
X64961D02*
D03*
X68898D02*
D03*
X54724Y96063D02*
D03*
X50787Y79527D02*
D03*
X54724D02*
D03*
X50787Y96063D02*
D03*
X39370Y186614D02*
D03*
X29921Y189370D02*
D03*
X99606Y246063D02*
D03*
X53543Y122835D02*
D03*
X56693Y100787D02*
D03*
X53543Y99213D02*
D03*
Y118898D02*
D03*
Y103150D02*
D03*
Y114961D02*
D03*
Y111024D02*
D03*
Y107087D02*
D03*
X42913Y51968D02*
D03*
X46850D02*
D03*
X50787D02*
D03*
X39370Y214961D02*
D03*
X29921Y211811D02*
D03*
X47244Y183071D02*
D03*
X39370Y175197D02*
D03*
X39764Y155512D02*
D03*
Y165354D02*
D03*
X14567Y185433D02*
D03*
X22441Y194488D02*
D03*
X17717Y201181D02*
D03*
X13780Y207480D02*
D03*
X29134Y233858D02*
D03*
X30315Y228740D02*
D03*
X39764Y241339D02*
D03*
X36220Y233465D02*
D03*
X39370Y229528D02*
D03*
X44882Y237402D02*
D03*
X53150Y247244D02*
D03*
X84252Y228740D02*
D03*
X76772Y221654D02*
D03*
X84252Y221260D02*
D03*
X50394Y208268D02*
D03*
X100394Y229528D02*
D03*
Y226378D02*
D03*
X99606Y234646D02*
D03*
Y237795D02*
D03*
Y242913D02*
D03*
X90551Y265748D02*
D03*
X120079D02*
D03*
Y253937D02*
D03*
X104724Y261417D02*
D03*
X109055Y281890D02*
D03*
X122047Y202756D02*
D03*
X122835Y197244D02*
D03*
X49213Y192913D02*
D03*
X132677Y199606D02*
D03*
X128740Y198031D02*
D03*
Y204724D02*
D03*
X29528Y151575D02*
D03*
X25591D02*
D03*
X21654D02*
D03*
X17717D02*
D03*
X29528Y155512D02*
D03*
X25591D02*
D03*
X21654D02*
D03*
X17717D02*
D03*
X13780D02*
D03*
Y151575D02*
D03*
Y159449D02*
D03*
X17717D02*
D03*
X21654D02*
D03*
X25591D02*
D03*
X29528D02*
D03*
Y163386D02*
D03*
Y167323D02*
D03*
Y171260D02*
D03*
Y175197D02*
D03*
X25591Y179134D02*
D03*
Y175197D02*
D03*
Y171260D02*
D03*
Y167323D02*
D03*
Y163386D02*
D03*
X63779Y70866D02*
D03*
Y66929D02*
D03*
Y62992D02*
D03*
Y59055D02*
D03*
Y55118D02*
D03*
Y51181D02*
D03*
Y47244D02*
D03*
Y43307D02*
D03*
X39764Y145669D02*
D03*
X18110Y126772D02*
D03*
Y122835D02*
D03*
Y118898D02*
D03*
Y114961D02*
D03*
Y111024D02*
D03*
Y107087D02*
D03*
Y103150D02*
D03*
Y99213D02*
D03*
Y95276D02*
D03*
Y91339D02*
D03*
X54724Y55905D02*
D03*
X50787D02*
D03*
X46850D02*
D03*
X42913D02*
D03*
X37795Y122835D02*
D03*
Y95276D02*
D03*
X54724Y51968D02*
D03*
X41732Y95276D02*
D03*
X87402Y70866D02*
D03*
X39370Y223622D02*
D03*
X22047Y91339D02*
D03*
X25984D02*
D03*
X22047Y95276D02*
D03*
X41732Y122835D02*
D03*
X105118Y98032D02*
D03*
X109055D02*
D03*
X101181D02*
D03*
X91732D02*
D03*
X95669D02*
D03*
X87795D02*
D03*
X78347D02*
D03*
X82284D02*
D03*
X74410D02*
D03*
X50787Y71653D02*
D03*
X29921Y91339D02*
D03*
X33858D02*
D03*
X37795D02*
D03*
X41732D02*
D03*
X22047Y126772D02*
D03*
X25984D02*
D03*
X29921D02*
D03*
X33858D02*
D03*
X22047Y122835D02*
D03*
X25984D02*
D03*
X29921D02*
D03*
X33858D02*
D03*
Y95276D02*
D03*
X29921D02*
D03*
X25984D02*
D03*
X22047Y118898D02*
D03*
Y99213D02*
D03*
Y103150D02*
D03*
Y114961D02*
D03*
Y111024D02*
D03*
Y107087D02*
D03*
X46850Y59842D02*
D03*
X42913D02*
D03*
X38976D02*
D03*
X19291Y75590D02*
D03*
Y79527D02*
D03*
Y71653D02*
D03*
Y67716D02*
D03*
X23228D02*
D03*
Y71653D02*
D03*
Y79527D02*
D03*
Y75590D02*
D03*
X54724Y59842D02*
D03*
Y63779D02*
D03*
Y67716D02*
D03*
Y71653D02*
D03*
Y75590D02*
D03*
X50787Y59842D02*
D03*
Y63779D02*
D03*
Y67716D02*
D03*
Y75590D02*
D03*
X67716Y43307D02*
D03*
Y59055D02*
D03*
Y62992D02*
D03*
Y66929D02*
D03*
Y70866D02*
D03*
Y51181D02*
D03*
Y55118D02*
D03*
Y47244D02*
D03*
X83465Y70866D02*
D03*
X91339D02*
D03*
X95276D02*
D03*
X75591D02*
D03*
X79528D02*
D03*
X71653D02*
D03*
Y43307D02*
D03*
X79528D02*
D03*
X75591D02*
D03*
X95276D02*
D03*
X91339D02*
D03*
X87402D02*
D03*
X83465D02*
D03*
X61024Y76772D02*
D03*
X68898D02*
D03*
X64961D02*
D03*
X74410D02*
D03*
X82284D02*
D03*
X78347D02*
D03*
X87795D02*
D03*
X95669D02*
D03*
X91732D02*
D03*
X101181D02*
D03*
X105118D02*
D03*
D36*
X266929Y203543D02*
D03*
X245669Y91339D02*
D03*
X211811Y198819D02*
D03*
X247244Y204331D02*
D03*
X295276Y277559D02*
D03*
X215300Y222987D02*
D03*
X311417Y198425D02*
D03*
X317830Y206412D02*
D03*
X304724Y275984D02*
D03*
X301325Y275881D02*
D03*
X212598Y24803D02*
D03*
X221654Y15748D02*
D03*
X212598Y6693D02*
D03*
X203543Y15748D02*
D03*
X206195Y9345D02*
D03*
X219001D02*
D03*
Y22151D02*
D03*
X206195D02*
D03*
X221654Y299213D02*
D03*
X212598Y290158D02*
D03*
X203543Y299213D02*
D03*
X212598Y308268D02*
D03*
X206195Y305615D02*
D03*
Y292810D02*
D03*
X219001D02*
D03*
Y305615D02*
D03*
X377953Y290158D02*
D03*
X368898Y299213D02*
D03*
X377953Y308268D02*
D03*
X387008Y299213D02*
D03*
X384356Y305615D02*
D03*
X371550D02*
D03*
Y292810D02*
D03*
X384356D02*
D03*
X368898Y15748D02*
D03*
X377953Y24803D02*
D03*
X387008Y15748D02*
D03*
X377953Y6693D02*
D03*
X384356Y9345D02*
D03*
Y22151D02*
D03*
X371550D02*
D03*
Y9345D02*
D03*
X222047Y227559D02*
D03*
X307874Y224409D02*
D03*
X329528Y205512D02*
D03*
X235433Y142126D02*
D03*
X225590Y216929D02*
D03*
X244488Y97244D02*
D03*
X70079Y203543D02*
D03*
X48819Y91339D02*
D03*
X14961Y198819D02*
D03*
X50394Y204331D02*
D03*
X98425Y277559D02*
D03*
X18449Y222987D02*
D03*
X114567Y198425D02*
D03*
X120979Y206412D02*
D03*
X107874Y275984D02*
D03*
X104475Y275881D02*
D03*
X15748Y24803D02*
D03*
X24803Y15748D02*
D03*
X15748Y6693D02*
D03*
X6693Y15748D02*
D03*
X9345Y9345D02*
D03*
X22151D02*
D03*
Y22151D02*
D03*
X9345D02*
D03*
X24803Y299213D02*
D03*
X15748Y290158D02*
D03*
X6693Y299213D02*
D03*
X15748Y308268D02*
D03*
X9345Y305615D02*
D03*
Y292810D02*
D03*
X22151D02*
D03*
Y305615D02*
D03*
X181102Y290158D02*
D03*
X172047Y299213D02*
D03*
X181102Y308268D02*
D03*
X190157Y299213D02*
D03*
X187505Y305615D02*
D03*
X174699D02*
D03*
Y292810D02*
D03*
X187505D02*
D03*
X172047Y15748D02*
D03*
X181102Y24803D02*
D03*
X190157Y15748D02*
D03*
X181102Y6693D02*
D03*
X187505Y9345D02*
D03*
Y22151D02*
D03*
X174699D02*
D03*
Y9345D02*
D03*
X25197Y227559D02*
D03*
X111024Y224409D02*
D03*
X132677Y205512D02*
D03*
X38583Y142126D02*
D03*
X28740Y216929D02*
D03*
X47638Y97244D02*
D03*
D37*
X248819Y224733D02*
D03*
X247676Y215195D02*
D03*
X276772Y198031D02*
D03*
X51968Y224733D02*
D03*
X50825Y215195D02*
D03*
X79922Y198031D02*
D03*
D38*
X276378Y231890D02*
D03*
Y238583D02*
D03*
X205906Y253150D02*
D03*
X276378Y245276D02*
D03*
X212598Y253150D02*
D03*
X79528Y231890D02*
D03*
Y238583D02*
D03*
X9055Y253150D02*
D03*
X79528Y245276D02*
D03*
X15748Y253150D02*
D03*
D39*
X218898Y213583D02*
D03*
Y206102D02*
D03*
X22047Y213583D02*
D03*
Y206102D02*
D03*
D40*
X234941Y126378D02*
D03*
X246161D02*
D03*
X38091D02*
D03*
X49311D02*
D03*
D41*
X231890Y109055D02*
D03*
X35039D02*
D03*
D42*
X245650Y101555D02*
D03*
Y106555D02*
D03*
Y116555D02*
D03*
Y111555D02*
D03*
X48799Y101555D02*
D03*
Y106555D02*
D03*
Y116555D02*
D03*
Y111555D02*
D03*
D43*
X233858Y72835D02*
D03*
X37008D02*
D03*
D44*
X241358Y86594D02*
D03*
X236358D02*
D03*
X226358D02*
D03*
X231358D02*
D03*
X44508D02*
D03*
X39508D02*
D03*
X29508D02*
D03*
X34508D02*
D03*
D45*
X209842Y203248D02*
D03*
Y211713D02*
D03*
X12992Y203248D02*
D03*
Y211713D02*
D03*
D46*
X242717Y226181D02*
D03*
Y224213D02*
D03*
Y222244D02*
D03*
Y220276D02*
D03*
Y218307D02*
D03*
Y216339D02*
D03*
Y214370D02*
D03*
Y212402D02*
D03*
X229724D02*
D03*
Y214370D02*
D03*
Y216339D02*
D03*
Y218307D02*
D03*
Y220276D02*
D03*
Y222244D02*
D03*
Y224213D02*
D03*
Y226181D02*
D03*
X45866D02*
D03*
Y224213D02*
D03*
Y222244D02*
D03*
Y220276D02*
D03*
Y218307D02*
D03*
Y216339D02*
D03*
Y214370D02*
D03*
Y212402D02*
D03*
X32874D02*
D03*
Y214370D02*
D03*
Y216339D02*
D03*
Y218307D02*
D03*
Y220276D02*
D03*
Y222244D02*
D03*
Y224213D02*
D03*
Y226181D02*
D03*
D47*
X239173Y210827D02*
D03*
X233268D02*
D03*
Y227756D02*
D03*
X239173D02*
D03*
X42323Y210827D02*
D03*
X36417D02*
D03*
Y227756D02*
D03*
X42323D02*
D03*
D48*
X236221Y219291D02*
D03*
X39370D02*
D03*
D49*
X241346Y218304D02*
D03*
X243314D02*
D03*
X44495D02*
D03*
X46464D02*
D03*
D50*
X305906Y66102D02*
D03*
Y48071D02*
D03*
X109055Y66102D02*
D03*
Y48071D02*
D03*
D51*
X280118Y57087D02*
D03*
X83268D02*
D03*
D52*
X263779Y29823D02*
D03*
Y17421D02*
D03*
X66929Y29823D02*
D03*
Y17421D02*
D03*
D53*
X266339Y281402D02*
Y291339D01*
X266276Y281339D02*
X266339Y281402D01*
X339173Y38189D02*
Y52953D01*
X338976Y53150D01*
X69488Y281402D02*
Y291339D01*
X69425Y281339D02*
X69488Y281402D01*
X142323Y38189D02*
Y52953D01*
X142126Y53150D01*
D54*
X214567Y49213D02*
D03*
X293307Y127953D02*
D03*
X17717Y49213D02*
D03*
X96457Y127953D02*
D03*
M02*
