M48
;Layer_Color=9474304
;FILE_FORMAT=2:5
INCH,TZ
;TYPE=PLATED
T1F00S00C0.01181
T2F00S00C0.01201
T4F00S00C0.03150
T5F00S00C0.03504
T7F00S00C0.04016
T8F00S00C0.06200
T9F00S00C0.10236
T10F00S00C0.12598
;TYPE=NON_PLATED
T11F00S00C0.11811
T12F00S00C0.12800
%
T01
X3937Y29528
Y39370
Y49213
X31102Y55905
X35039
X38976
Y51968
X35039
X42913
X46850
X50787
Y55905
X54724
Y51968
X55118Y41339
X45276
X39370Y33465
X29528
X39370Y23622
Y13780
X39370Y3937
X49213
X29528
X42913Y55905
X46850
X63779Y55118
Y51181
Y47244
Y43307
X67716Y43307
Y47244
Y51181
Y55118
X71653Y43307
X75591
X79528
X83465
X87402
X91339
X95276
X101181Y23622
X103937
Y20472
X101181
Y17323
X103937
Y14173
X101181
Y11024
X103937
X108268Y3937
X118110
X127953
Y13780
Y23622
X125984Y29528
X118110
X135827Y35039
X131496Y43701
X126378Y52362
Y55118
X123228
Y52362
X120079
Y55118
X116929
Y52362
X113779
Y55118
X153543Y43307
X163401Y41361
X173228Y39370
Y49213
X183071
Y39370
X192913Y39370
X200787
Y29528
X192913
Y49213
X200787
X167323Y31496
X157874
X151181
X157480Y23622
Y13780
Y3937
X147638
X137795
X167323
X98425
X88583
X78740
Y13780
X59055
Y3937
X68898
X96850Y18504
X226378Y3937
X236221
X246063
X255906
Y13780
X236221
Y23622
Y33465
X226378
X242126Y41339
X251969
X260630Y43307
Y47244
Y51181
Y55118
X264567
Y51181
Y47244
Y43307
X268504
X272441
X276378
X280315
X284252
X288189
X292126
X298031Y23622
X300787
Y20472
X298031
Y17323
X300787
Y14173
X298031
Y11024
X300787
X305118Y3937
X314961
X324803
Y13780
Y23622
X322835Y29528
X314961
X332677Y35039
X328346Y43701
X323228Y52362
Y55118
X320079
Y52362
X316929
Y55118
X313779
Y52362
X310630
Y55118
X350394Y43307
X360252Y41361
X364173Y31496
X354724
X348031
X354331Y23622
Y13780
Y3937
X344488
X334646
X364173
X295276
X285433
X275590
Y13780
X265748Y3937
X293701Y18504
X251575Y51968
X247638
X243701
X239764
X235827
X231890
Y55905
X235827
X239764
X243701
X247638
X251575
X227953
X370079Y49213
Y39370
X379921
Y49213
X389764Y49213
Y39370
Y29528
Y59055
X379921
Y68898
Y78740
X370079
Y68898
Y59055
Y88583
Y98425
X379921
Y88583
X389764
Y78740
Y68898
Y98425
Y108268
X379921
Y118110
Y127953
Y137795
Y147638
Y157480
X370079
Y147638
Y137795
Y127953
Y118110
Y108268
X389764Y118110
Y127953
Y137795
Y147638
Y157480
Y167323
Y177165
X379921
Y187008
X370079
Y177165
X389764Y187008
Y196850
Y206693
X360236
Y187008
Y177165
Y157480
Y147638
Y137795
Y127953
Y118110
X350394
Y127953
X340551
X340551Y118897
X340551Y108268
X330709
X321260Y106299
Y116535
X311811Y114173
X303150
Y124016
X311811
Y133858
X303150
Y144488
X301575Y147638
X297638
X293701
X294488Y144488
X288189Y147638
X284252
X280315
X281496Y144095
X273622Y143701
X274016Y151181
X270866
X263779Y150787
Y143701
Y133858
X273622
X283465
Y124016
Y114173
Y104331
X284646Y98032
X288583
X292520
X298031
X301969
X305906
X309449Y100000
X311811Y104331
X304331
X293701
X293307Y114173
X273622
Y124016
X263779
X253937
X250394Y122835
Y118898
Y114961
Y111024
Y107087
Y103150
X253150Y104331
X253543Y100787
X250394Y99213
X251575Y96063
X247638
X244488Y97244
X245669Y91339
X238583
Y95276
X234646
Y91339
X230709
Y95276
X226772
Y91339
X222835
Y95276
X218898
Y91339
X214961
Y95276
Y99213
Y103150
Y107087
X218898
Y111024
X214961Y111024
Y114961
Y118898
Y122835
Y126772
X218898
X222835
X226772
X230709
Y122835
X234646
X238583
X239370Y130709
X234646
X230709Y135433
X233465Y138583
X235433Y142126
X236614Y145669
X229528Y145276
X226378Y151575
X222441
X218504
X214567
Y155512
X218504
X222441
X226378
Y159449
X222441
X218504
X214567
X222441Y163386
Y167323
X226378
Y163386
Y171260
Y175197
X222441
Y179134
Y171260
X220472Y185433
X219291Y194488
X220866Y201181
X214567
Y209842
X226772Y211811
X231102Y208268
X230315Y202362
X235433
X240551
X244882Y199606
X247244Y204331
Y208268
X243307
X236221Y210236
X228740Y194882
X226772Y189370
X236221Y186614
X244094Y183071
Y173228
X236221Y175197
X236614Y165354
X244094Y163386
Y153543
X236614Y155512
X244094Y143701
X253937
Y133858
X254331Y114173
X263779
X263386Y104331
X261811Y98032
X257874
X265748
X271260
X275197
X279134
X273622Y104331
X275197Y76772
X271260
X265748
X261811
X257874
X251575Y75590
Y79527
X247638
Y75590
Y71653
X251575
Y67716
Y63779
Y59842
X247638
Y63779
Y67716
X243701Y59842
X239764
X235827
X231890
X227953Y59842
X220079Y63779
Y67716
X216142
Y71653
X220079
Y75590
X216142
Y79527
X220079
X218898Y99213
Y103150
Y114961
Y118898
Y122835
X222835
X226772
X230709Y180709
X246063Y192913
X253937Y189370
X264567Y188976
X272441Y190157
X279922Y190551
X276378Y194882
X276772Y202756
X280709Y205906
X285039Y203937
X284252Y199213
X291732
Y203937
X298819
Y199213
X306693
Y203937
X311024Y206299
X317830Y206412
X318898Y202756
X319685Y197244
X316142
X311417Y198425
X309842Y192126
X316142Y188976
X303150
X301575Y194095
X294094Y194488
X296063Y188976
X287008
X296063Y210630
X323228Y205512
X325590Y204724
X329528Y205512
Y199606
X325590Y198031
X324409Y147638
X328346
X325590Y142520
X330709Y137795
X340551
Y147638
X337795Y151181
X334646
X344094Y157480
X350394Y157874
Y147638
X320472
X314961
X311024
X307087
X311811Y143701
X320866Y136614
X350394Y108268
Y98425
Y89370
X341339Y88583
Y78740
Y64567
X350394Y62992
X360236Y68898
Y78740
Y88583
Y98425
Y108268
X329528Y70472
X301969Y76772
X298031
X292520
X288583
X284646
X279134
X280315Y70866
X276378
X272441
X268504
X264567
Y66929
Y62992
X260630
Y66929
Y70866
Y59055
X264567
X284252Y70866
X288189Y70866
X292126
X262992Y157480
X266929Y203543
X265129Y207101
X210630Y207480
X211811Y198819
X211417Y195669
Y185433
X200787Y187008
X192913
X183071
X173228
Y177165
X163386
Y187008
Y206693
X192913
X200787
Y196850
X192913
Y177165
X200787
Y167323
X192913Y167323
Y157480
X200787Y157480
Y147638
X192913
Y137795
X200787
Y127953
X192913
X183071
Y137795
Y147638
Y157480
X173228
Y147638
X163386
Y157480
X153543Y157874
X147244Y157480
X140945Y151181
X137795
X143701Y147638
Y137795
X133858
X128740Y142520
X127559Y147638
X131496
X123622
X118110
X114173
X110236
X104724
X100787
X96850
X97638Y144488
X106299
X114961Y143701
Y133858
X106299
Y124016
X114961
Y114173
X106299
X96457
X86614
Y104331
X87795Y98032
X91732
X95669
X101181
X105118
X109055
X112598Y100000
X114961Y104331
X107480
X96850
X76772
X78347Y98032
X82284
X74410
X68898
X64961
X61024
X56693Y100787
X56299Y104331
X66535
X66929Y114173
X57480
X57087Y124016
X66929
X76772
X86614
Y133858
X76772
X66929
X57087
Y143701
X66929
Y150787
X66142Y157480
X74016Y151181
X77165
X76772Y143701
X84646Y144095
X83465Y147638
X87402
X91339
X90158Y188976
X83071Y190551
X75591Y190157
X79528Y194882
X79921Y202756
X83858Y205906
X88189Y203937
X87402Y199213
X94882
Y203937
X101969
Y199213
X109843
Y203937
X114173Y206299
X120979Y206412
X122047Y202756
X122835Y197244
X119291
X114567Y198425
X112992Y192126
X119291Y188976
X106299
X104724Y194095
X97244Y194488
X99213Y188976
Y210630
X126378Y205512
X128740Y204724
X132677Y205512
Y199606
X128740Y198031
X70079Y203543
X68279Y207101
X67716Y188976
X57087Y189370
X76772Y114173
X78347Y76772
X74410
X68898
X64961
X61024
X63779Y70866
Y66929
Y62992
Y59055
X67716
Y62992
Y66929
Y70866
X71653
X75591
X79528
X83465
X87402Y70866
X91339Y70866
X95276
X95669Y76772
X91732
X87795
X82284
X101181
X105118
X132677Y70472
X144488Y64567
X153543Y62992
X163386Y68898
Y78740
Y88583
X173228
Y98425
X183071
Y88583
Y78740
Y68898
Y59055
X192913
X200787
X206299Y61811
Y71653
X200787Y68898
X192913
Y78740
X200787
X206299Y81496
X207874Y92520
Y102362
Y112205
Y122047
Y131890
Y141732
X210630Y151575
Y155512
Y159449
X183071Y177165
X173228Y137795
X163386
Y127953
Y118110
X153543
Y127953
X143701
X143701Y118897
X143701Y108268
X133858
X124409Y106299
Y116535
X124016Y136614
X153543Y147638
Y108268
Y98425
Y89370
X144488Y88583
Y78740
X173228
Y68898
Y59055
X192913Y88583
X200787Y88583
Y98425
X192913
Y108268
X200787
Y118110
X192913
X183071
Y108268
X173228Y108268
Y118110
Y127953
X163386Y108268
Y98425
X53543Y99213
Y103150
Y107087
Y111024
Y114961
Y118898
Y122835
X41732Y122835
X37795
X33858
Y126772
X29921
X25984
X22047
X18110
Y122835
Y118898
Y114961
Y111024
Y107087
Y103150
Y99213
Y95276
Y91339
X22047
Y95276
X25984
Y91339
X29921
Y95276
X33858
Y91339
X37795
Y95276
X41732
Y91339
X48819
X50787Y96063
X54724
X47638Y97244
X50787Y79527
X54724
Y75590
Y71653
X50787
Y67716
X54724
Y63779
Y59842
X50787
Y63779
X46850Y59842
X42913
X38976
X35039
X31102Y59842
X23228Y63779
Y67716
X19291
Y71653
X23228
Y75590
X19291
Y79527
X23228
X9449Y81496
X3937Y78740
Y88583
Y98425
Y108268
Y118110
Y127953
Y137795
Y147638
Y157480
Y167323
Y177165
Y187008
Y196850
Y206693
X13780Y207480
X17717Y209842
Y201181
X14961Y198819
X14567Y195669
X22441Y194488
X24016Y201181
X33465Y202362
X38583
X43701
X48031Y199606
X50394Y204331
Y208268
X46457
X39370Y210236
X34252Y208268
X29921Y211811
X31890Y194882
X29921Y189370
X23622Y185433
X25591Y179134
Y175197
X29528
Y171260
Y167323
Y163386
Y159449
Y155512
Y151575
X25591
X21654
X17717
Y155512
X21654
X25591
Y159449
X21654
X17717
X13780
Y155512
Y151575
X11024Y141732
Y131890
Y122047
Y112205
Y102362
Y92520
X22047Y99213
Y103150
Y107087
Y111024
Y114961
Y118898
Y122835
X25984
X29921
X37795Y130709
X42520
X33858Y135433
X36614Y138583
X38583Y142126
X39764Y145669
X32677Y145276
X47244Y143701
Y153543
X39764Y155512
Y165354
X47244Y163386
Y173228
X39370Y175197
X33858Y180709
X39370Y186614
X47244Y183071
X49213Y192913
X14567Y185433
X25591Y171260
Y167323
Y163386
X9449Y71653
X3937Y68898
Y59055
X9449Y61811
X50787Y75590
X39370Y214961
X41732Y219291
X37008
X39370Y223622
Y229528
X44882Y230709
Y237402
X45669Y243307
X39764Y241339
X33465Y242126
X36220Y233465
X29134Y233858
X26378Y230708
X25197Y227559
X30315Y228740
X29921Y220079
X28740Y216929
X18449Y222987
X19685Y226378
X11811Y229528
Y238583
X17717Y242913
X19685Y251969
X21260Y255906
X27559Y251575
X36220Y258661
X45276Y259842
X47638Y268110
X39370Y265748
X29528
X22047
X12992
X3937
Y255906
Y246063
Y236221
Y226378
Y216535
Y275590
X13780
X23622
X26378Y281496
X31496Y289370
X39370Y301181
X49213
Y311024
X39370
X29528
X44488Y277165
X55118Y261417
X53937Y252756
X53150Y247244
X48819Y248819
X40945Y248818
X3937Y285433
X59055Y291339
Y301181
X68898
X78740
Y311024
X68898
X59055
X88583
Y301181
Y292126
X98425
Y301181
X108268
Y292126
X118110
Y301181
X127953
Y291732
X137795Y291339
Y301181
X147638
X157480
Y311024
X147638
X137795
X127953
X118110
X108268
X98425
X100000Y282677
X98425Y277559
X104475Y275881
X107874Y275984
X109055Y281890
X111417Y266535
X120079Y265748
Y253937
X131890Y251575
X140551Y248031
X137008Y259842
X143701Y265748
X153543
X163386
Y255906
Y247638
X163779Y242126
X173622
X173228Y247638
Y255906
Y265748
Y275590
X183071Y277559
X192913Y274016
X200787Y275590
X210630
X209842Y265748
X200787
Y255906
Y246063
X192913
X183071
X179134Y251575
X186221Y261024
X192913Y285433
X200787
X167323
Y311024
X133465Y269291
X101575Y270079
X104724Y261417
X90551Y265748
X77165Y262205
X78740Y254724
X75984Y248031
X84646Y248819
X84252Y241732
Y235039
Y228740
Y221260
Y213386
X92913Y213779
X92126Y220866
X91732Y228346
Y235039
Y241732
X99606Y242913
Y246063
X94488Y248819
X99606Y237795
Y234646
X100394Y229528
Y226378
X100000Y220079
X105905Y223622
X111024Y224409
X122835Y221260
X131890
X163386Y216535
Y226378
X173228Y216535
X183071
X192913
X200787
Y226378
X192913
Y236221
X200787
X208661Y238583
Y229528
X153937Y240945
X75591Y235433
X76378Y228346
X76772Y221654
X75249Y213607
X61417Y213779
X59449Y235433
X67716
X67323Y251969
X61024Y252756
Y261417
X68898Y260236
X83858Y282283
X223228Y281496
X220472Y275590
X218898Y265748
X226378
X236221
X233071Y258661
X242126Y259842
X244488Y268110
X241339Y277165
X228346Y289370
X236221Y301181
X246063
X255906
Y291339
X265748Y301181
X275590
Y311024
X265748
X255906
X246063
X236221
X226378
X285433
Y301181
Y292126
X295276
Y301181
X305118
Y292126
X314961
Y301181
X324803
Y291732
X334646Y291339
Y301181
X344488
X354331
Y311024
X344488
X334646
X324803
X314961
X305118
X295276
X296850Y282677
X295276Y277559
X301325Y275881
X304724Y275984
X305906Y281890
X308268Y266535
X316929Y265748
Y253937
X328740Y251575
X337402Y248031
X333858Y259842
X340551Y265748
X350394
X360236
Y255906
Y247638
X360630Y242126
X350787Y240945
X360236Y226378
Y216535
X328740Y221260
X319685
X307874Y224409
X302756Y223622
X297244Y226378
Y229528
X296457Y234646
Y237795
Y242913
Y246063
X291339Y248819
X281496
X281102Y241732
Y235039
Y228740
Y221260
Y213386
X289764Y213779
X288976Y220866
X288583Y228346
Y235039
Y241732
X272835Y248031
X275590Y254724
X274016Y262205
X265748Y260236
X257874Y261417
X251969
X250787Y252756
X250000Y247244
X245669Y248819
X237796Y248818
X236614Y241339
X230315Y242126
X233071Y233465
X236221Y229528
Y223622
X238583Y219291
X233858
X236221Y214961
X225590Y216929
X226772Y220079
X227165Y228740
X223229Y230708
X222047Y227559
X216535Y226378
X215300Y222987
X214567Y242913
X216535Y251969
X218110Y255906
X224410Y251575
X225984Y233858
X241732Y230709
Y237402
X242520Y243307
X256299Y235433
X264567
X272441
X273228Y228346
X273622Y221654
X272099Y213607
X258268Y213779
X257874Y252756
X264173Y251969
X287402Y265748
X298425Y270079
X301575Y261417
X330315Y269291
X364173Y285433
Y311024
X280709Y282283
X296850Y220079
X370079Y216535
X379921
X389764
Y226378
Y236221
Y246063
X379921
X375984Y251575
X370079Y247638
X370472Y242126
X370079Y255906
Y265748
Y275590
X379921Y277559
X389764Y274016
Y285433
X383071Y261024
T02
X9345Y9345
X15748Y6693
X22151Y9345
X24803Y15748
X22151Y22151
X15748Y24803
X9345Y22151
X6693Y15748
X172047
X174699Y22151
X181102Y24803
X187505Y22151
X190157Y15748
X187505Y9345
X181102Y6693
X174699Y9345
X206195
X203543Y15748
X206195Y22151
X212598Y24803
X219001Y22151
X221654Y15748
X219001Y9345
X212598Y6693
X371550Y9345
X368898Y15748
X371550Y22151
X377953Y24803
X384356Y22151
X387008Y15748
X384356Y9345
X377953Y6693
X276772Y198031
X79922
X50825Y215195
X51968Y224733
X22151Y292810
X24803Y299213
X22151Y305615
X15748Y308268
X9345Y305615
X6693Y299213
X9345Y292810
X15748Y290158
X174699Y292810
X181102Y290158
X187505Y292810
X190157Y299213
X187505Y305615
X181102Y308268
X174699Y305615
X172047Y299213
X203543
X206195Y305615
Y292810
X212598Y290158
X219001Y292810
X221654Y299213
X219001Y305615
X212598Y308268
X248819Y224733
X247676Y215195
X371550Y292810
X377953Y290158
X384356Y292810
X387008Y299213
X384356Y305615
X377953Y308268
X371550Y305615
X368898Y299213
T04
X49213Y12795
Y26575
X84646
Y12795
X246063
Y26575
X281496
Y12795
X287402Y180512
Y194291
X90551
Y180512
T05
X40425Y255339
X49425
X53425Y281339
X61425
X69425
X77425
X73425Y274339
X65425
X57425
X81425
X85425Y255339
X94425
X102425
X111425
X119425Y274339
X127425
X135425
X143425
X139425Y281339
X131425
X123425
X115425
X147425Y255339
X156425
X237276
X246276
X254276Y274339
X262276
X270276
X278276
X274276Y281339
X266276
X258276
X250276
X282276Y255339
X291276
X299276
X308276
X316276Y274339
X324276
X332276
X340276
X336276Y281339
X328276
X320276
X312276
X344276Y255339
X353276
T07
X346378Y169291
X358189
Y200787
X346378
X161339
X149528
Y169291
X161339
Y232283
X149528
X346378
X358189
T08
X35425Y277839
X161425
X232276
X358276
T09
X328740Y96063
Y124409
X131890
Y96063
T10
X15748Y15748
X17717Y49213
X181102Y15748
X212598
X214567Y49213
X377953Y15748
X293307Y127953
X96457
X15748Y299213
X181102
X212598
X377953
T11
X375197Y169291
Y200787
X178347
Y169291
Y232283
X375197
T12
X42425Y291339
X154425
X239276
X351276
M30
